<?xml version="1.0" ?><!DOCTYPE svg  PUBLIC '-//W3C//DTD SVG 1.1//EN'  'http://www.w3.org/Graphics/SVG/1.1/DTD/svg11.dtd'><svg id="Lager_1" style="enable-background:new 0 0 128 128;" version="1.1" viewBox="0 0 128 128" xml:space="preserve" xmlns="http://www.w3.org/2000/svg" xmlns:xlink="http://www.w3.org/1999/xlink"><g><g><g><circle cx="64" cy="64" r="50" style="fill:#F3BF00;"/></g></g><path d="M59.2,46.2c-0.7,0.1-0.4,0.7-0.8,0.7C58.1,46.9,58.1,46.1,59.2,46.2z M61.3,46.3   c0.6-0.2,0.7,0.5,1,0.4C62.6,46.6,62.3,45.9,61.3,46.3z M83.6,89.1c-2,1-4.6,3.2-5.6,4.2c-0.7,0.7-3.7,1-5.4,0.2   c-2-1-0.9-2.6-4-2.7c-1.5,0-3,0-4.5,0c-1.3,0-2.6,0.1-4,0.1c-4.6,0-5.1,3-8,2.9c-2-0.1-4.5-1.7-8.9-2.6c-3.1-0.6-6-0.8-6.6-2.1   c-0.6-1.3,0.8-2.9,0.9-4.2c0.1-1.8-1.3-4.1-0.3-5.1c0.9-0.8,2.8-0.2,4-0.9c1.3-0.7,1.9-1.3,1.9-3c0.5,1.6,0,3-1.1,3.7   c-0.6,0.4-1.9,0.6-2.8,0.5c-0.8-0.1-1.3,0.1-1.5,0.4c-0.3,0.4-0.2,1.1,0.2,2s0.8,1.5,0.8,2.6c-0.1,1.1-1.3,2.4-1.1,3.4   c0.1,0.4,0.4,0.7,1.3,0.9c1.4,0.4,3.9,0.8,6.4,1.4c2.7,0.7,5.6,1.9,7.3,1.7c5.3-0.7,2.3-6.4,1.4-7.7c-4.4-7-7.4-11.6-9.7-9.8   c-0.6,0.5-0.6-1.2-0.6-1.8c0.1-2.3,1.3-3.1,2-4.9c1.3-3.4,2.3-7.2,4.3-9.2c1.5-1.9,3.8-5.1,4.3-6.7c-0.4-3.6-0.5-7.4-0.5-10.8   c-0.1-3.5,0.5-6.7,4.5-8.8c1-0.5,2.2-0.7,3.6-0.7c2.4,0,5.1,0.6,6.7,1.9c2.7,2,4.4,6.3,4.2,9.3c-0.2,2.4,0.3,4.8,1,7.4   c0.9,3,2.3,5.1,4.6,7.6c2.7,2.9,4.9,8.6,5.5,12.3c0.6,3.4-0.2,5.5-0.9,5.6c-1.1,0.2-1.8,3.7-5.3,3.5c-2.2-0.1-2.4-1.4-3-2.5   c-1-1.8-2-1.2-2.4,0.6c-0.2,0.9-0.1,2.3,0.2,3.4c0.6,2.2,0.4,4.2,0,6.7c-0.7,4.8,3.3,5.7,6.1,3.4c2.7-2.2,3.3-2.6,6.7-3.8   c5.2-1.8,3.4-3.3,0.7-4.3c-2.5-0.8-2.6-5-1.7-5.8c0.2,4.5,2.5,5.2,3.5,5.8C92,85.7,86.1,87.9,83.6,89.1z M72.2,75.9   c0.5-0.6,1-0.6,1.8-0.6c0.1-2.7,4.4-2.5,5.8-1.4c0-0.6-1.3-1.2-1.9-1.5c0.9-3.1,0.5-4.3-0.1-7.3c-0.5-2.2-2.5-5.2-4.1-6.2   c0.4,0.4,1.2,1.4,2,2.9c1.4,2.6,2.8,6.4,1.9,9.6c-0.4,1.2-1.2,1.4-1.7,1.4c-2.5,0.3-1-2.9-2-7.2c-1.1-4.8-2.3-5.2-2.6-5.6   c-1.4-6.3-3-5.7-3.4-8c-0.4-2.1,1.8-3.8-1.2-4.4c-0.9-0.2-2.2-1.1-2.8-1.2c-0.5-0.1-0.8-3.5,1.1-3.6s2.3,2.2,1.9,3.1   c-0.5,0.9,0,1.2,1,0.9c0.8-0.2,0.3-2.3,0.5-2.6c-0.5-2.9-1.7-3.3-3-3.5c-4.8,0.4-2.6,5.6-3.1,5.1c-0.7-0.7-2.7,0-2.7-0.5   c0-2.7-0.9-4.3-2.1-4.3c-1.4,0-2,1.9-2,3c-0.1,1,0.6,3.2,1.1,3.1c0.3-0.1,0.9-0.8,0.3-0.8c-0.3,0-0.8-0.7-0.8-1.6   c0-0.9,0.3-1.8,1.5-1.8c1.4,0.1,1.4,2.7,1.2,2.9c-0.4,0.3-1,0.9-1.1,1c-0.4,0.7-1.3,0.9-1.6,1.2c-0.6,0.6-0.7,1.3-0.3,1.6   c1.6,0.9,1.1,1.9,3.3,2c1.4,0.1,2.5-0.2,3.5-0.5c0.8-0.2,3.2-0.8,3.8-1.7c0.2-0.4,0.5-0.4,0.7-0.3c0.3,0.2,0.4,0.8-0.5,1.1   c-1.2,0.3-2.5,1-3.5,1.4c-1.1,0.4-1.4,0.6-2.4,0.8c-2.3,0.4-4-0.8-2.4,0.7c0.5,0.5,1,0.8,2.3,0.8c2.9-0.1,6.1-3.6,6.4-2   c0.1,0.3-0.9,0.8-1.7,1.1c-2.7,1.3-4.6,4-6.3,3c-1.6-0.8-3.1-4.7-3.1-2.9c0,2.7-3.5,5-1.9,8c-1.1,0.3-3.5,5.4-3.8,8   c-0.2,1.5,0.1,3.4-0.2,4.4c-0.5,1.5-2.9-1.4-2.1-5.1c0.1-0.6,0-0.8-0.2-0.5c-1,1.7-0.4,4.1,0.3,5.7c0.3,0.7,1.1,1,1.7,1.7   c1.2,1.4,6,4.9,6.8,5.8c1,1,0.8,3.4-1.5,3.6c1.1,2.1,2.2,2.3,2.2,5.9c1.3-0.7,0.8-2.2,0.2-3.2c-0.4-0.7-0.9-1-0.8-1.1   c0.1-0.1,0.7-0.7,1.1-0.2c1.2,1.3,3.4,1.5,5.8,1.3c2.4-0.3,4.9-1.1,6.1-3c0.6-0.9,0.9-1.2,1.2-1c0.3,0.2,0.4,0.8,0.3,1.8   c0,1.1-0.5,2.3-0.8,3.2c-0.3,1.1-0.4,1.8,0.6,1.8c0.3-1.9,0.8-3.9,1-5.8C72,82.1,70.4,78,72.2,75.9z M57.6,44.7   c-0.1,0.4,0,0.7,0.3,0.7c0,0,0.1,0,0.1-0.1c0.1-0.9-0.3-1.5-0.5-1.5c-0.4-0.1-0.4,0.5-0.2,0.5C57.5,44.2,57.7,44.4,57.6,44.7z    M65.4,43.5c-0.4,0-0.3,0.3-0.1,0.3c0.3,0.1,0.5,0.6,0.6,1.1c0,0,0.4-0.1,0.4-0.2C66.4,43.9,65.6,43.5,65.4,43.5z" style="fill:#222222;"/></g></svg>