<?xml version="1.0" ?><!DOCTYPE svg  PUBLIC '-//W3C//DTD SVG 1.1//EN'  'http://www.w3.org/Graphics/SVG/1.1/DTD/svg11.dtd'><svg enable-background="new 0 0 128 128" id="Layer_1" version="1.1" viewBox="0 0 128 128" xml:space="preserve" xmlns="http://www.w3.org/2000/svg" xmlns:xlink="http://www.w3.org/1999/xlink"><circle cx="64" cy="64" fill="#4B5F83" id="circle" r="64"/><g id="icon"><g id="_x30_3"><path d="M90,86.5H38c-2.2,0-4-1.8-4-4v-7c0-2.2,1.8-4,4-4h52c2.2,0,4,1.8,4,4v7    C94,84.7,92.2,86.5,90,86.5z" fill="#22313F" id="base_2_"/><path d="M40,84L40,84c-1.1,0-2-0.9-2-2v-6c0-1.1,0.9-2,2-2h0c1.1,0,2,0.9,2,2v6    C42,83.1,41.1,84,40,84z" fill="#22A7F0" id="light_2_"/></g><g id="_x30_2"><path d="M90,71.5H38c-2.2,0-4-1.8-4-4v-7c0-2.2,1.8-4,4-4h52c2.2,0,4,1.8,4,4v7    C94,69.7,92.2,71.5,90,71.5z" fill="#2B3D4C" id="base_1_"/><path d="M40,69L40,69c-1.1,0-2-0.9-2-2v-6c0-1.1,0.9-2,2-2h0c1.1,0,2,0.9,2,2v6    C42,68.1,41.1,69,40,69z" fill="#22A7F0" id="light_1_"/></g><g id="_x30_1"><path d="M90,56.5H38c-2.2,0-4-1.8-4-4v-7c0-2.2,1.8-4,4-4h52c2.2,0,4,1.8,4,4v7    C94,54.7,92.2,56.5,90,56.5z" fill="#22313F" id="base"/><path d="M40,54L40,54c-1.1,0-2-0.9-2-2v-6c0-1.1,0.9-2,2-2h0c1.1,0,2,0.9,2,2v6C42,53.1,41.1,54,40,54z    " fill="#22A7F0" id="light"/></g></g></svg>