<?xml version="1.0" encoding="UTF-8"?>
<svg width="24px" height="24px" viewBox="0 0 24 24" version="1.1" xmlns="http://www.w3.org/2000/svg" xmlns:xlink="http://www.w3.org/1999/xlink">
    <!-- Generator: Sketch 50.2 (55047) - http://www.bohemiancoding.com/sketch -->
    <title>ic_edit_nor</title>
    <desc>Created with Sketch.</desc>
    <defs></defs>
    <g id="Symbol" stroke="none" stroke-width="1" fill="none" fill-rule="evenodd">
        <g id="Bar/Action-Bar/↳Elements/icons/move-Copy" transform="translate(2.000000, 2.000000)">
            <g id="ic_edit_nor">
                <rect id="Rectangle-50" x="0" y="0" width="20" height="20"></rect>
                <g id="ic_move_out_nor-copy">
                    <rect id="Rectangle-14" x="0" y="0" width="20" height="20"></rect>
                    <path d="M10.6822049,17 L3.00087166,17 C2.4481055,17 2,16.5500512 2,15.9931545 L2,5 L2,2.99895656 C2,2.44724809 2.45414364,2 2.99683559,2 L8.62816441,2 C9.1787015,2 9.81043862,2.40459335 10.0450166,2.91639996 L10.0833333,3 L16.9991283,3 C17.5518945,3 18,3.44994876 18,4.00684547 L18,7.52778699 C17.4229041,7.01127221 16.7452396,6.60481582 16,6.34141142 L16,5 L4,5 L4,15 L8.80269317,15 C9.26707324,15.8027747 9.91210683,16.487971 10.6822049,17 Z" id="Combined-Shape" fill="#60686D"></path>
                </g>
            </g>
            <path d="M15,8.12601749 C16.4056073,8.4877958 17.5122042,9.59439271 17.8739825,11 L19,11 L19,13 L17.8739825,13 C17.5122042,14.4056073 16.4056073,15.5122042 15,15.8739825 L15,17 L13,17 L13,15.8739825 C11.5943927,15.5122042 10.4877958,14.4056073 10.1260175,13 L9,13 L9,11 L10.1260175,11 C10.4877958,9.59439271 11.5943927,8.4877958 13,8.12601749 L13,7 L15,7 L15,8.12601749 Z M14,14 C15.1045695,14 16,13.1045695 16,12 C16,10.8954305 15.1045695,10 14,10 C12.8954305,10 12,10.8954305 12,12 C12,13.1045695 12.8954305,14 14,14 Z M14,13 C13.4477153,13 13,12.5522847 13,12 C13,11.4477153 13.4477153,11 14,11 C14.5522847,11 15,11.4477153 15,12 C15,12.5522847 14.5522847,13 14,13 Z" id="Combined-Shape" fill="#60686D"></path>
        </g>
    </g>
</svg>