<?xml version="1.0" encoding="UTF-8"?>
<svg width="24px" height="24px" viewBox="0 0 24 24" version="1.1" xmlns="http://www.w3.org/2000/svg" xmlns:xlink="http://www.w3.org/1999/xlink">
    <!-- Generator: Sketch 49.3 (51167) - http://www.bohemiancoding.com/sketch -->
    <title>icon-hide</title>
    <desc>Created with Sketch.</desc>
    <defs></defs>
    <g id="Page-1" stroke="none" stroke-width="1" fill="none" fill-rule="evenodd">
        <g id="weiyun2018_WEB_mainicon" transform="translate(-587.000000, -1104.000000)">
            <g id="ic/invisible_nor" transform="translate(589.000000, 1106.000000)">
                <g id="ic_invisible_nor">
                    <rect id="Rectangle-48" x="0" y="0" width="20" height="20"></rect>
                    <path d="M3.94270452,5.35691808 L2.02016595,3.43437951 L3.43437951,2.02016595 L5.61120208,4.19698852 C7.01453068,3.39899617 8.47746332,3 10,3 C13.6818983,3 17.0152317,5.33333333 20,10 C18.7471757,11.958783 17.4329409,13.506477 16.0572955,14.6430819 L17.9798341,16.5656205 L16.5656205,17.9798341 L14.3887979,15.8030115 C12.9854693,16.6010038 11.5225367,17 10,17 C6.31810167,17 2.98476833,14.6666667 0,10 C1.25282431,8.04121701 2.56705915,6.49352304 3.94270452,5.35691808 Z M14.6370272,13.2228136 C15.6366136,12.426886 16.6198279,11.3570171 17.5880505,10 C15.1602175,6.59725872 12.638122,5 10,5 C9.01515468,5 8.04647913,5.22259815 7.09284104,5.67862748 L8.70658455,7.29237099 C9.09821982,7.10495216 9.53685347,7 10,7 C11.6568542,7 13,8.34314575 13,10 C13,10.4631465 12.8950478,10.9017802 12.707629,11.2934155 L14.6370272,13.2228136 Z M12.907159,14.3213725 L11.2934155,12.707629 C10.9017802,12.8950478 10.4631465,13 10,13 C8.34314575,13 7,11.6568542 7,10 C7,9.53685347 7.10495216,9.09821982 7.29237099,8.70658455 L5.36297281,6.77718638 C4.36338637,7.57311397 3.38017208,8.64298289 2.41194953,10 C4.83978246,13.4027413 7.36187796,15 10,15 C10.9848453,15 11.9535209,14.7774018 12.907159,14.3213725 Z" fill="#60686D" fill-rule="nonzero"></path>
                </g>
            </g>
        </g>
    </g>
</svg>