<?xml version="1.0" encoding="UTF-8"?>
<svg width="24px" height="24px" viewBox="0 0 24 24" version="1.1" xmlns="http://www.w3.org/2000/svg" xmlns:xlink="http://www.w3.org/1999/xlink">
    <!-- Generator: Sketch 49.2 (51160) - http://www.bohemiancoding.com/sketch -->
    <title>icon-code</title>
    <desc>Created with Sketch.</desc>
    <defs></defs>
    <g id="Page-1" stroke="none" stroke-width="1" fill="none" fill-rule="evenodd">
        <g id="Bar/Action-Bar/↳Elements/icons/QC" transform="translate(2.000000, 2.000000)">
            <g id="ic_group_nor" stroke-width="1">
                <rect id="Rectangle-13" x="0" y="0" width="20" height="20"></rect>
            </g>
            <path d="M18,4 L18,6 L16,6 L16,4 L16,2 L18,2 L18,4 Z M14,8 L14,10 L12,10 L12,8 L12,6 L12,4 L12,2 L14,2 L14,4 L14,6 L14,8 Z M8,16 L10,16 L10,18 L8,18 L6,18 L6,16 L8,16 Z M8,14 L6,14 L6,16 L4,16 L4,14 L2,14 L2,12 L4,12 L6,12 L8,12 L10,12 L10,14 L8,14 Z M2,2 L10,2 L10,10 L2,10 L2,2 Z M4,4 L4,8 L8,8 L8,4 L4,4 Z M5,5 L7,5 L7,7 L5,7 L5,5 Z M12,12 L18,12 L18,18 L12,18 L12,12 Z M14,14 L14,16 L16,16 L16,14 L14,14 Z M2,16 L4,16 L4,18 L2,18 L2,16 Z M16,8 L18,8 L18,10 L16,10 L16,8 Z M10,10 L12,10 L12,12 L10,12 L10,10 Z" id="Combined-Shape" fill="#60686D"></path>
        </g>
    </g>
</svg>