<?xml version="1.0" encoding="UTF-8"?>
<svg width="24px" height="24px" viewBox="0 0 24 24" version="1.1" xmlns="http://www.w3.org/2000/svg" xmlns:xlink="http://www.w3.org/1999/xlink">
    <!-- Generator: Sketch 52.3 (67297) - http://www.bohemiancoding.com/sketch -->
    <title>icon-visit</title>
    <desc>Created with Sketch.</desc>
    <g id="Page-1" stroke="none" stroke-width="1" fill="none" fill-rule="evenodd">
        <g id="ic_share_nor" transform="translate(2.000000, 2.000000)">
            <rect id="Rectangle-48" x="0" y="0" width="20" height="20"></rect>
            <path d="M9.96647598,7 C9.58439227,7.586557 9.31653014,8.2687583 9.1916825,9 L2,9 L2,7 L9.96647598,7 Z M9.212635,11 C9.31074619,11.509832 9.47934142,11.9976858 9.71228204,12.4461774 C9.43983559,12.6358141 9.15216475,12.8270037 8.87924703,13 L2,13 L2,11 L9.212635,11 Z M7.17355892,15 C7.04891833,15.3582827 6.98894785,15.7366669 7.00167701,16.1265334 C7.01164506,16.4318331 7.06676528,16.7251668 7.16067125,17 L2,17 L2,15 L7.17355892,15 Z M2,3 L17,3 L17,5 L2,5 L2,3 Z" id="Combined-Shape" fill="#60686D"></path>
            <path d="M15.1355586,12.0841133 C15.5986705,11.5476611 15.8878673,10.7860173 15.8878673,9.94117647 C15.8878673,8.31680956 14.8187827,7 13.5,7 C12.1812173,7 11.1121327,8.31680956 11.1121327,9.94117647 C11.1121327,10.7860173 11.4013295,11.5476611 11.8644414,12.0841133 C11.8701267,12.0917292 11.8760468,12.0994353 11.8822016,12.1072316 C12.1959885,12.5047074 12.1682752,13.1036855 11.6202056,13.5284474 C11.0760167,13.9502018 10.3926847,14.4111672 9.876546,14.7355546 C9.23124864,15.1411169 8.98670262,15.637025 9.00055418,16.0612681 C9.01766409,16.5853074 9.4290377,17 9.96637755,17 L13.5,17 L17.0336225,17 C17.5709623,17 17.9823359,16.5853074 17.9994458,16.0612681 C18.0132974,15.637025 17.7687514,15.1411169 17.123454,14.7355546 C16.6073153,14.4111672 15.9239833,13.9502018 15.3797944,13.5284474 C14.8317248,13.1036855 14.8040115,12.5047074 15.1177984,12.1072316 C15.1239532,12.0994353 15.1298733,12.0917292 15.1355586,12.0841133 Z" id="Path" fill="#60686D"></path>
        </g>
    </g>
</svg>