<?xml version="1.0" encoding="UTF-8"?>
<svg width="24px" height="24px" viewBox="0 0 24 24" version="1.1" xmlns="http://www.w3.org/2000/svg" xmlns:xlink="http://www.w3.org/1999/xlink">
    <!-- Generator: Sketch 49.3 (51167) - http://www.bohemiancoding.com/sketch -->
    <title>icon-link</title>
    <desc>Created with Sketch.</desc>
    <defs></defs>
    <g id="Page-1" stroke="none" stroke-width="1" fill="none" fill-rule="evenodd">
        <g id="weiyun2018_WEB_mainicon" transform="translate(-307.000000, -1104.000000)">
            <g id="ic/visit_nor" transform="translate(309.000000, 1106.000000)">
                <g id="ic_visit_nor">
                    <rect id="Rectangle-46" x="0" y="0" width="20" height="20"></rect>
                    <path d="M7.17157288,8.58578644 L4.34314575,11.4142136 C3.17157288,12.5857864 3.17157288,14.4852814 4.34314575,15.6568542 C5.51471863,16.8284271 7.41421356,16.8284271 8.58578644,15.6568542 L11.4142136,12.8284271 L12.8284271,14.2426407 L10,17.0710678 C8.04737854,19.0236893 4.88155365,19.0236893 2.92893219,17.0710678 C0.976310729,15.1184464 0.976310729,11.9526215 2.92893219,10 L5.75735931,7.17157288 L7.17157288,8.58578644 Z M12.8284271,11.4142136 L15.6568542,8.58578644 C16.8284271,7.41421356 16.8284271,5.51471863 15.6568542,4.34314575 C14.4852814,3.17157288 12.5857864,3.17157288 11.4142136,4.34314575 L8.58578644,7.17157288 L7.17157288,5.75735931 L10,2.92893219 C11.9526215,0.976310729 15.1184464,0.976310729 17.0710678,2.92893219 C19.0236893,4.88155365 19.0236893,8.04737854 17.0710678,10 L14.2426407,12.8284271 L12.8284271,11.4142136 Z M12.1213203,6.46446609 L13.5355339,7.87867966 L7.87867966,13.5355339 L6.46446609,12.1213203 L12.1213203,6.46446609 Z" fill="#60686D"></path>
                </g>
            </g>
        </g>
    </g>
</svg>