<?xml version="1.0" encoding="UTF-8"?>
<svg width="24px" height="24px" viewBox="0 0 24 24" version="1.1" xmlns="http://www.w3.org/2000/svg" xmlns:xlink="http://www.w3.org/1999/xlink">
    <!-- Generator: Sketch 49.3 (51167) - http://www.bohemiancoding.com/sketch -->
    <title>icon-undo</title>
    <desc>Created with Sketch.</desc>
    <defs></defs>
    <g id="Page-1" stroke="none" stroke-width="1" fill="none" fill-rule="evenodd">
        <g id="weiyun2018_WEB_mainicon" transform="translate(-517.000000, -1104.000000)" fill="#687176">
            <path d="M521.061894,1115 C521.553992,1111.05369 524.920382,1108 529,1108 C533.418278,1108 537,1111.58172 537,1116 C537,1120.41828 533.418278,1124 529,1124 C526.959905,1124 525.098167,1123.23636 523.685033,1121.97934 L525.013775,1120.4845 C526.073625,1121.42727 527.469929,1122 529,1122 C532.313708,1122 535,1119.31371 535,1116 C535,1112.68629 532.313708,1110 529,1110 C526.027004,1110 523.559037,1112.16229 523.082958,1115 L524.959688,1115 C525.23583,1115 525.459688,1115.22386 525.459688,1115.5 C525.459688,1115.61354 525.421047,1115.72369 525.350122,1115.81235 L522.390434,1119.51196 C522.21793,1119.72759 521.903283,1119.76255 521.687652,1119.59004 C521.65882,1119.56698 521.632631,1119.54079 521.609566,1119.51196 L518.649878,1115.81235 C518.477373,1115.59672 518.512334,1115.28207 518.727965,1115.10957 C518.816621,1115.03864 518.926777,1115 519.040312,1115 L521.061894,1115 Z" id="Combined-Shape"></path>
        </g>
    </g>
</svg>