<?xml version="1.0" encoding="UTF-8"?>
<svg width="24px" height="24px" viewBox="0 0 24 24" version="1.1" xmlns="http://www.w3.org/2000/svg" xmlns:xlink="http://www.w3.org/1999/xlink">
    <!-- Generator: Sketch 49.3 (51167) - http://www.bohemiancoding.com/sketch -->
    <title>icon-trash</title>
    <desc>Created with Sketch.</desc>
    <defs></defs>
    <g id="Page-1" stroke="none" stroke-width="1" fill="none" fill-rule="evenodd">
        <g id="weiyun2018_WEB_mainicon" transform="translate(-237.000000, -1104.000000)">
            <g id="ic/recycle_nor" transform="translate(239.000000, 1106.000000)">
                <g id="ic_recycle_nor">
                    <rect id="Rectangle-51" x="0" y="0" width="20" height="20"></rect>
                    <path d="M13,3 L18,3 L18,5 L17,5 L17,17.0014977 C17,17.5529553 16.5500512,18 15.9931545,18 L4.00684547,18 C3.45078007,18 3,17.5525106 3,17.0014977 L3,5 L2,5 L2,3 L7,3 C7,2.44771525 7.45097518,2 7.99077797,2 L12.009222,2 C12.5564136,2 13,2.44386482 13,3 Z M5,5 L5,16 L15,16 L15,5 L5,5 Z M7,7 L9,7 L9,14 L7,14 L7,7 Z M11,7 L13,7 L13,14 L11,14 L11,7 Z" fill="#60686D"></path>
                </g>
            </g>
        </g>
    </g>
</svg>