<?xml version="1.0" encoding="UTF-8"?>
<svg width="24px" height="24px" viewBox="0 0 24 24" version="1.1" xmlns="http://www.w3.org/2000/svg" xmlns:xlink="http://www.w3.org/1999/xlink">
    <!-- Generator: Sketch 49.3 (51167) - http://www.bohemiancoding.com/sketch -->
    <title>icon-storage</title>
    <desc>Created with Sketch.</desc>
    <defs></defs>
    <g id="Page-1" stroke="none" stroke-width="1" fill="none" fill-rule="evenodd">
        <g id="weiyun2018_WEB_mainicon" transform="translate(-167.000000, -1213.000000)">
            <g id="ic/weiyun_nor" transform="translate(169.000000, 1214.000000)">
                <g id="ic_weiyun_nor">
                    <rect id="Rectangle-13" x="0" y="0" width="20" height="20"></rect>
                    <path d="M16.4177058,7.64104002 C18.509906,8.38578685 19.9603143,10.380322 19.9603143,12.6671092 C19.9603143,15.8303092 17.527421,18.0018125 13.8864242,18.0018125 L9.14675385,18.0018125 C9.13460038,18.0017502 9.12243773,18.0017729 9.11026593,18.0017729 L6.64189231,18.0017729 C2.54133151,18.0017729 -1.97802198e-05,15.7801993 -1.97802198e-05,12.4351795 C-1.97802198e-05,9.66325974 1.75122685,7.55731274 4.1015162,7.12133483 C4.88456401,4.69881306 7.14285559,3.14001465 9.93622198,3.14001465 C12.9146841,3.14001465 15.3688973,4.98291464 16.4177058,7.64104002 Z M14.6622276,15.9587549 C16.7662206,15.7156772 17.9603143,14.4618104 17.9603143,12.6671092 C17.9603143,11.7433447 17.5813894,10.8955742 16.9606497,10.2858318 C16.9638724,10.3803854 16.9654967,10.4754161 16.9654967,10.5708938 C16.9654967,12.7330874 16.1092909,14.6250287 14.6622276,15.9587549 Z M6.23504762,7.1834613 C8.80851514,7.81498075 10.1319146,10.3836511 8.87439794,12.4773938 C7.82644409,14.2221386 5.6950492,14.4449182 4.19769555,13.4014638 L5.34116599,11.7605874 C5.9590745,12.1911867 6.76379002,12.1070755 7.15988181,11.4476198 C7.7261867,10.5047323 6.98125984,9.23576316 5.37327532,9.05809737 C3.51754993,8.85305053 1.99998022,10.2736013 1.99998022,12.4351795 C1.99998022,14.6113379 3.59055716,16.0017729 6.64189231,16.0017729 L9.11026593,16.0017729 C12.5901847,16.0017729 14.9654967,13.6878793 14.9654967,10.5708938 C14.9654967,7.50727054 12.7782792,5.14001465 9.93622198,5.14001465 C8.23406631,5.14001465 6.8866768,5.91964561 6.23504762,7.1834613 Z" fill="#60686D" fill-rule="nonzero"></path>
                </g>
            </g>
        </g>
    </g>
</svg>