<?xml version="1.0" encoding="UTF-8"?>
<svg width="24px" height="24px" viewBox="0 0 24 24" version="1.1" xmlns="http://www.w3.org/2000/svg" xmlns:xlink="http://www.w3.org/1999/xlink">
    <!-- Generator: Sketch 49.3 (51167) - http://www.bohemiancoding.com/sketch -->
    <title>icon-cancel</title>
    <desc>Created with Sketch.</desc>
    <defs></defs>
    <g id="Page-1" stroke="none" stroke-width="1" fill="none" fill-rule="evenodd">
        <g id="weiyun2018_WEB_mainicon" transform="translate(-447.000000, -1104.000000)">
            <g id="ic/shareoff_nor" transform="translate(449.000000, 1106.000000)">
                <g id="ic_shareoff_nor">
                    <rect id="Rectangle-5" x="0" y="0" width="20" height="20"></rect>
                    <path d="M10,19 C5.02943725,19 1,14.9705627 1,10 C1,5.02943725 5.02943725,1 10,1 C14.9705627,1 19,5.02943725 19,10 C19,14.9705627 14.9705627,19 10,19 Z M10,17 C13.8659932,17 17,13.8659932 17,10 C17,6.13400675 13.8659932,3 10,3 C6.13400675,3 3,6.13400675 3,10 C3,13.8659932 6.13400675,17 10,17 Z M6,9 L14,9 L14,11 L6,11 L6,9 Z" fill="#60686D"></path>
                </g>
            </g>
        </g>
    </g>
</svg>