<?xml version="1.0" encoding="UTF-8"?>
<svg width="24px" height="24px" viewBox="0 0 24 24" version="1.1" xmlns="http://www.w3.org/2000/svg" xmlns:xlink="http://www.w3.org/1999/xlink">
    <!-- Generator: Sketch 49.3 (51167) - http://www.bohemiancoding.com/sketch -->
    <title>icon-invite</title>
    <desc>Created with Sketch.</desc>
    <defs></defs>
    <g id="Page-1" stroke="none" stroke-width="1" fill="none" fill-rule="evenodd">
        <g id="weiyun2018_WEB_mainicon" transform="translate(-97.000000, -1212.000000)">
            <g id="ic/group_nor" transform="translate(99.000000, 1214.000000)">
                <g id="ic_group_nor">
                    <rect id="Rectangle-13" x="0" y="0" width="20" height="20"></rect>
                    <path d="M15,14 L15,12 L17,12 L17,14 L19,14 L19,16 L17,16 L17,18 L15,18 L15,16 L13,16 L13,14 L15,14 Z M12,16.0017208 L12,18 L2.79843803,18 C2.33028672,18 1.97285275,17.6123029 2.00162183,17.1167667 C2.12062118,15.0425002 3.13364135,13.9947271 5.05114381,13.3258623 C5.05114381,13.3258623 6.22948793,12.8310314 6.79998779,12.3962366 L6.79998779,11.8805751 C5.72134676,10.873574 5,9.28991574 5,7.50884125 C5,4.46639224 6.4819558,2 9.5,2 C12.5180442,2 14,4.46639224 14,7.50884125 C14,9.28992912 13.2786424,10.8735978 12.1999879,11.8805978 L12.1999879,12.3915548 C12.3327522,12.4922738 12.4983923,12.5967028 12.6744227,12.6976631 L11.5013186,14.3184992 C11.0215592,14.0083841 10.5714062,13.6636709 10.1999878,13.3739061 L10.1999878,10.9847412 C11.1350034,10.2595242 12,9.24494682 12,7.5 C12,5.56700338 11.3048405,4 9.5,4 C7.69515952,4 7,5.32006836 7,7.5 C7,9.24493162 7.86498148,10.2595066 8.79998779,10.9847222 L8.79998779,13.3739251 C8.38692001,13.6961828 7.87647273,14.0863993 7.3362211,14.4214023 C6.12756809,15.1708724 4.84896239,15.3636268 4.36543836,16.0027168 C6.1134284,16.0027168 8.77328054,16.0008839 9.92979075,16.00002 C10.3777874,16.0004592 11.1345334,16.0011489 12,16.0017208 Z" id="Combined-Shape" fill="#60686D"></path>
                </g>
            </g>
        </g>
    </g>
</svg>