<?xml version="1.0" encoding="UTF-8"?>
<svg width="24px" height="24px" viewBox="0 0 24 24" version="1.1" xmlns="http://www.w3.org/2000/svg" xmlns:xlink="http://www.w3.org/1999/xlink">
    <!-- Generator: Sketch 49.3 (51167) - http://www.bohemiancoding.com/sketch -->
    <title>icon-share</title>
    <desc>Created with Sketch.</desc>
    <defs></defs>
    <g id="Page-1" stroke="none" stroke-width="1" fill="none" fill-rule="evenodd">
        <g id="weiyun2018_WEB_mainicon" transform="translate(-166.000000, -1104.000000)">
            <g id="ic/share_nor" transform="translate(169.000000, 1106.000000)">
                <g id="ic_share_nor">
                    <rect id="Rectangle-48" x="0" y="0" width="20" height="20"></rect>
                    <path d="M12,9.85714286 L11.3529412,9.85714286 C10.1434306,9.85714286 8.81232045,10.2182613 7.95192813,10.7427368 C7.09153581,11.2672123 6.80258527,11.6393511 6.80258527,11.6393511 C6.12592664,12.2600715 5.82193254,12.0626253 6.10641286,11.1773244 C6.10641286,11.1773244 6.47844152,9.03363643 8.55172676,7.49334505 C9.18902358,7.01988256 9.70765111,6.67042263 10.5294118,6.42286583 C11.0059517,6.28714486 11.5003701,6.16191828 12,6.08353594 L12,3.97159466 C12,3.69545229 12.2238576,3.47159466 12.5,3.47159466 C12.6042115,3.47159466 12.7058187,3.50415623 12.7906191,3.56472793 L18.4303866,7.59313326 C18.6550929,7.75363776 18.7071387,8.0659128 18.5466342,8.2906191 C18.5145644,8.33551686 18.4752843,8.37479691 18.4303866,8.40686674 L12.7906191,12.4352721 C12.5659128,12.5957766 12.2536378,12.5437307 12.0931333,12.3190244 C12.0325616,12.2342241 12,12.1326168 12,12.0284053 L12,9.85714286 Z M7,4 L7,6 L3,6 L3,16 L15,16 L15,14 L17,14 L17,17 C17,17.5522847 16.5522847,18 16,18 L2,18 C1.44771525,18 1,17.5522847 1,17 L1,5 C1,4.44771525 1.44771525,4 2,4 L7,4 Z" id="发送给朋友" fill="#60686D"></path>
                </g>
            </g>
        </g>
    </g>
</svg>