<?xml version="1.0" encoding="UTF-8"?>
<svg width="24px" height="24px" viewBox="0 0 24 24" version="1.1" xmlns="http://www.w3.org/2000/svg" xmlns:xlink="http://www.w3.org/1999/xlink">
    <!-- Generator: Sketch 49.3 (51167) - http://www.bohemiancoding.com/sketch -->
    <title>icon-trash-xs</title>
    <desc>Created with Sketch.</desc>
    <defs></defs>
    <g id="Page-1" stroke="none" stroke-width="1" fill="none" fill-rule="evenodd">
        <g id="weiyun2018_WEB_mainicon" transform="translate(-237.000000, -1212.000000)">
            <g id="ic/delete_nor" transform="translate(239.000000, 1214.000000)">
                <g id="ic_delete_nor">
                    <rect id="Rectangle-51" x="0" y="0" width="20" height="20"></rect>
                    <path d="M13,3 L18,3 L18,5 L17,5 L17,17.0014977 C17,17.5529553 16.5500512,18 15.9931545,18 L4.00684547,18 C3.45078007,18 3,17.5525106 3,17.0014977 L3,5 L2,5 L2,3 L7,3 C7,2.44771525 7.45097518,2 7.99077797,2 L12.009222,2 C12.5564136,2 13,2.44386482 13,3 Z M5,5 L5,16 L15,16 L15,5 L5,5 Z" id="ic_recycle_nor" fill="#60686D"></path>
                    <path d="M11,10 L14,10 L14,12 L11,12 L11,15 L9,15 L9,12 L6,12 L6,10 L9,10 L9,7 L11,7 L11,10 Z" id="Combined-Shape" fill="#60686D" transform="translate(10.000000, 11.000000) rotate(-315.000000) translate(-10.000000, -11.000000) "></path>
                </g>
            </g>
        </g>
    </g>
</svg>