<?xml version="1.0" encoding="UTF-8"?>
<svg width="24px" height="24px" viewBox="0 0 24 24" version="1.1" xmlns="http://www.w3.org/2000/svg" xmlns:xlink="http://www.w3.org/1999/xlink">
    <!-- Generator: Sketch 49 (51002) - http://www.bohemiancoding.com/sketch -->
    <title>ic_share_white</title>
    <desc>Created with Sketch.</desc>
    <defs></defs>
    <g id="Page-1" stroke="none" stroke-width="1" fill="none" fill-rule="evenodd">
        <g id="weiyun2018_WEB_mainicon" transform="translate(-97.000000, -1363.000000)">
            <g id="ic/share_white" transform="translate(99.000000, 1365.000000)">
                <g id="ic_share_white">
                    <rect id="Rectangle-48" x="0" y="0" width="20" height="20"></rect>
                    <path d="M13,8.91557749 L12.3529412,8.91557749 C11.1434306,8.91557749 9.81232045,9.27669591 8.95192813,9.80117141 C8.09153581,10.3256469 7.80258527,10.6977858 7.80258527,10.6977858 C7.12592664,11.3185061 6.82193254,11.1210599 7.10641286,10.235759 C7.10641286,10.235759 7.47844152,8.09207107 9.55172676,6.55177968 C10.1890236,6.07831719 10.7076511,5.72885727 11.5294118,5.48130047 C12.0059517,5.34557949 12.5003701,5.22035291 13,5.14197057 L13,3.0300293 C13,2.75388692 13.2238576,2.5300293 13.5,2.5300293 C13.6042115,2.5300293 13.7058187,2.56259086 13.7906191,2.62316256 L19.4303866,6.6515679 C19.6550929,6.81207239 19.7071387,7.12434744 19.5466342,7.34905373 C19.5145644,7.39395149 19.4752843,7.43323154 19.4303866,7.46530137 L13.7906191,11.4937067 C13.5659128,11.6542112 13.2536378,11.6021654 13.0931333,11.3774591 C13.0325616,11.2926587 13,11.1910515 13,11.08684 L13,8.91557749 Z M8,3.05843463 L8,5.05843463 L4,5.05843463 L4,15.0584346 L16,15.0584346 L16,13.0584346 L18,13.0584346 L18,16.0584346 C18,16.6107194 17.5522847,17.0584346 17,17.0584346 L3,17.0584346 C2.44771525,17.0584346 2,16.6107194 2,16.0584346 L2,4.05843463 C2,3.50614989 2.44771525,3.05843463 3,3.05843463 L8,3.05843463 Z" id="发送给朋友" fill="#FFFFFF"></path>
                </g>
            </g>
        </g>
    </g>
</svg>