<?xml version="1.0" encoding="UTF-8"?>
<svg width="24px" height="24px" viewBox="0 0 24 24" version="1.1" xmlns="http://www.w3.org/2000/svg" xmlns:xlink="http://www.w3.org/1999/xlink">
    <!-- Generator: Sketch 49.2 (51160) - http://www.bohemiancoding.com/sketch -->
    <title>icon-save-light</title>
    <desc>Created with Sketch.</desc>
    <defs></defs>
    <g id="Page-1" stroke="none" stroke-width="1" fill="none" fill-rule="evenodd">
        <g id="icon-save-light" transform="translate(0.000000, -1.000000)">
            <rect id="Rectangle-5" x="0" y="0" width="24" height="24"></rect>
            <path d="M11,14.9996309 L8.93425855,14.9996309 C8.83554605,14.9996309 8.73904221,14.9704119 8.65690845,14.9156561 C8.4271441,14.7624799 8.36505717,14.4520452 8.5182334,14.2222808 L11.5839749,9.62366865 C11.6205923,9.56874251 11.6677238,9.52161103 11.7226499,9.48499361 C11.9524142,9.33181738 12.2628489,9.39390431 12.4160251,9.62366865 L15.4817666,14.2222808 C15.5365224,14.3044146 15.5657415,14.4009184 15.5657415,14.4996309 C15.5657415,14.7757733 15.3418838,14.9996309 15.0657415,14.9996309 L13,14.9996309 L13,20 L11,20 L11,14.9996309 Z M15,18 L18,18 L18,17.9645556 C19.6961471,17.7219407 21,16.263236 21,14.5 C21,12.7095527 19.6555928,11.2331085 17.9211951,11.0250841 C17.4554927,8.17503894 14.9817502,6 12,6 C9.01824984,6 6.54450725,8.17503894 6.07880491,11.0250841 C4.34440719,11.2331085 3,12.7095527 3,14.5 C3,16.263236 4.30385293,17.7219407 6,17.9645556 L6,18 L9,18 L9,20 L6,20 L6,19.9775785 C3.19674999,19.7249641 1,17.3690213 1,14.5 C1,12.1942178 2.418893,10.2198359 4.4311755,9.40235766 C5.50967997,6.25917509 8.49101068,4 12,4 C15.5089893,4 18.49032,6.25917509 19.5688245,9.40235766 C21.581107,10.2198359 23,12.1942178 23,14.5 C23,17.3690213 20.80325,19.7249641 18,19.9775785 L18,20 L15,20 L15,18 Z" id="Combined-Shape" fill="#FFFFFF"></path>
        </g>
    </g>
</svg>