<?xml version="1.0" encoding="UTF-8"?>
<svg width="40px" height="40px" viewBox="0 0 40 40" version="1.1" xmlns="http://www.w3.org/2000/svg" xmlns:xlink="http://www.w3.org/1999/xlink">
    <!-- Generator: Sketch 49.2 (51160) - http://www.bohemiancoding.com/sketch -->
    <title>icon-member-m</title>
    <desc>Created with Sketch.</desc>
    <defs>
        <rect id="path-1" x="0" y="0" width="40" height="40"></rect>
    </defs>
    <g id="Page-1" stroke="none" stroke-width="1" fill="none" fill-rule="evenodd">
        <g id="icon-member-m">
            <mask id="mask-2" fill="white">
                <use xlink:href="#path-1"></use>
            </mask>
            <use id="Mask" fill="#B3D4FF" xlink:href="#path-1"></use>
            <g id="ic_group_nor" mask="url(#mask-2)">
                <g transform="translate(8.000000, 8.000000)">
                    <rect id="Rectangle-13" fill="none" x="0" y="0" width="24" height="24"></rect>
                    <path d="M12.7397814,11.6429926 C12.7302577,11.6559396 12.7203407,11.66904 12.7100306,11.6822937 C12.1843952,12.3580025 12.2308187,13.3762653 13.1489093,14.0983607 C14.0604992,14.8153431 15.2051724,15.5989842 16.0697744,16.1504429 C17.1507346,16.8398987 17.5603821,17.6829425 17.5371789,18.4041557 C17.5085175,19.2950226 16.8194112,20 15.9192944,20 C14.8334156,20 12.8603175,20 10,20 C7.13968253,20 5.16658439,20 4.08070556,20 C3.18058881,20 2.4914825,19.2950226 2.46282109,18.4041557 C2.43961787,17.6829425 2.84926544,16.8398987 3.9302256,16.1504429 C4.79482756,15.5989842 5.93950085,14.8153431 6.85109073,14.0983607 C7.76918127,13.3762653 7.81560485,12.3580025 7.28996941,11.6822937 C7.27965927,11.66904 7.26974233,11.6559396 7.26021859,11.6429926 C6.48444377,10.7310239 6,9.43622937 6,8 C6,5.23857625 7.790861,3 10,3 C12.209139,3 14,5.23857625 14,8 C14,9.43622937 13.5155562,10.7310239 12.7397814,11.6429926 Z M19.5230279,18 C19.4010774,16.6233983 18.5474431,15.3585626 17.1452703,14.4642316 C16.259545,13.8993001 15.2710877,13.2127154 14.5133412,12.6262004 C15.4688871,11.3561186 16,9.71948725 16,8 C16,6.17439714 15.3992252,4.47948533 14.3922668,3.21482235 C14.7358366,3.07536872 15.1025162,3 15.4832784,3 C17.4325187,3 19.0126902,4.97521434 19.0126902,7.41176471 C19.0126902,8.67902591 18.4039149,10.2449369 17.9360602,10.888643 C17.4902349,11.5020395 17.3550007,11.8559399 18.1650806,12.4930828 C18.9694246,13.1257144 20.1298898,14.0060968 20.8708932,14.5463781 C21.7910805,15.2173062 22.0204734,15.9555375 22,16.5919021 C21.9747105,17.3779611 21.5004059,18 20.7061853,18 L19.5230279,18 Z" id="Combined-Shape" fill="#2980FF" fill-rule="evenodd"></path>
                </g>
            </g>
        </g>
    </g>
</svg>