<?xml version="1.0" encoding="UTF-8"?>
<svg width="16px" height="16px" viewBox="0 0 16 16" version="1.1" xmlns="http://www.w3.org/2000/svg" xmlns:xlink="http://www.w3.org/1999/xlink">
    <!-- Generator: Sketch 49.2 (51160) - http://www.bohemiancoding.com/sketch -->
    <title>icon-hot-s</title>
    <desc>Created with Sketch.</desc>
    <defs></defs>
    <g id="Page-1" stroke="none" stroke-width="1" fill="none" fill-rule="evenodd">
        <g id="ico_share_list_hot_04" transform="translate(2.000000, 2.000000)" fill="#FE8127">
            <g id="Group-2-Copy">
                <path d="M9.33215332,2.64628092 C7.86070708,3.66982843 7.66536458,4.20852871 7.66536458,5.34574382 C6.40432818,4.44466977 5.77339681,2.21944173 6.0112534,0 C4.00980514,2.63223604 3.66752116,3.0883124 3.66752116,6 C2.88063757,5.34549668 2.58378092,4.70463053 2.33719889,3.65922038 C1.6756314,4.81031169 1.33097087,5.78976155 1.3425293,6.67097982 C1.35387916,7.53629771 1.65168254,8.64466858 2.00121053,9.33481344 C2.68552528,10.6859965 4.02510561,11.6682536 6.0112534,11.6682536 C7.99740119,11.6682536 10.3310547,9.53490719 10.3310547,7.0148112 C10.3310547,5.03853152 9.56213379,4.72058105 9.33215332,2.64628092 Z" id="Fill-1"></path>
            </g>
        </g>
    </g>
</svg>