<?xml version="1.0" encoding="UTF-8" standalone="no"?>
<svg width="120px" height="120px" viewBox="0 0 120 120" version="1.1" xmlns="http://www.w3.org/2000/svg" xmlns:xlink="http://www.w3.org/1999/xlink">
    <!-- Generator: Sketch 47.1 (45422) - http://www.bohemiancoding.com/sketch -->
    <title>ico_pdf_large</title>
    <desc>Created with Sketch.</desc>
    <defs></defs>
    <g id="Page-1" stroke="none" stroke-width="1" fill="none" fill-rule="evenodd">
        <g id="ico_pdf_large">
            <rect id="bg" fill="#3F4042" opacity="0.9" x="0" y="0" width="120" height="120" rx="2"></rect>
            <path d="M54.9953636,69.9679319 L47.5078168,60.8164858 C47.161199,60.3928418 46.5957868,60.3912408 46.2478591,60.8164858 L31.1822354,79.2300259 C30.8356176,79.6536698 30.9977389,80 31.5472691,80 L55.4916904,80 L88.5155856,80 C89.0654284,80 89.2462042,79.6388999 88.9260445,79.1934603 L69.2249802,51.7832839 C68.9090332,51.3437054 68.3857391,51.3378443 68.0655794,51.7832839 L54.9953636,69.9679319 Z M43.249931,50.0697674 C45.7544781,50.0697674 47.7848147,48.0394308 47.7848147,45.5348837 C47.7848147,43.0303366 45.7544781,41 43.249931,41 C40.7453839,41 38.7150473,43.0303366 38.7150473,45.5348837 C38.7150473,48.0394308 40.7453839,50.0697674 43.249931,50.0697674 Z" id="ico_jpg_large" fill="#5B5D5E"></path>
        </g>
    </g>
</svg>