<?xml version="1.0" encoding="UTF-8"?>
<svg width="24px" height="24px" viewBox="0 0 24 24" version="1.1" xmlns="http://www.w3.org/2000/svg" xmlns:xlink="http://www.w3.org/1999/xlink">
    <!-- Generator: Sketch 52.2 (67145) - http://www.bohemiancoding.com/sketch -->
    <title>icon-qq-pay</title>
    <desc>Created with Sketch.</desc>
    <defs>
        <path d="M0.575540741,12.5417687 C0.752281481,11.9687836 0.993466667,11.3007239 1.23776296,10.6590075 L2.12939259,8.41684328 C2.12872593,8.39079851 2.11761481,7.9493806 2.11761481,7.72169403 C2.11761481,3.88736567 3.91435556,0.0346044776 8.33257778,0.0343059701 C12.4251704,0.0345298507 14.2684296,3.34020149 14.5179852,6.87482836 C14.5223556,6.9366194 14.4876889,7.02579851 14.4910963,7.08773881 C14.5030963,7.30766418 14.5099111,8.10535075 14.5065037,8.26094776 C14.5044296,8.35587313 14.5360593,8.40699254 14.535837,8.41691791 L15.4274667,10.6590075 C15.671763,11.3007239 15.9129481,11.9687836 16.0896889,12.5417687 C16.9322815,15.2737836 16.6593185,16.4044552 16.4514667,16.4297537 C16.0053926,16.4840821 14.7150963,14.3731119 14.7150963,14.3731119 C14.7150963,15.5955 14.0904296,17.1906493 12.7388,18.3425149 C13.2444296,18.4996045 13.8639852,18.741097 14.2622074,19.037291 C14.6200593,19.3035597 14.5753926,19.574903 14.5108741,19.6845299 C14.227763,20.1658731 9.65287407,19.9918433 8.33205926,19.8419925 C7.01131852,19.9918433 2.43642963,20.1658731 2.15331852,19.6845299 C2.0888,19.574903 2.04413333,19.3035597 2.40198519,19.037291 C2.80042963,18.7409478 3.42035556,18.4993806 3.92613333,18.342291 C2.57465185,17.1904254 1.95013333,15.5954254 1.95013333,14.3731119 C1.95013333,14.3731119 0.659837037,16.4840821 0.213762963,16.4297537 C0.00591111111,16.4044552 -0.267125926,15.2737836 0.575540741,12.5417687" id="path-1"></path>
    </defs>
    <g id="Page-1" stroke="none" stroke-width="1" fill="none" fill-rule="evenodd">
        <g id="Group-3" transform="translate(4.000000, 2.000000)">
            <mask id="mask-2" fill="white">
                <use xlink:href="#path-1"></use>
            </mask>
            <use id="Fill-1" fill="#0BB2FF" xlink:href="#path-1"></use>
            <path d="M9.10646277,11.2498227 C8.71309959,11.5374009 8.55529869,11.5746434 8.23962094,11.4653937 C7.80289669,11.3141711 4.53988079,9.26403118 4.47290273,9.22333474 C4.38314303,9.16859726 4.27325953,9.16694538 4.21129344,9.23932799 C4.10551064,9.36306922 4.21129344,9.47224383 4.28632101,9.55303604 C4.84363614,10.1532711 7.59148297,13.3848845 8.17097223,13.9640956 C8.45073091,14.2437148 8.62850373,14.231626 8.96422933,13.941645 C9.61062071,13.3832327 12.6815114,10.3468421 14.9879257,8.21681093 C14.9886092,8.19045585 15,7.74639903 15,7.51731256 C15,7.23326336 14.9886851,6.94936433 14.9684094,6.66666667 C13.3793133,7.89927351 9.48380285,10.9739578 9.10646277,11.2498227 Z" id="Fill-4" fill="#FDED00" mask="url(#mask-2)"></path>
        </g>
    </g>
</svg>