<?xml version="1.0" encoding="UTF-8"?>
<svg width="24px" height="24px" viewBox="0 0 24 24" version="1.1" xmlns="http://www.w3.org/2000/svg" xmlns:xlink="http://www.w3.org/1999/xlink">
    <!-- Generator: Sketch 53.2 (72643) - https://sketchapp.com -->
    <title>icon-personal-file-blue</title>
    <desc>Created with Sketch.</desc>
    <g id="Symbol" stroke="none" stroke-width="1" fill="none" fill-rule="evenodd">
        <g id="Bar/Navigation-Bar/↳Elements/List/icons/my-file-selected">
            <g id="icon-team-file">
                <rect id="Rectangle-7" x="0" y="0" width="24" height="24"></rect>
                <path d="M11.0000336,20 L3.99339768,20 C3.44475929,20 3,19.5500512 3,18.9931545 L3,7.00684547 C3,7.00456187 3.0000075,7.00228003 3.00002249,7 L3,4.99895656 C3,4.44724809 3.45414364,4 3.99683559,4 L10.1247025,4 C10.4010092,4 10.7664546,4.17867947 10.9354898,4.39219761 L12.2083333,6 L20.0066023,6 C20.5552407,6 21,6.44994876 21,7.00684547 L21,10.9491329 C20.2159276,9.77722078 18.9704826,9 17.5,9 C14.9740549,9 13.1121327,11.2933611 13.1121327,13.9411765 C13.1121327,14.8321862 13.3217978,15.6944706 13.7122244,16.4461774 C13.4174163,16.6513789 13.104782,16.8583988 12.8123031,17.0422186 C11.6896851,17.7477716 11.0090787,18.8158353 11.0000336,20 Z M19.1355586,16.0841133 C19.1298733,16.0917292 19.1239532,16.0994353 19.1177984,16.1072316 C18.8040115,16.5047074 18.8317248,17.1036855 19.3797944,17.5284474 C19.9239833,17.9502018 20.6073153,18.4111672 21.123454,18.7355546 C21.7687514,19.1411169 22.0132974,19.637025 21.9994458,20.0612681 C21.9823359,20.5853074 21.5709623,21 21.0336225,21 L17.5,21 L13.9663775,21 C13.4290377,21 13.0176641,20.5853074 13.0005542,20.0612681 C12.9867026,19.637025 13.2312486,19.1411169 13.876546,18.7355546 C14.3926847,18.4111672 15.0760167,17.9502018 15.6202056,17.5284474 C16.1682752,17.1036855 16.1959885,16.5047074 15.8822016,16.1072316 C15.8760468,16.0994353 15.8701267,16.0917292 15.8644414,16.0841133 C15.4013295,15.5476611 15.1121327,14.7860173 15.1121327,13.9411765 C15.1121327,12.3168096 16.1812173,11 17.5,11 C18.8187827,11 19.8878673,12.3168096 19.8878673,13.9411765 C19.8878673,14.7860173 19.5986705,15.5476611 19.1355586,16.0841133 Z" id="Combined-Shape" fill="#2980FF"></path>
            </g>
        </g>
    </g>
</svg>