<?xml version="1.0" encoding="UTF-8"?>
<svg width="16px" height="16px" viewBox="0 0 16 16" version="1.1" xmlns="http://www.w3.org/2000/svg" xmlns:xlink="http://www.w3.org/1999/xlink">
<!-- Generator: Sketch 49.2 (51160) - http://www.bohemiancoding.com/sketch -->
<title>icon-que</title>
<desc>Created with Sketch.</desc>
<defs></defs>
<g id="Page-1" stroke="none" stroke-width="1" fill="none" fill-rule="evenodd">
  <path d="M8,15 C4.13400675,15 1,11.8659932 1,8 C1,4.13400675 4.13400675,1 8,1 C11.8659932,1 15,4.13400675 15,8 C15,11.8659932 11.8659932,15 8,15 Z M8,14 C11.3137085,14 14,11.3137085 14,8 C14,4.6862915 11.3137085,2 8,2 C4.6862915,2 2,4.6862915 2,8 C2,11.3137085 4.6862915,14 8,14 Z M7.06097561,11.5926707 C7.06097561,11.4381984 7.09756061,11.2999884 7.17073171,11.1780366 C7.2439028,11.0560847 7.3414628,10.9625897 7.46341463,10.8975488 C7.58536646,10.8325078 7.72357646,10.7999878 7.87804878,10.7999878 C8.00813073,10.7999878 8.12601573,10.8203128 8.23170732,10.8609634 C8.3373989,10.901614 8.4268289,10.954459 8.5,11.0195 C8.5731711,11.084541 8.6300811,11.165841 8.67073171,11.2634024 C8.71138232,11.3609639 8.73170732,11.4707189 8.73170732,11.5926707 C8.73170732,11.812184 8.65243982,11.9930765 8.49390244,12.1353536 C8.33536506,12.2776308 8.13008256,12.3487683 7.87804878,12.3487683 C7.65040537,12.3487683 7.45731787,12.2776308 7.29878049,12.1353536 C7.14024311,11.9930765 7.06097561,11.812184 7.06097561,11.5926707 Z M5.37804878,6.62195122 C5.36991866,6.16666439 5.44512116,5.76829439 5.60365854,5.42682927 C5.76219591,5.08536415 5.97764091,4.82317165 6.25,4.6402439 C6.52235909,4.45731616 6.81097409,4.32113866 7.11585366,4.23170732 C7.42073323,4.14227598 7.74390073,4.09756098 8.08536585,4.09756098 C8.82520695,4.09756098 9.44918445,4.29064848 9.95731707,4.67682927 C10.4654497,5.06301006 10.7195122,5.60975256 10.7195122,6.31707317 C10.7195122,6.57723707 10.6869922,6.81097457 10.6219512,7.01829268 C10.5569102,7.22561079 10.4552852,7.41666579 10.3170732,7.59146341 C10.1788611,7.76626104 10.0528461,7.90447104 9.93902439,8.00609756 C9.82520268,8.10772409 9.67073268,8.23577159 9.47560976,8.3902439 C9.06910366,8.70731866 8.80081366,8.95325116 8.67073171,9.12804878 C8.54064976,9.3028464 8.47560976,9.5609739 8.47560976,9.90243902 L8.47560976,10 L7.25609756,10 L7.24390244,9.76829268 C7.23577232,9.35365646 7.33536482,8.99593646 7.54268293,8.69512195 C7.75000104,8.39430744 8.04877854,8.09349744 8.43902439,7.79268293 C8.6260172,7.64634073 8.7621947,7.53658573 8.84756098,7.46341463 C8.93292726,7.39024354 9.02845476,7.29471604 9.13414634,7.17682927 C9.23983793,7.0589425 9.31097543,6.9369925 9.34756098,6.81097561 C9.38414652,6.68495872 9.40243902,6.54471622 9.40243902,6.3902439 C9.40243902,6.11381976 9.33739902,5.88008226 9.20731707,5.68902439 C9.07723512,5.49796652 8.91057012,5.36382152 8.70731707,5.28658537 C8.50406402,5.20934921 8.27642402,5.17073171 8.02439024,5.17073171 C7.83739744,5.17073171 7.66463494,5.19512171 7.50609756,5.24390244 C7.34756018,5.29268317 7.21341518,5.35975567 7.10365854,5.44512195 C6.99390189,5.53048823 6.90040689,5.63414573 6.82317073,5.75609756 C6.74593457,5.87804939 6.68699207,6.01219439 6.64634146,6.15853659 C6.60569085,6.30487878 6.58536585,6.45934878 6.58536585,6.62195122 L5.37804878,6.62195122 Z" id="Combined-Shape" fill="#BBBBBB" fill-rule="nonzero"></path>
</g>
</svg>
