<?xml version="1.0" encoding="UTF-8"?>
<svg width="24px" height="24px" viewBox="0 0 24 24" version="1.1" xmlns="http://www.w3.org/2000/svg" xmlns:xlink="http://www.w3.org/1999/xlink">
    <!-- Generator: Sketch 49.2 (51160) - http://www.bohemiancoding.com/sketch -->
    <title>icon-hot</title>
    <desc>Created with Sketch.</desc>
    <defs></defs>
    <g id="Page-1" stroke="none" stroke-width="1" fill="none" fill-rule="evenodd">
        <g id="Group-2-Copy-2" transform="translate(3.000000, 3.000000)" fill="#FE8127">
            <path d="M13.99823,3.96942139 C11.7910606,5.50474265 11.4980469,6.31279307 11.4980469,8.01861572 C9.60649226,6.66700466 8.66009521,3.3291626 9.0168801,0 C6.01470771,3.94835405 5.50128174,4.6324686 5.50128174,9 C4.32095636,8.01824501 3.87567139,7.0569458 3.50579834,5.48883057 C2.5134471,7.21546753 1.99645631,8.68464233 2.01379395,10.0064697 C2.03081874,11.3044466 2.4775238,12.9670029 3.0018158,14.0022202 C4.02828791,16.0289947 6.03765841,17.5023804 9.0168801,17.5023804 C11.9961018,17.5023804 15.496582,14.3023608 15.496582,10.5222168 C15.496582,7.55779728 14.3432007,7.08087158 13.99823,3.96942139 Z" id="Fill-1"></path>
        </g>
    </g>
</svg>