<?xml version="1.0" encoding="UTF-8"?>
<svg width="24px" height="24px" viewBox="0 0 24 24" version="1.1" xmlns="http://www.w3.org/2000/svg" xmlns:xlink="http://www.w3.org/1999/xlink">
    <!-- Generator: Sketch 50.2 (55047) - http://www.bohemiancoding.com/sketch -->
    <title>icon-weiyun-s</title>
    <desc>Created with Sketch.</desc>
    <defs></defs>
    <g id="icon-weiyun-s" stroke="none" stroke-width="1" fill="none" fill-rule="evenodd">
        <g id="ico_upload_weiyun">
            <rect id="Rectangle-5" x="0" y="0" width="24" height="24"></rect>
            <g id="Page-1" transform="translate(1.000000, 3.000000)" fill="#2980FF" fill-rule="nonzero">
                <path d="M18.0459155,5.68801679 C20.3524946,6.48652415 21.9559048,8.67403125 21.9559048,11.1845714 C21.9559048,14.6348816 19.3050726,17.0009084 15.3182491,17.0009084 L10.0519487,17.0009084 C10.038445,17.000839 10.024931,17.0008645 10.0114066,17.0008645 L7.26876923,17.0008645 C2.77088088,17.0008645 -2.1978022e-05,14.5786237 -2.1978022e-05,10.9268718 C-2.1978022e-05,7.87548837 1.93922726,5.56797775 4.53172864,5.12022874 C5.36773989,2.4388227 7.84852508,0.710021973 10.9291355,0.710021973 C14.2079417,0.710021973 16.9071045,2.74969967 18.0459155,5.68801679 Z M15.8523682,14.9832803 C18.4544856,14.807644 19.9559048,13.3334311 19.9559048,11.1845714 C19.9559048,10.0306074 19.4392513,8.98029698 18.6099358,8.27475081 C18.6221368,8.46645814 18.6283297,8.66009392 18.6283297,8.85544322 C18.6283297,11.3485689 17.5907838,13.5133492 15.8523682,14.9832803 Z M9.65408072,10.9165659 C8.52590154,12.7948784 6.23138941,13.0347075 4.61652119,11.9093613 L5.75999163,10.2684849 C6.49541471,10.780976 7.46324747,10.6798153 7.9395646,9.88679196 C8.61279117,8.76588179 7.7346532,7.26998996 5.87139767,7.06411935 C3.74252531,6.82889136 1.99997802,8.4600368 1.99997802,10.9268718 C1.99997802,13.4097624 3.82010653,15.0008645 7.26876923,15.0008645 L10.0114066,15.0008645 C13.9387059,15.0008645 16.6283297,12.3807864 16.6283297,8.85544322 C16.6283297,5.39192947 14.150391,2.71002197 10.9291355,2.71002197 C8.93997582,2.71002197 7.37165715,3.65218803 6.65492334,5.16819407 C9.53459226,5.79502433 11.0319592,8.62242294 9.65408072,10.9165659 Z" id="Combined-Shape"></path>
            </g>
        </g>
    </g>
</svg>