<?xml version="1.0" encoding="UTF-8" standalone="no"?>
<svg width="24px" height="24px" viewBox="0 0 24 24" version="1.1" xmlns="http://www.w3.org/2000/svg" xmlns:xlink="http://www.w3.org/1999/xlink">
    <!-- Generator: Sketch 47.1 (45422) - http://www.bohemiancoding.com/sketch -->
    <title>icon-create</title>
    <desc>Created with Sketch.</desc>
    <defs></defs>
    <g id="Page-1" stroke="none" stroke-width="1" fill="none" fill-rule="evenodd">
        <g id="notes_2" transform="translate(2.000000, 3.000000)" fill-rule="nonzero" fill="#484848">
            <rect id="Rectangle-28" x="6" y="4" width="6" height="2"></rect>
            <polygon id="ic_add" points="16 13 19 13 19 15 16 15 16 18 14 18 14 15 11 15 11 13 14 13 14 10 16 10"></polygon>
            <path d="M16,8 L14,8 L14,3 C14,2.44771525 13.5522847,2 13,2 L2,2 L2,16 L11,16 L11,18 L1,18 C0.44771525,18 6.76353751e-17,17.5522847 0,17 L0,1 C-6.76353751e-17,0.44771525 0.44771525,1.01453063e-16 1,0 L13,0 C14.6568542,-3.04359188e-16 16,1.34314575 16,3 L16,8 Z" id="Combined-Shape"></path>
            <rect id="Rectangle-32" x="3" y="0" width="2" height="17"></rect>
        </g>
    </g>
</svg>