<svg width="24" height="24" viewBox="0 0 24 24" xmlns="http://www.w3.org/2000/svg"><title>icon-light-s-round</title><g fill="none" fill-rule="evenodd"><path d="M2 2h20v20H2z"/><path d="M5.24 17.941A8.978 8.978 0 0 0 12 21a8.978 8.978 0 0 0 6.76-3.059l-1.501-1.32A6.984 6.984 0 0 1 12 19.002a6.984 6.984 0 0 1-5.259-2.38l-1.501 1.32zm-1.768-3.056A8.99 8.99 0 0 1 3 12c0-4.366 3.11-8.006 7.235-8.827l.392 1.96a7.004 7.004 0 0 0-5.26 9.111l-1.895.64zm17.056 0A8.99 8.99 0 0 0 21 12c0-4.366-3.11-8.006-7.235-8.827l-.392 1.96a7.004 7.004 0 0 1 5.26 9.111l1.895.64z" fill="#00A4FF"/></g></svg>