<?xml version="1.0" encoding="UTF-8"?>
<svg width="24px" height="24px" viewBox="0 0 24 24" version="1.1" xmlns="http://www.w3.org/2000/svg" xmlns:xlink="http://www.w3.org/1999/xlink">
    <!-- Generator: Sketch 49 (51002) - http://www.bohemiancoding.com/sketch -->
    <title>Slice</title>
    <desc>Created with Sketch.</desc>
    <defs></defs>
    <g id="Page-1" stroke="none" stroke-width="1" fill="none" fill-rule="evenodd">
        <g id="ic/search_nor" transform="translate(2.000000, 2.000000)">
            <g id="ic_search_nor">
                <rect id="Rectangle-50" x="0" y="0" width="20" height="20"></rect>
                <path d="M14.6063847,13.1921711 L17.8994949,16.4852814 L16.4852814,17.8994949 L13.1921711,14.6063847 C12.0235906,15.4815965 10.5723351,16 9,16 C5.13400675,16 2,12.8659932 2,9 C2,5.13400675 5.13400675,2 9,2 C12.8659932,2 16,5.13400675 16,9 C16,10.5723351 15.4815965,12.0235906 14.6063847,13.1921711 Z M9,14 C11.7614237,14 14,11.7614237 14,9 C14,6.23857625 11.7614237,4 9,4 C6.23857625,4 4,6.23857625 4,9 C4,11.7614237 6.23857625,14 9,14 Z" fill="#777777"></path>
            </g>
        </g>
    </g>
</svg>