<?xml version="1.0" encoding="UTF-8"?>
<svg width="40px" height="40px" viewBox="0 0 40 40" version="1.1" xmlns="http://www.w3.org/2000/svg" xmlns:xlink="http://www.w3.org/1999/xlink">
    <!-- Generator: Sketch 52.2 (67145) - http://www.bohemiancoding.com/sketch -->
    <title>Slice</title>
    <desc>Created with Sketch.</desc>
    <g id="Page-1" stroke="none" stroke-width="1" fill="none" fill-rule="evenodd">
        <g id="Dialog/↳Elements/Icons/QQ">
            <g>
                <rect id="Rectangle-7" x="0" y="0" width="40" height="40"></rect>
                <path d="M29.3274668,22.9343614 C29.1157745,22.2529792 28.8267524,21.4584578 28.534103,20.6954239 L27.4658402,18.0290886 C27.4666891,17.9980641 27.4799633,17.4731165 27.4799633,17.202385 C27.4799633,12.6427039 25.3273851,8.06095069 20.0339969,8.06064199 C14.7406086,8.06095069 12.5880304,12.6427039 12.5880304,17.202385 C12.5880304,17.4731165 12.6013046,17.9979869 12.6021535,18.0290886 L11.5338907,20.6954239 C11.2412413,21.4584578 10.9522192,22.2529792 10.7405269,22.9343614 C9.73099456,26.1832172 10.0580642,27.5277682 10.3071094,27.5578666 C10.8415496,27.6225397 12.3873742,25.1120988 12.3873742,25.1120988 C12.3873742,26.565776 13.1357447,28.4626718 14.7551176,29.8325364 C14.1493673,30.019301 13.4070937,30.3064709 12.9299949,30.6586998 C12.5012852,30.9753507 12.5546906,31.2980985 12.6320204,31.4284479 C12.9712066,32.0008584 18.4522084,31.7938738 20.0346143,31.6156756 C21.6170201,31.7938738 27.0979447,32.0008584 27.4372852,31.4284479 C27.5145379,31.2980985 27.5679433,30.9753507 27.1392336,30.6586998 C26.6619033,30.3063166 25.9191666,30.0189923 25.3131848,29.8322277 C26.9324033,28.4624403 27.6806195,26.5656988 27.6806195,25.1120988 C27.6806195,25.1120988 29.226367,27.6225397 29.7608843,27.5578666 C30.0099295,27.5277682 30.3369991,26.1832172 29.3274668,22.9343614" id="Fill-1" fill="#7C878E"></path>
            </g>
        </g>
    </g>
</svg>