<?xml version="1.0" encoding="UTF-8"?>
<svg width="24px" height="24px" viewBox="0 0 24 24" version="1.1" xmlns="http://www.w3.org/2000/svg" xmlns:xlink="http://www.w3.org/1999/xlink">
    <!-- Generator: Sketch 49 (51002) - http://www.bohemiancoding.com/sketch -->
    <title>icon-create-s</title>
    <desc>Created with Sketch.</desc>
    <defs></defs>
    <g id="icon-create-s" stroke="none" stroke-width="1" fill="none" fill-rule="evenodd">
        <g id="ico_new_folder">
            <rect id="Rectangle-5" x="0" y="0" width="24" height="24"></rect>
            <path d="M13.6666667,5 L20,5 C20.5522847,5 21,5.44771525 21,6 L21,19 C21,19.5522847 20.5522847,20 20,20 L4,20 C3.44771525,20 3,19.5522847 3,19 L3,5 L3,4 C3,3.44771525 3.44771525,3 4,3 L12.2792408,3 C12.7096712,3 13.09181,3.27543009 13.2279241,3.68377223 L13.6666667,5 Z" id="Combined-Shape" fill="#00A6FF"></path>
            <path d="M11,11 L11,8 L13,8 L13,11 L16,11 L16,13 L13,13 L13,16 L11,16 L11,13 L8,13 L8,11 L11,11 Z" id="Combined-Shape" fill="#FFFFFF"></path>
        </g>
    </g>
</svg>