<?xml version="1.0" encoding="UTF-8"?>
<svg width="24px" height="24px" viewBox="0 0 24 24" version="1.1" xmlns="http://www.w3.org/2000/svg" xmlns:xlink="http://www.w3.org/1999/xlink">
    <!-- Generator: Sketch 49.2 (51160) - http://www.bohemiancoding.com/sketch -->
    <title>Slice</title>
    <desc>Created with Sketch.</desc>
    <defs></defs>
    <g id="Page-1" stroke="none" stroke-width="1" fill="none" fill-rule="evenodd">
        <g id="ic_search_nor">
            <rect id="Rectangle-50" x="0" y="0" width="24" height="24"></rect>
            <path d="M18.4461809,15.0319673 L20.8994949,17.4852814 L19.4852814,18.8994949 L17.0319673,16.4461809 C16.4364541,16.7980706 15.7418086,17 15,17 C12.790861,17 11,15.209139 11,13 C11,10.790861 12.790861,9 15,9 C17.209139,9 19,10.790861 19,13 C19,13.7418086 18.7980706,14.4364541 18.4461809,15.0319673 Z M4,5 L18,5 L18,7 L4,7 L4,5 Z M4,9 L9,9 L9,11 L4,11 L4,9 Z M4,13 L9,13 L9,15 L4,15 L4,13 Z M4,17 L11,17 L11,19 L4,19 L4,17 Z M15,15 C16.1045695,15 17,14.1045695 17,13 C17,11.8954305 16.1045695,11 15,11 C13.8954305,11 13,11.8954305 13,13 C13,14.1045695 13.8954305,15 15,15 Z" id="Combined-Shape" fill="#60686D"></path>
        </g>
    </g>
</svg>