<?xml version="1.0" encoding="UTF-8" standalone="no"?>
<svg width="24px" height="24px" viewBox="0 0 24 24" version="1.1" xmlns="http://www.w3.org/2000/svg" xmlns:xlink="http://www.w3.org/1999/xlink">
    <!-- Generator: Sketch 47.1 (45422) - http://www.bohemiancoding.com/sketch -->
    <title>Slice</title>
    <desc>Created with Sketch.</desc>
    <defs></defs>
    <g id="Page-1" stroke="none" stroke-width="1" fill="none" fill-rule="evenodd">
        <g id="new" transform="translate(5.000000, 5.000000)">
            <rect id="Rectangle-12" fill="#FF8444" x="0" y="0" width="14" height="14" rx="2"></rect>
            <path d="M11.716,1.256 L12.268,2.264 C11.236,2.624 10.096,2.84 8.848,2.924 L8.848,4.868 L12.556,4.868 L12.556,5.96 L11.404,5.96 L11.404,12.248 L10.288,12.248 L10.288,5.96 L8.848,5.96 L8.848,7.172 C8.788,9.284 8.32,10.964 7.444,12.224 L6.64,11.36 C7.324,10.352 7.696,8.96 7.744,7.172 L7.744,1.988 C9.22,1.964 10.54,1.712 11.716,1.256 Z M1.696,2.108 L3.832,2.108 C3.688,1.796 3.52,1.496 3.34,1.22 L4.516,1.028 C4.66,1.352 4.816,1.712 4.96,2.108 L7.18,2.108 L7.18,3.164 L1.696,3.164 L1.696,2.108 Z M1.576,4.832 L2.848,4.832 C2.692,4.412 2.512,4.016 2.308,3.656 L3.304,3.284 C3.496,3.716 3.688,4.232 3.856,4.832 L4.996,4.832 C5.188,4.328 5.356,3.812 5.5,3.272 L6.52,3.632 C6.376,4.076 6.208,4.472 6.028,4.832 L7.252,4.832 L7.252,5.876 L5.032,5.876 L5.032,6.956 L7.048,6.956 L7.048,7.988 L5.032,7.988 L5.032,11.204 C5.032,11.924 4.636,12.284 3.844,12.284 L3.22,12.284 L2.968,11.228 C3.148,11.276 3.316,11.3 3.472,11.3 C3.76,11.3 3.904,11.18 3.904,10.94 L3.904,7.988 L1.768,7.988 L1.768,6.956 L3.904,6.956 L3.904,5.876 L1.576,5.876 L1.576,4.832 Z M2.488,8.516 L3.52,8.732 C3.232,9.944 2.836,11 2.308,11.9 L1.372,11.3 C1.9,10.436 2.272,9.5 2.488,8.516 Z M6.244,8.432 C6.556,9.2 6.808,9.896 6.988,10.52 L6.028,10.88 C5.836,10.136 5.596,9.404 5.308,8.684 L6.244,8.432 Z" id="新" fill="#FFFFFF"></path>
        </g>
    </g>
</svg>