<?xml version="1.0" encoding="UTF-8"?>
<svg width="65px" height="16px" viewBox="0 0 65 16" version="1.1" xmlns="http://www.w3.org/2000/svg" xmlns:xlink="http://www.w3.org/1999/xlink">
    <!-- Generator: Sketch 50.2 (55047) - http://www.bohemiancoding.com/sketch -->
    <title>Group 2</title>
    <desc>Created with Sketch.</desc>
    <defs></defs>
    <g id="Page-1" stroke="none" stroke-width="1" fill="none" fill-rule="evenodd">
        <g id="群组-普通视角" transform="translate(-660.000000, -211.000000)">
            <g id="Group-2" transform="translate(660.000000, 211.000000)">
                <rect id="Rectangle-3" fill="#FF8127" x="0" y="0" width="65" height="16" rx="2"></rect>
                <path d="M9.18,7.704 L13.788,7.704 L13.788,11.436 L9.18,11.436 L9.18,7.704 Z M12.996,10.68 L12.996,8.472 L9.948,8.472 L9.948,10.68 L12.996,10.68 Z M4.008,3.816 L5.832,3.816 L5.832,2.184 L6.66,2.184 L6.66,3.816 L8.46,3.816 L8.46,4.584 L6.66,4.584 L6.66,6.36 L8.436,6.36 L8.436,7.152 L6.9,7.152 L6.9,8.844 L8.448,8.844 L8.448,9.636 L6.9,9.636 L6.9,11.724 C6.972,11.76 7.032,11.784 7.092,11.808 C7.8,12.048 9.432,12.18 11.976,12.18 C13.08,12.168 13.908,12.156 14.448,12.132 L14.304,12.996 L12.168,12.996 C9.18,12.996 7.308,12.816 6.564,12.48 C5.916,12.18 5.328,11.652 4.824,10.896 C4.656,11.712 4.44,12.468 4.152,13.176 L3.528,12.612 C4.056,11.22 4.356,9.648 4.404,7.92 L5.148,8.004 C5.124,8.628 5.076,9.228 5.004,9.804 C5.316,10.392 5.676,10.86 6.084,11.208 L6.084,7.152 L3.864,7.152 L3.864,6.36 L5.832,6.36 L5.832,4.584 L4.008,4.584 L4.008,3.816 Z M10.524,3.576 L8.868,3.576 L8.868,2.784 L13.956,2.784 C13.956,4.824 13.836,6.048 13.608,6.456 C13.392,6.864 13.008,7.068 12.456,7.068 C12.216,7.068 11.94,7.044 11.604,7.02 L11.388,6.264 L12.264,6.324 C12.636,6.312 12.864,6.156 12.96,5.856 C13.056,5.568 13.116,4.812 13.128,3.576 L11.328,3.576 C11.172,4.428 10.968,5.1 10.704,5.604 C10.368,6.192 9.876,6.72 9.228,7.176 L8.664,6.468 C9.24,6.084 9.672,5.664 9.96,5.208 C10.212,4.788 10.404,4.248 10.524,3.576 Z M19.176,10.668 L19.176,11.484 C18.12,11.916 16.932,12.264 15.588,12.516 L15.48,11.676 C16.884,11.424 18.12,11.088 19.176,10.668 Z M17.712,2.184 L18.528,2.508 C17.904,4.02 17.268,5.22 16.62,6.108 C17.196,6.048 17.772,5.976 18.348,5.88 C18.576,5.472 18.816,5.052 19.068,4.608 L19.824,4.884 C18.696,6.828 17.772,8.22 17.028,9.048 C17.892,8.892 18.768,8.676 19.632,8.412 L19.632,9.192 C18.36,9.576 17.136,9.828 15.972,9.972 L15.744,9.192 C15.9,9.132 16.032,9.048 16.14,8.952 C16.62,8.496 17.196,7.74 17.868,6.66 C17.172,6.768 16.476,6.864 15.78,6.948 L15.564,6.156 C15.696,6.108 15.816,6 15.924,5.844 C16.608,4.776 17.208,3.552 17.712,2.184 Z M20.988,3.504 L19.8,3.504 L19.8,2.688 L25.068,2.688 L25.068,3.228 C24.876,4.308 24.684,5.232 24.492,6 L26.016,6 L26.016,6.48 C25.764,8.136 25.212,9.54 24.348,10.68 C24.972,11.352 25.704,11.94 26.544,12.468 L26.004,13.188 C25.164,12.636 24.432,12.012 23.832,11.316 C23.112,12.084 22.224,12.708 21.192,13.212 L20.712,12.42 C21.72,11.928 22.572,11.316 23.256,10.596 C22.536,9.624 21.984,8.52 21.612,7.296 C21.252,9.828 20.46,11.784 19.248,13.152 L18.612,12.588 C20.172,10.836 20.964,8.028 20.988,4.152 L20.988,3.504 Z M23.76,9.996 C24.456,9.072 24.912,7.992 25.152,6.756 L23.484,6.756 C23.7,6.012 23.928,4.932 24.18,3.504 L21.828,3.504 L21.828,4.152 C21.828,4.596 21.816,5.028 21.792,5.436 C22.092,7.188 22.752,8.712 23.76,9.996 Z M36.432,6.936 L36.432,9.288 L30.444,9.288 L30.444,10.116 L36.984,10.116 L36.984,13.2 L36.132,13.2 L36.132,12.696 L30.444,12.696 L30.444,13.188 L29.58,13.188 L29.58,6.936 L36.432,6.936 Z M30.444,11.928 L36.132,11.928 L36.132,10.812 L30.444,10.812 L30.444,11.928 Z M30.444,8.592 L35.592,8.592 L35.592,7.632 L30.444,7.632 L30.444,8.592 Z M38.088,5.484 L38.088,7.656 L37.248,7.656 L37.248,6.228 L28.752,6.228 L28.752,7.656 L27.912,7.656 L27.912,5.484 L32.664,5.484 C32.544,5.196 32.424,4.944 32.292,4.704 L33.132,4.56 L33.06,4.512 C33.636,3.792 34.044,3.012 34.308,2.148 L35.136,2.328 C35.052,2.58 34.968,2.82 34.872,3.06 L38.34,3.06 L38.34,3.816 L36.204,3.816 C36.456,4.152 36.66,4.464 36.804,4.752 L36.036,5.04 C35.82,4.608 35.568,4.2 35.28,3.816 L34.524,3.816 C34.308,4.224 34.056,4.608 33.792,4.968 L33.144,4.572 C33.276,4.848 33.408,5.148 33.528,5.484 L38.088,5.484 Z M29.352,3.816 C29.064,4.284 28.752,4.716 28.392,5.112 L27.636,4.632 C28.356,3.888 28.884,3.048 29.22,2.136 L30.048,2.316 C29.952,2.58 29.844,2.82 29.748,3.06 L32.964,3.06 L32.964,3.816 L30.948,3.816 C31.212,4.176 31.44,4.524 31.608,4.848 L30.816,5.148 C30.6,4.692 30.336,4.248 30.036,3.816 L29.352,3.816 Z M43.992,2.676 L49.86,2.676 L49.86,8.22 L47.364,8.22 L47.364,9.636 L50.064,9.636 L50.064,10.452 L47.364,10.452 L47.364,12.012 L50.508,12.012 L50.508,12.84 L43.284,12.84 L43.284,12.012 L46.5,12.012 L46.5,10.452 L43.788,10.452 L43.788,9.636 L46.5,9.636 L46.5,8.22 L43.992,8.22 L43.992,2.676 Z M49.032,7.452 L49.032,5.832 L47.364,5.832 L47.364,7.452 L49.032,7.452 Z M46.5,7.452 L46.5,5.832 L44.82,5.832 L44.82,7.452 L46.5,7.452 Z M44.82,5.076 L46.5,5.076 L46.5,3.444 L44.82,3.444 L44.82,5.076 Z M47.364,3.444 L47.364,5.076 L49.032,5.076 L49.032,3.444 L47.364,3.444 Z M39.756,6.648 L41.064,6.648 L41.064,3.804 L39.588,3.804 L39.588,2.988 L43.416,2.988 L43.416,3.804 L41.952,3.804 L41.952,6.648 L43.272,6.648 L43.272,7.476 L41.952,7.476 L41.952,10.2 C42.408,10.044 42.84,9.876 43.272,9.684 L43.272,10.524 C42.168,10.98 40.98,11.364 39.708,11.676 L39.492,10.848 C40.02,10.752 40.548,10.632 41.064,10.488 L41.064,7.476 L39.756,7.476 L39.756,6.648 Z M61.044,6.552 L61.044,11.028 L60.192,11.028 L60.192,7.344 L53.82,7.344 L53.82,11.172 L52.968,11.172 L52.968,6.552 L61.044,6.552 Z M53.688,2.64 L60.324,2.64 L60.324,5.652 L53.688,5.652 L53.688,2.64 Z M59.484,4.896 L59.484,3.408 L54.528,3.408 L54.528,4.896 L59.484,4.896 Z M56.676,8.124 L57.552,8.196 C57.384,9.96 57.012,11.148 56.436,11.772 C55.812,12.516 54.384,12.996 52.152,13.2 L51.816,12.42 C53.76,12.3 55.056,11.916 55.692,11.256 C56.244,10.644 56.58,9.6 56.676,8.124 Z M57.864,10.908 C59.424,11.352 60.852,11.892 62.148,12.516 L61.68,13.236 C60.3,12.516 58.884,11.964 57.432,11.556 L57.864,10.908 Z" id="超级管理员" fill="#FFFFFF"></path>
            </g>
        </g>
    </g>
</svg>