<svg width="40" height="40" viewBox="0 0 40 40" xmlns="http://www.w3.org/2000/svg"><title>icon-tag-m</title><g fill="none" fill-rule="evenodd"><path d="M19.41 26.72c-1.37-3.235-4.659-4.74-8.603-3.685 0 0 .743 3.013 3.286 4.679 1.899 1.243 4.23 1.332 5.317 1.34v.008h.56a.135.135 0 0 1 .045.01v.004l.003-.002a9.394 9.394 0 0 0 .002 0c.15-.064 3.42.279 5.922-1.36 2.543-1.666 3.286-4.679 3.286-4.679-3.953-1.059-7.255.461-8.618 3.72v-3.693h-1.2v3.657z" fill="#8588F8"/><path d="M19.107 22.755a7.522 7.522 0 0 1-2.733-.814 8.118 8.118 0 0 1-1.809-1.273 8.204 8.204 0 0 1-1.404-1.705 8.519 8.519 0 0 1-.911-2.036 7.918 7.918 0 0 1-.33-2.291c0-1.07.212-2.104.633-3.105.81.203 1.557.513 2.24.929.683.415 1.294.92 1.834 1.514a7.84 7.84 0 0 1 1.126-3.169A8.306 8.306 0 0 1 20.018 8.4a7.887 7.887 0 0 1 2.315 2.443 7.878 7.878 0 0 1 1.101 3.233 8.77 8.77 0 0 1 1.847-1.54 7.81 7.81 0 0 1 2.252-.954c.388.967.582 1.985.582 3.054a8.11 8.11 0 0 1-.316 2.265 7.902 7.902 0 0 1-.911 2.036 8.773 8.773 0 0 1-1.404 1.706 7.847 7.847 0 0 1-1.797 1.272 7.2 7.2 0 0 1-3.011.865l-1.569-.025z" fill="#8390F8"/></g></svg>