<?xml version="1.0" encoding="UTF-8"?>
<svg width="24px" height="24px" viewBox="0 0 24 24" version="1.1" xmlns="http://www.w3.org/2000/svg" xmlns:xlink="http://www.w3.org/1999/xlink">
    <!-- Generator: Sketch 50.2 (55047) - http://www.bohemiancoding.com/sketch -->
    <title>icon-team-peo-blue</title>
    <desc>Created with Sketch.</desc>
    <defs></defs>
    <g id="Symbol" stroke="none" stroke-width="1" fill="none" fill-rule="evenodd">
        <g id="Bar/Navigation-Bar/↳Elements/List/icons/group_select-Copy">
            <g id="icon-team-peo-blue">
                <rect id="Rectangle-13" x="0" y="0" width="24" height="24"></rect>
                <path d="M12.7397814,11.6429926 C12.7302577,11.6559396 12.7203407,11.66904 12.7100306,11.6822937 C12.1843952,12.3580025 12.2308187,13.3762653 13.1489093,14.0983607 C14.0604992,14.8153431 15.2051724,15.5989842 16.0697744,16.1504429 C17.1507346,16.8398987 17.5603821,17.6829425 17.5371789,18.4041557 C17.5085175,19.2950226 16.8194112,20 15.9192944,20 C14.8334156,20 12.8603175,20 10,20 C7.13968253,20 5.16658439,20 4.08070556,20 C3.18058881,20 2.4914825,19.2950226 2.46282109,18.4041557 C2.43961787,17.6829425 2.84926544,16.8398987 3.9302256,16.1504429 C4.79482756,15.5989842 5.93950085,14.8153431 6.85109073,14.0983607 C7.76918127,13.3762653 7.81560485,12.3580025 7.28996941,11.6822937 C7.27965927,11.66904 7.26974233,11.6559396 7.26021859,11.6429926 C6.48444377,10.7310239 6,9.43622937 6,8 C6,5.23857625 7.790861,3 10,3 C12.209139,3 14,5.23857625 14,8 C14,9.43622937 13.5155562,10.7310239 12.7397814,11.6429926 Z M16,6 L21,6 L21,8 L16,8 L16,6 Z M16,10 L21,10 L21,12 L16,12 L16,10 Z M18,14 L21,14 L21,16 L18,16 L18,14 Z" id="Combined-Shape" fill="#2980FF"></path>
            </g>
        </g>
    </g>
</svg>