<svg width="128" height="128" viewBox="0 0 128 128" xmlns="http://www.w3.org/2000/svg"><title>icon-ppt-create</title><g fill="none" fill-rule="evenodd"><g transform="translate(12 5)"><path d="M2 0h77.199a2 2 0 0 1 1.38.553l20.802 19.856a2 2 0 0 1 .619 1.447V114a2 2 0 0 1-2 2H2a2 2 0 0 1-2-2V2a2 2 0 0 1 2-2z" fill="#FFF"/><path d="M2 1a1 1 0 0 0-1 1v112a1 1 0 0 0 1 1h98a1 1 0 0 0 1-1V21.856a1 1 0 0 0-.31-.724L79.89 1.277A1 1 0 0 0 79.198 1H2zm0-1h77.199a2 2 0 0 1 1.38.553l20.802 19.856a2 2 0 0 1 .619 1.447V114a2 2 0 0 1-2 2H2a2 2 0 0 1-2-2V2a2 2 0 0 1 2-2z" fill="#DEDEDE" fill-rule="nonzero"/><circle fill="#F46544" cx="92" cy="100" r="20"/><path d="M94 98v-8h-4v8h-8v4h8v8h4v-8h8v-4h-8z" fill="#FFF"/><path d="M25 42v13a1 1 0 0 1-1 1h-4a1 1 0 0 1-1-1V17a1 1 0 0 1 1-1h19c7.18 0 13 5.82 13 13s-5.82 13-13 13H25zm0-20v14h14a7 7 0 0 0 0-14H25z" fill="#F46544"/></g></g></svg>