<?xml version="1.0" encoding="UTF-8"?>
<svg width="24px" height="24px" viewBox="0 0 24 24" version="1.1" xmlns="http://www.w3.org/2000/svg" xmlns:xlink="http://www.w3.org/1999/xlink">
    <!-- Generator: Sketch 52.2 (67145) - http://www.bohemiancoding.com/sketch -->
    <title>icon-wechat-pay</title>
    <desc>Created with Sketch.</desc>
    <g id="Page-1" stroke="none" stroke-width="1" fill="none" fill-rule="evenodd">
        <g id="微信支付" transform="translate(2.000000, 3.000000)" fill="#09BB07">
            <path d="M7.621475,11.5838375 C6.4249,12.2482875 6.247425,11.2108125 6.247425,11.2108125 L4.747775,7.7251375 C4.17075,6.0687875 5.247175,6.9783125 5.247175,6.9783125 C5.247175,6.9783125 6.1708,7.6742875 6.871775,8.0983875 C7.572375,8.5224875 8.37095,8.2228875 8.37095,8.2228875 L18.17495,3.7155125 C16.36615,1.4736875 13.378175,0.0078125 9.995425,0.0078125 C4.474825,0.0078125 0,3.9088375 0,8.7212625 C0,11.4893375 1.48175,13.9530125 3.78975,15.5498125 L3.373525,17.9329875 C3.373525,17.9329875 3.170625,18.6287375 3.873825,18.3060375 C4.353,18.0860125 5.574575,17.2975625 6.30175,16.8177125 C7.444925,17.2145125 8.690375,17.4348375 9.995975,17.4348375 C15.516125,17.4348375 19.991875,13.5338125 19.991875,8.7212875 C19.991875,7.3273625 19.614725,6.0109625 18.94665,4.8424875 C15.823075,6.7144375 8.557775,11.0647875 7.621475,11.5838375 Z" id="Path"></path>
        </g>
    </g>
</svg>