<?xml version="1.0" encoding="UTF-8"?>
<svg width="76px" height="24px" viewBox="0 0 76 24" version="1.1" xmlns="http://www.w3.org/2000/svg" xmlns:xlink="http://www.w3.org/1999/xlink">
    <!-- Generator: Sketch 50.2 (55047) - http://www.bohemiancoding.com/sketch -->
    <title>icon-logo-vip-sup</title>
    <desc>Created with Sketch.</desc>
    <defs></defs>
    <g id="Page-1" stroke="none" stroke-width="1" fill="none" fill-rule="evenodd">
        <g id="icon-logo-vip-sup" transform="translate(4.000000, 3.000000)" fill="#000000" fill-rule="nonzero">
            <g id="Group-18" transform="translate(0.526316, 0.157895)">
                <g id="Group">
                    <polygon id="Shape" points="52.2542691 7.43451995 52.2542691 13.4360504 53.7260302 13.4360504 53.7260302 8.85332146 64.5954583 8.85332146 64.5954583 13.4360504 66.0807218 13.4360504 66.0807218 7.43451995"></polygon>
                    <path d="M65.1625589,0.681024728 L53.2129392,0.681024728 L53.2129392,6.28529072 L65.1625589,6.28529072 L65.1625589,0.681024728 Z M63.6772954,4.8664892 L54.6982027,4.8664892 L54.6982027,2.09982624 L63.6772954,2.09982624 L63.6772954,4.8664892 Z" id="Shape"></path>
                    <path d="M62.8266445,14.4292114 C60.1936775,13.3651103 59.9911416,12.5138294 59.9776392,10.6126353 L59.9776392,9.94579863 L58.4113613,9.94579863 L58.4113613,10.6126353 C58.3978589,12.5138294 58.195323,13.3651103 55.562356,14.4292114 C54.6306907,14.7980998 52.7673602,15.4223725 51.6736662,15.6777568 C51.6736662,15.7628849 51.6736662,17.1958744 51.6736662,17.1958744 C51.6736662,17.2526264 51.7276757,17.2951905 51.7816853,17.2810025 C53.753035,16.7560459 54.9952554,16.2878414 56.2104709,15.8054489 C57.7632464,15.1811762 58.6544044,14.5427155 59.1945002,13.8333148 C59.734596,14.5427155 60.6257541,15.1811762 62.1785296,15.8054489 C63.3937451,16.3020294 64.6359655,16.7560459 66.6073152,17.2810025 C66.6613247,17.2951905 66.7153343,17.2526264 66.7153343,17.1958744 C66.7153343,17.1958744 66.7153343,15.7628849 66.7153343,15.6777568 C65.6216403,15.4365605 63.7583098,14.8122878 62.8266445,14.4292114 Z" id="Shape"></path>
                    <rect id="Rectangle-path" x="36.9695579" y="6.25691469" width="10.0862892" height="1.56068167"></rect>
                    <path d="M34.4986196,11.2794721 L37.6716824,11.2794721 L35.6598255,16.9546781 C35.6328207,17.0256182 35.6733279,17.0823703 35.7273375,17.0823703 L48.4735985,17.0823703 C48.5276081,17.0823703 48.5816177,17.0256182 48.5411105,16.9546781 L46.988335,12.5563934 L45.4625644,12.5563934 C45.4085548,12.5563934 45.3680476,12.6131455 45.38155,12.6698975 L46.3942297,15.5216886 L37.793204,15.5216886 L39.3054722,11.265284 L49.5267853,11.265284 L49.5267853,9.70460237 L34.4986196,9.70460237 L34.4986196,11.2794721 Z" id="Shape"></path>
                    <path d="M42.0599608,0.0141880152 C42.0599608,0.0141880152 42.0464584,0 42.0059512,0 C41.9789465,0 41.9519417,0.0141880152 41.9519417,0.0141880152 C39.8185632,1.60324571 37.3476249,3.22067944 34.3230884,5.0509334 C34.3230884,5.30631767 34.3230884,6.4555469 34.3230884,6.98050346 C34.3230884,7.02306751 34.377098,7.09400758 34.4581124,7.05144354 C37.4016345,5.27794164 39.5080081,3.88751616 42.0059512,2.08563823 C44.5038943,3.88751616 46.610268,5.27794164 49.5537901,7.05144354 C49.6348045,7.09400758 49.6888141,7.02306751 49.6888141,6.98050346 C49.6888141,6.4555469 49.6888141,5.32050569 49.6888141,5.0509334 C46.6642776,3.22067944 44.1933393,1.60324571 42.0599608,0.0141880152 Z" id="Shape"></path>
                    <path d="M8.0474275,14.3866474 L15.068673,14.3866474 L15.068673,8.42768101 L8.0474275,8.42768101 L8.0474275,14.3866474 Z M9.53269096,9.98836268 L13.5834095,9.98836268 L13.5834095,12.8259657 L9.53269096,12.8259657 L9.53269096,9.98836268 Z" id="Shape"></path>
                    <path d="M7.85839396,7.51964804 C7.81788678,7.59058811 7.87189636,7.64734018 7.92590594,7.64734018 L9.46517898,7.64734018 C10.2483179,5.97315439 10.7614089,3.98683226 11.0179544,2.46871464 L13.7049311,2.46871464 L13.7049311,6.12922255 C13.7049311,6.12922255 11.7740886,6.12922255 11.7470838,6.12922255 C11.6930742,6.12922255 11.652567,6.18597461 11.6660694,6.25691469 C11.6795718,6.29947873 12.1116484,7.54802407 12.1116484,7.54802407 L15.0551706,7.54802407 L15.0551706,1.04991312 L7.56134127,1.04991312 L7.56134127,2.46871464 L9.50568617,2.46871464 C9.22213587,4.02939631 8.66853767,6.01571843 7.85839396,7.51964804 Z" id="Shape"></path>
                    <path d="M7.88539875,15.3514324 C6.6431784,15.2804923 5.65750356,15.0676721 4.86086225,14.7839118 L4.86086225,11.5348563 L7.26428858,11.5348563 L7.26428858,9.97417466 L4.86086225,9.97417466 L4.86086225,7.46289598 L7.26428858,7.46289598 L7.26428858,5.90221431 L4.86086225,5.90221431 L4.86086225,3.63213188 L6.91322631,3.63213188 L6.91322631,2.07145021 L4.86086225,2.07145021 L4.86086225,0.397264425 L3.37559878,0.397264425 L3.37559878,2.07145021 L0.594105386,2.07145021 L0.594105386,3.63213188 L3.37559878,3.63213188 L3.37559878,5.90221431 L0.378067064,5.90221431 L0.378067064,7.46289598 L3.37559878,7.46289598 L3.37559878,14.031947 C2.91651735,13.7056227 2.57895747,13.3651103 2.32241196,13.0387859 C2.36291915,12.0881889 2.36291915,11.1092159 2.36291915,10.1160548 C2.36291915,9.76135444 2.36291915,9.40665406 2.36291915,9.05195368 L0.877655683,9.05195368 C0.877655683,9.42084207 0.877655683,9.77554245 0.877655683,10.1302428 C0.891158078,12.7550256 0.904660474,15.0251081 0.0810143708,17.0965583 C0.0675119756,17.1391223 0.0945167659,17.2100624 0.162028742,17.2100624 L1.63378981,17.2100624 C1.87683292,16.5006616 2.03886166,15.7770729 2.14688083,15.0251081 C3.82117782,16.4013455 6.06257541,16.826986 7.81788678,16.9263021 C8.83056641,16.9830542 9.91075802,16.9972422 11.3960215,16.9972422 C12.5437251,16.9972422 13.9344718,16.9830542 15.7437927,16.9688661 L15.7437927,15.4081845 C11.6120598,15.4365605 9.64071012,15.4507485 7.88539875,15.3514324 Z" id="Shape"></path>
                    <path d="M17.6611328,11.1517799 C17.6611328,11.1517799 17.6611328,12.5563934 17.6611328,12.5989575 C17.6611328,12.6557095 17.7151424,12.6982736 17.7556496,12.6840856 C17.7961568,12.6698975 22.7110286,11.6057964 22.7110286,11.6057964 C22.7110286,11.6057964 22.7110286,10.1728069 22.7110286,10.1160548 C22.7110286,10.0593028 22.6705214,10.0167387 22.6030094,10.0309267 C22.5489999,10.0451147 19.6729897,10.6693874 19.6729897,10.6693874 C19.6729897,10.6693874 23.2781292,4.45503676 23.305134,4.41247272 C23.3321388,4.35572066 23.2916316,4.28478058 23.237622,4.28478058 C23.1971148,4.28478058 21.6443394,4.28478058 21.6443394,4.28478058 L20.7666837,5.8028982 L19.2274107,5.8028982 C19.2274107,5.8028982 22.1574304,0.510768546 22.1844352,0.468204501 C22.21144,0.41145244 22.1709328,0.340512364 22.1169232,0.340512364 C22.0899184,0.340512364 20.537143,0.340512364 20.537143,0.340512364 L17.4991041,5.83127423 L17.4991041,7.37776789 L19.8485208,7.37776789 L17.6611328,11.1517799 Z" id="Shape"></path>
                    <path d="M29.6377573,13.8191268 C29.8537956,13.5779305 30.0563316,13.3225462 30.2453651,13.052974 C31.541595,11.251096 32.257222,8.89588551 32.4057483,6.08665851 C32.4057483,6.04409446 32.3652411,6.00153042 32.3247339,6.00153042 L30.0698339,6.00153042 C30.0698339,6.00153042 31.7846381,1.20598129 31.7981405,1.16341724 C31.8116429,1.10666518 31.7846381,1.04991312 31.7171262,1.04991312 C31.676619,1.04991312 22.9675741,1.04991312 22.9675741,1.04991312 L22.9675741,2.61059479 L24.6013639,2.61059479 C24.5878615,3.40512364 24.5743591,4.5827289 24.5203496,5.9873424 C24.4528376,7.8601604 24.3178136,11.6341724 22.724531,14.2305792 C22.724531,13.8191268 22.724531,13.3509223 22.724531,13.3225462 C22.724531,13.2657942 22.6705214,13.2232301 22.6165118,13.2374182 C22.589507,13.2374182 17.3370753,14.4292114 17.3370753,14.4292114 C17.3370753,14.4292114 17.3370753,15.876389 17.3370753,15.918953 C17.3370753,15.9757051 17.3775825,16.0182691 17.4315921,16.0040811 C17.4856017,15.9898931 20.9287124,15.2095523 22.2249424,14.9116039 C22.0629136,15.1102362 21.8873825,15.3088684 21.7118514,15.4933126 L21.7118514,17.2810025 C21.7118514,17.3661306 21.7928657,17.3803186 21.8333729,17.3519425 C24.0072585,15.862201 25.0199382,13.2799822 25.5060244,10.8538316 C25.9245986,11.8753687 26.518704,12.8827178 27.3828573,13.8333148 C26.4646945,14.5143395 25.3169909,15.0818601 23.818225,15.6777568 L23.818225,17.2242504 C23.818225,17.2810025 23.8722346,17.3235665 23.9397466,17.3093785 C26.0326178,16.4864736 27.4503693,15.7628849 28.5170585,14.9116039 C29.6377573,15.8338249 31.0690112,16.6567298 32.8918345,17.2951905 C32.9458441,17.3093785 33.0133561,17.2810025 33.0133561,17.2100624 C33.0133561,17.1958744 33.0133561,15.6919448 33.0133561,15.6919448 C31.6361118,15.1528002 30.5289154,14.5143395 29.6377573,13.8191268 Z M26.073125,2.59640678 L29.6917669,2.59640678 C29.6917669,2.59640678 27.9769627,7.3919559 27.9634603,7.43451995 C27.9499579,7.47708399 27.9769627,7.54802407 28.0444747,7.54802407 C28.0579771,7.54802407 29.6512597,7.54802407 30.7719585,7.54802407 C30.5019106,9.349902 29.93481,10.8822076 29.0571543,12.1023769 C28.8816232,12.3435732 28.706092,12.5563934 28.5170585,12.7692137 C26.0191154,10.0451147 26.0191154,6.66836713 26.0461202,4.34153264 C26.0461202,4.35572066 26.073125,3.02204723 26.073125,2.59640678 Z" id="Shape"></path>
                </g>
            </g>
        </g>
    </g>
</svg>