<?xml version="1.0" encoding="UTF-8"?>
<svg width="40px" height="40px" viewBox="0 0 40 40" version="1.1" xmlns="http://www.w3.org/2000/svg" xmlns:xlink="http://www.w3.org/1999/xlink">
    <!-- Generator: Sketch 52.2 (67145) - http://www.bohemiancoding.com/sketch -->
    <title>Slice</title>
    <desc>Created with Sketch.</desc>
    <g id="Page-1" stroke="none" stroke-width="1" fill="none" fill-rule="evenodd">
        <g id="Dialog/↳Elements/Icons/weixin" fill="#7C878E">
            <g id="微信-(1)" transform="translate(7.000000, 9.000000)">
                <path d="M26,13.4285737 C26,9.70468031 22.4522511,6.68571429 18.0761905,6.68571429 C13.7001,6.68571429 10.152381,9.70468031 10.152381,13.4285737 C10.152381,17.1524671 13.7001,20.1714331 18.0761905,20.1714331 C18.9001131,20.1714331 19.694178,20.0640681 20.4410678,19.8656119 L23.7360416,21.2952381 L22.6519392,18.9272501 C24.6752746,17.705625 26,15.7005201 26,13.4285737 Z M15.8122321,12.3047688 C15.187281,12.3047688 14.6802678,11.8017658 14.6802678,11.1809638 C14.6802678,10.5601617 15.187281,10.0571588 15.8122321,10.0571588 C16.4371533,10.0571588 16.9441964,10.5601914 16.9441964,11.1809638 C16.9442262,11.8017658 16.4371533,12.3047688 15.8122321,12.3047688 Z M20.340119,12.3047688 C19.7151679,12.3047688 19.2081547,11.8017658 19.2081547,11.1809638 C19.2081547,10.5601617 19.7151679,10.0571588 20.340119,10.0571588 C20.9650402,10.0571588 21.4720833,10.5601914 21.4720833,11.1809638 C21.4721131,11.8017658 20.9650402,12.3047688 20.340119,12.3047688 Z M9.6046546,0 C13.967811,0 17.6489783,2.41622291 18.8190476,5.72398049 C18.5748286,5.70655478 18.3287618,5.69522809 18.0793866,5.69522809 C13.0868761,5.69522809 9.03970823,9.2651222 9.03970823,13.6685654 C9.03970823,14.4575889 9.17174266,15.2191819 9.41375608,15.9390735 C8.24520676,15.919785 7.12699743,15.7316176 6.09635405,15.3954819 L2.25993452,17.0857143 L3.57196322,14.1759836 C1.3940212,12.7141781 0,10.4794829 0,7.97333733 C0,3.5698941 4.30023886,0 9.6046546,0 Z M6.77974391,5.69522806 C7.40358419,5.69522806 7.90972607,5.18537625 7.90969627,4.55618845 C7.90969627,3.92700064 7.40355439,3.41714883 6.77974391,3.41714883 C6.15590363,3.41714883 5.64979155,3.92697061 5.64979155,4.55618845 C5.64979155,5.18540629 6.15590363,5.69522806 6.77974391,5.69522806 Z M12.4295653,5.69522806 C13.0533757,5.69522806 13.5595176,5.18537625 13.5595176,4.55618845 C13.5595176,3.92700064 13.0533758,3.41714883 12.4295653,3.41714883 C11.805725,3.41714883 11.2996129,3.92697061 11.2996129,4.55618845 C11.2996129,5.18540629 11.805725,5.69522806 12.4295653,5.69522806 Z" id="Combined-Shape" fill-rule="nonzero"></path>
            </g>
        </g>
    </g>
</svg>