<?xml version="1.0" encoding="UTF-8"?>
<svg width="24px" height="24px" viewBox="0 0 24 24" version="1.1" xmlns="http://www.w3.org/2000/svg" xmlns:xlink="http://www.w3.org/1999/xlink">
    <!-- Generator: Sketch 52.2 (67145) - http://www.bohemiancoding.com/sketch -->
    <title>ic_share_nor</title>
    <desc>Created with Sketch.</desc>
    <g id="Symbol" stroke="none" stroke-width="1" fill="none" fill-rule="evenodd">
        <g id="Bar/Action-Bar/↳Elements/icons/share_set" transform="translate(2.000000, 2.000000)">
            <g id="ic_share_nor">
                <rect id="Rectangle-48" x="0" y="0" width="20" height="20"></rect>
            </g>
            <path d="M10,15.5 C10.9866404,15.5 11.9151437,15.8603314 12.6327601,16.4883015 C13.2314346,16.2450922 13.7931002,15.9196373 14.3022789,15.5222846 C14.1178254,14.5873668 14.2701652,13.603857 14.7631397,12.75 C15.2562399,11.8959254 16.032077,11.2721557 16.9342175,10.9645216 C16.9778999,10.6471331 17,10.3251402 17,10 C17,9.67485979 16.9778999,9.35286692 16.9342175,9.03547837 C16.032077,8.72784426 15.2562399,8.10407461 14.7631397,7.25 C14.2701652,6.39614302 14.1178254,5.41263325 14.3022789,4.47771544 C13.7931002,4.0803627 13.2314346,3.75490777 12.6327601,3.51169849 C11.9151437,4.13966858 10.9866404,4.5 10,4.5 C9.01335961,4.5 8.08485635,4.13966858 7.36723992,3.51169849 C6.76856539,3.75490777 6.2068998,4.0803627 5.69772106,4.47771544 C5.88217464,5.41263325 5.72983483,6.39614302 5.23686028,7.25 C4.74376007,8.10407461 3.96792301,8.72784426 3.06578249,9.03547837 C3.02210011,9.35286692 3,9.67485979 3,10 C3,10.3251402 3.02210011,10.6471331 3.06578249,10.9645216 C3.96792301,11.2721557 4.74376007,11.8959254 5.23686028,12.75 C5.72983483,13.603857 5.88217464,14.5873668 5.69772106,15.5222846 C6.2068998,15.9196373 6.76856539,16.2450922 7.36723992,16.4883015 C8.08485635,15.8603314 9.01335961,15.5 10,15.5 Z M7.34642607,18.6021425 C6.05184752,18.2032058 4.86752759,17.5157602 3.8779425,16.5970475 L3.37530209,16.1304053 L3.62958901,15.4934277 C3.85592255,14.9264721 3.81562325,14.2883453 3.50480947,13.75 C3.19378009,13.2112813 2.66077014,12.8572071 2.05612922,12.770048 L1.37595314,12.6720005 L1.22366732,12.0018798 C1.07546337,11.3497209 1,10.6794078 1,10 C1,9.32059219 1.07546337,8.65027909 1.22366732,7.99812025 L1.37595314,7.32799948 L2.05612922,7.22995197 C2.66077014,7.14279286 3.19378009,6.78871869 3.50480947,6.25 C3.81562325,5.71165475 3.85592255,5.07352789 3.62958901,4.50657228 L3.37530209,3.86959468 L3.8779425,3.40295251 C4.86752759,2.4842398 6.05184752,1.79679418 7.34642607,1.39785752 L8.00239557,1.1957143 L8.42683018,1.73517062 C8.80462629,2.21534941 9.3778469,2.5 10,2.5 C10.6221531,2.5 11.1953737,2.21534941 11.5731698,1.73517062 L11.9976044,1.1957143 L12.6535739,1.39785752 C13.9481525,1.79679418 15.1324724,2.4842398 16.1220575,3.40295251 L16.6246979,3.86959468 L16.370411,4.50657228 C16.1440775,5.07352789 16.1843768,5.71165475 16.4951905,6.25 C16.8062199,6.78871869 17.3392299,7.14279286 17.9438708,7.22995197 L18.6240469,7.32799948 L18.7763327,7.99812025 C18.9245366,8.65027909 19,9.32059219 19,10 C19,10.6794078 18.9245366,11.3497209 18.7763327,12.0018798 L18.6240469,12.6720005 L17.9438708,12.770048 C17.3392299,12.8572071 16.8062199,13.2112813 16.4951905,13.75 C16.1843768,14.2883453 16.1440775,14.9264721 16.370411,15.4934277 L16.6246979,16.1304053 L16.1220575,16.5970475 C15.1324724,17.5157602 13.9481525,18.2032058 12.6535739,18.6021425 L11.9976044,18.8042857 L11.5731698,18.2648294 C11.1953737,17.7846506 10.6221531,17.5 10,17.5 C9.3778469,17.5 8.80462629,17.7846506 8.42683018,18.2648294 L8.00239557,18.8042857 L7.34642607,18.6021425 Z M10,11 C10.5522847,11 11,10.5522847 11,10 C11,9.44771525 10.5522847,9 10,9 C9.44771525,9 9,9.44771525 9,10 C9,10.5522847 9.44771525,11 10,11 Z M10,13 C8.34314575,13 7,11.6568542 7,10 C7,8.34314575 8.34314575,7 10,7 C11.6568542,7 13,8.34314575 13,10 C13,11.6568542 11.6568542,13 10,13 Z" id="Combined-Shape" fill="#60686D" fill-rule="nonzero"></path>
        </g>
    </g>
</svg>