<?xml version="1.0" encoding="UTF-8"?>
<svg width="240px" height="240px" viewBox="0 0 240 240" version="1.1" xmlns="http://www.w3.org/2000/svg" xmlns:xlink="http://www.w3.org/1999/xlink">
    <!-- Generator: Sketch 51.2 (57519) - http://www.bohemiancoding.com/sketch -->
    <title>icon-end</title>
    <desc>Created with Sketch.</desc>
    <defs></defs>
    <g id="Page-1" stroke="none" stroke-width="1" fill="none" fill-rule="evenodd">
        <g id="Group-3" transform="translate(-30.000000, -46.000000)">
            <rect id="Rectangle-2" x="0" y="0" width="300" height="300"></rect>
            <path d="M206,241 L94,241 L94,250 C94,267.526835 118.999102,282 150,282 C181.000898,282 206,267.526835 206,250 L206,241 Z" id="Oval-3-Copy" stroke="#B2B2B2" stroke-width="2" fill="#FFFFFF"></path>
            <ellipse id="Oval-3-Copy-2" stroke="#B2B2B2" stroke-width="2" fill="#FFFFFF" cx="150" cy="240" rx="56" ry="32"></ellipse>
            <path d="M147,167 C147,172.855893 143.85725,177.601146 137.206092,183.229543 C134.871671,185.204995 125.413492,192.383764 123.628095,193.824897 C108.406227,206.111658 101,218.180631 101,237 C101,251.755808 122.864629,264 150,264 C177.135371,264 199,251.755808 199,237 C199,218.201892 191.59778,206.149131 176.371897,193.858881 C174.595271,192.424798 165.168342,185.266002 162.838287,183.29499 C156.155713,177.64215 153,172.880822 153,167 C153,161.119178 156.155713,156.35785 162.838287,150.70501 C165.168342,148.733998 174.595271,141.575202 176.371897,140.141119 C191.59778,127.850869 199,115.798108 199,97 C199,82.2441922 177.135371,70 150,70 C122.864629,70 101,82.2441922 101,97 C101,115.819369 108.406227,127.888342 123.628095,140.175103 C125.413492,141.616236 134.871671,148.795005 137.206092,150.770457 C143.85725,156.398854 147,161.144107 147,167 Z" id="Combined-Shape" stroke="#B2B2B2" stroke-width="2" fill="#FFFFFF"></path>
            <path d="M150,258 C173.748244,258 193,247.254834 193,234 C193,218.745166 152.969541,196 150,196 C147.030459,196 107,218.745166 107,234 C107,247.254834 126.251756,258 150,258 Z" id="Oval-2" fill="#2980FF"></path>
            <path d="M206,83 L94,83 L94,92 C94,109.526835 118.999102,124 150,124 C181.000898,124 206,109.526835 206,92 L206,83 Z" id="Oval-3" stroke="#B2B2B2" stroke-width="2" fill="#FFFFFF"></path>
            <ellipse id="Oval-3" stroke="#B2B2B2" stroke-width="2" fill="#FFFFFF" cx="150" cy="82" rx="56" ry="32"></ellipse>
        </g>
    </g>
</svg>