<?xml version="1.0" encoding="UTF-8"?>
<svg width="41px" height="16px" viewBox="0 0 41 16" version="1.1" xmlns="http://www.w3.org/2000/svg" xmlns:xlink="http://www.w3.org/1999/xlink">
    <!-- Generator: Sketch 55.2 (78181) - https://sketchapp.com -->
    <title>Group 3 Copy</title>
    <desc>Created with Sketch.</desc>
    <g id="页面1" stroke="none" stroke-width="1" fill="none" fill-rule="evenodd">
        <g id="Artboard-Copy-20" transform="translate(-426.000000, -316.000000)">
            <g id="Group-4-Copy-2">
                <g id="Group-4" transform="translate(0.000000, 60.000000)">
                    <g transform="translate(284.000000, 60.000000)" id="Content/Lists/Files/Normal">
                        <g transform="translate(0.000000, 176.000000)">
                            <g id="Group-3-Copy" transform="translate(142.000000, 20.000000)">
                                <path d="M2,0 L39,0 C40.1045695,-2.02906125e-16 41,0.8954305 41,2 L41,14 C41,15.1045695 40.1045695,16 39,16 L2,16 C0.8954305,16 1.3527075e-16,15.1045695 0,14 L0,2 C-1.3527075e-16,0.8954305 0.8954305,2.02906125e-16 2,0 Z" id="Rectangle-3-Copy" fill="#A5A5A5"></path>
                                <path d="M5.508,2 L6.264,2.348 C5.64,3.668 4.644,4.844 3.252,5.864 L3,5.036 C4.152,4.148 4.98,3.14 5.508,2 Z M5.952,4.76 L6.696,5.108 C6.408,5.756 6.048,6.368 5.616,6.944 L5.616,13.016 L4.788,13.016 L4.788,7.904 C4.356,8.36 3.876,8.78 3.36,9.176 L3.108,8.348 C4.404,7.304 5.352,6.104 5.952,4.76 Z M9.996,2.048 L10.824,2.048 L10.824,3.356 L13.524,3.356 L13.524,4.136 L10.824,4.136 L10.824,5.636 L14.016,5.636 L14.016,6.428 L6.864,6.428 L6.864,5.636 L9.996,5.636 L9.996,4.136 L7.32,4.136 L7.32,3.356 L9.996,3.356 L9.996,2.048 Z M6.924,7.892 L11.58,7.892 L11.58,7.004 L12.444,7.004 L12.444,7.892 L13.848,7.892 L13.848,8.696 L12.444,8.696 L12.444,11.78 C12.444,12.56 12.048,12.956 11.28,12.956 L9.576,12.956 L9.384,12.128 C9.936,12.164 10.476,12.188 10.98,12.188 C11.376,12.188 11.58,11.972 11.58,11.564 L11.58,8.696 L6.924,8.696 L6.924,7.892 Z M8.34,9.164 C9.012,9.848 9.528,10.448 9.888,10.952 L9.216,11.432 C8.832,10.88 8.316,10.256 7.668,9.584 L8.34,9.164 Z M25.476,3.86 L25.476,12.896 L24.636,12.896 L24.636,12.092 L22.38,12.092 L22.38,12.896 L21.552,12.896 L21.552,3.86 L25.476,3.86 Z M22.38,11.264 L24.636,11.264 L24.636,4.688 L22.38,4.688 L22.38,11.264 Z M17.136,2.108 L18,2.108 L18,4.532 L20.448,4.532 C20.448,8.276 20.388,10.592 20.268,11.48 C20.148,12.464 19.56,12.968 18.504,12.968 C18.324,12.968 18.024,12.944 17.592,12.92 L17.376,12.128 C17.76,12.152 18.096,12.176 18.384,12.176 C18.996,12.176 19.356,11.828 19.452,11.144 C19.524,10.52 19.572,8.588 19.596,5.372 L18,5.372 C17.952,8.912 17.16,11.492 15.624,13.124 L14.988,12.56 C16.38,11.06 17.1,8.66 17.136,5.372 L15.216,5.372 L15.216,4.532 L17.136,4.532 L17.136,2.108 Z M32.016,4.856 C31.464,3.848 30.804,3.08 30.036,2.528 L30.756,2.072 C31.824,2.816 32.724,4.172 33.468,6.116 C34.596,8.984 36.096,11.012 37.992,12.2 L37.452,12.896 C35.508,11.72 33.924,9.536 32.688,6.368 C32.616,6.176 32.556,6.008 32.496,5.864 C31.704,8.924 30.048,11.276 27.528,12.908 L27.012,12.176 C29.58,10.496 31.248,8.048 32.016,4.856 Z" id="待加入" fill="#FFFFFF" fill-rule="nonzero"></path>
                            </g>
                        </g>
                    </g>
                </g>
            </g>
        </g>
    </g>
</svg>