<?xml version="1.0" encoding="UTF-8" standalone="no"?>
<svg width="24px" height="24px" viewBox="0 0 24 24" version="1.1" xmlns="http://www.w3.org/2000/svg" xmlns:xlink="http://www.w3.org/1999/xlink">
    <!-- Generator: Sketch 47.1 (45422) - http://www.bohemiancoding.com/sketch -->
    <title>icon-sort</title>
    <desc>Created with Sketch.</desc>
    <defs></defs>
    <g id="Page-1" stroke="none" stroke-width="1" fill="none" fill-rule="evenodd">
        <g id="Group-6" transform="translate(4.000000, 4.000000)">
            <path d="M1,4 L1,15 L12,15 L12,4 L1,4 Z" id="Rectangle-9" stroke="#484848" stroke-width="2"></path>
            <path d="M4,-3.55271368e-15 L15,-3.55271368e-15 L15,-3.66373598e-15 C15.5522847,-2.78413425e-15 16,0.44771525 16,1 L16,12 L16,12 C16,12.5522847 15.5522847,13 15,13 L3,13 L3,1 L3,1 C3,0.44771525 3.44771525,-3.56228292e-15 4,-3.66373598e-15 Z M3,13 L14,13 L14,2 L3,2 L3,13 Z" id="ic_photo_nor" fill="#484848"></path>
            <rect id="Rectangle-15" fill="#484848" x="4" y="7" width="5" height="2"></rect>
            <rect id="Rectangle-15" fill="#484848" x="4" y="10" width="3" height="2"></rect>
        </g>
    </g>
</svg>