<svg width="128" height="128" viewBox="0 0 128 128" xmlns="http://www.w3.org/2000/svg"><title>icon-doc-create</title><g fill="none" fill-rule="evenodd"><g transform="translate(12 5)"><path d="M2 0h77.199a2 2 0 0 1 1.38.553l20.802 19.856a2 2 0 0 1 .619 1.447V114a2 2 0 0 1-2 2H2a2 2 0 0 1-2-2V2a2 2 0 0 1 2-2z" fill="#FFF"/><path d="M2 1a1 1 0 0 0-1 1v112a1 1 0 0 0 1 1h98a1 1 0 0 0 1-1V21.856a1 1 0 0 0-.31-.724L79.89 1.277A1 1 0 0 0 79.198 1H2zm0-1h77.199a2 2 0 0 1 1.38.553l20.802 19.856a2 2 0 0 1 .619 1.447V114a2 2 0 0 1-2 2H2a2 2 0 0 1-2-2V2a2 2 0 0 1 2-2z" fill="#DEDEDE" fill-rule="nonzero"/><circle fill="#4988EA" cx="92" cy="100" r="20"/><path d="M94 98v-8h-4v8h-8v4h8v8h4v-8h8v-4h-8z" fill="#FFF"/><path d="M45.664 42.8l-6.79-23.082a1 1 0 0 0-.958-.718h-4.504a1 1 0 0 0-.96.718L25.665 42.8l-6.79-23.082a1 1 0 0 0-.958-.718H14a1 1 0 0 0-.96 1.282l9.413 32a1 1 0 0 0 .959.718h4.504a1 1 0 0 0 .959-.718L35.664 29.2l6.789 23.082a1 1 0 0 0 .959.718h4.504a1 1 0 0 0 .959-.718l9.412-32a1 1 0 0 0-.96-1.282h-3.915a1 1 0 0 0-.96.718L45.665 42.8z" fill="#4988EA"/></g></g></svg>