<?xml version="1.0" encoding="UTF-8"?>
<svg width="24px" height="24px" viewBox="0 0 24 24" version="1.1" xmlns="http://www.w3.org/2000/svg" xmlns:xlink="http://www.w3.org/1999/xlink">
    <!-- Generator: Sketch 49.1 (51147) - http://www.bohemiancoding.com/sketch -->
    <title>navic/photo_select</title>
    <desc>Created with Sketch.</desc>
    <defs></defs>
    <g id="navic/photo_select" stroke="none" stroke-width="1" fill="none" fill-rule="evenodd">
        <g id="ic_photo_select">
            <rect id="Rectangle-8" x="0" y="0" width="24" height="24"></rect>
            <path d="M16.8212165,18.9545455 C16.8212165,19.1854621 17.0534028,19.5727924 17.5177755,20.1165364 C17.6832039,20.3102575 17.6908977,20.6338837 17.5349532,20.839385 C17.457173,20.9418825 17.3488004,20.9999861 17.235406,20.9999861 L14.7646143,20.9999861 L14.7646143,21 C14.5372535,21 14.3529412,20.77105 14.3529412,20.4886259 C14.3529412,20.348276 14.3993791,20.214095 14.4813714,20.1175302 C14.9435029,19.5732643 15.1745687,19.1856027 15.1745687,18.9545455 L15.1764706,18.9545455 C15.1920539,18.3421451 14.2839238,17.7728069 13.2913985,17.1498361 C10.8529193,15.8384861 9,12.9283121 9,10.0434785 C9,6.15347272 12.1340068,3 16,3 C19.8659932,3 23,6.15347272 23,10.0434785 C23,12.9283121 21.1470807,15.8384861 18.7086015,17.1498361 C17.7160762,17.7728069 16.8079461,18.3421451 16.8235294,18.9545455 L16.8212165,18.9545455 Z M8.49059444,5.05711675 C7.54847609,6.4868987 7,8.20115927 7,10.0434785 C7,12.9151159 8.4289518,15.8094434 10.613457,17.7094086 C10.1539148,18.1430154 9.84418145,18.5438567 9.9228153,18.8994481 L9.53680712,18.9616115 L9.92065313,18.8997963 C9.95955761,19.1014513 10.2418675,19.4047448 10.7675829,19.8096767 C10.954867,19.9539451 11.0165834,20.2354034 10.9054255,20.4383405 C10.8499834,20.5395591 10.7584634,20.6066149 10.6524596,20.6236859 L8.34270697,20.9956527 C8.13016722,21.029893 7.91929466,20.8577028 7.87171228,20.6110673 C7.84806635,20.4885024 7.86887092,20.3643337 7.92925013,20.2676619 C8.26956419,19.7227931 8.42025714,19.3494697 8.38132896,19.1476918 L8.76803402,19.0854161 L8.38310693,19.1474055 C8.29449825,18.610262 7.34963622,18.2497849 6.31684367,17.8551768 C3.8163631,17.0771023 1.59390995,14.814652 1.10787758,12.2953822 C0.452495349,8.89831482 2.85094447,5.6726367 6.46496364,5.09062843 C7.15176753,4.98002427 7.83304639,4.97285508 8.49059444,5.05711675 Z" id="Combined-Shape" fill="#2980FF"></path>
        </g>
    </g>
</svg>