<?xml version="1.0" encoding="UTF-8"?>
<svg width="24px" height="24px" viewBox="0 0 24 24" version="1.1" xmlns="http://www.w3.org/2000/svg" xmlns:xlink="http://www.w3.org/1999/xlink">
    <!-- Generator: Sketch 52.3 (67297) - http://www.bohemiancoding.com/sketch -->
    <title>icon-note-link</title>
    <desc>Created with Sketch.</desc>
    <g id="Page-1" stroke="none" stroke-width="1" fill="none" fill-rule="evenodd">
        <g id="ico_note_little" transform="translate(1.000000, 5.000000)">
            <path d="M2,0 L20,0 C21.1045695,-2.02906125e-16 22,0.8954305 22,2 L22,12 C22,13.1045695 21.1045695,14 20,14 L2,14 C0.8954305,14 1.3527075e-16,13.1045695 0,12 L0,2 C-1.3527075e-16,0.8954305 0.8954305,2.02906125e-16 2,0 Z" id="Rectangle-68" fill="#2980FF"></path>
            <g id="分组" transform="translate(11.000000, 7.000000) rotate(-45.000000) translate(-11.000000, -7.000000) translate(5.000000, 4.000000)" fill="#FFFFFF" fill-rule="nonzero">
                <path d="M3.50168323,5 C3.70581321,5.37640519 3.96579444,5.71403623 4.26953963,6 L2.85714286,6 C1.27918643,6 0,4.65685425 0,3 C0,1.34314575 1.27918643,0 2.85714286,0 L5.14285714,0 C6.72081357,0 8,1.34314575 8,3 L7,3 C7,1.8954305 6.19411255,1 5.2,1 L2.8,1 C1.80588745,1 1,1.8954305 1,3 C1,4.1045695 1.80588745,5 2.8,5 L3.50168323,5 Z" id="合并形状"></path>
                <path d="M7.50168323,5 C7.70581321,5.37640519 7.96579444,5.71403623 8.26953963,6 L6.85714286,6 C5.27918643,6 4,4.65685425 4,3 C4,1.34314575 5.27918643,0 6.85714286,0 L9.14285714,0 C10.7208136,0 12,1.34314575 12,3 L11,3 C11,1.8954305 10.1941125,1 9.2,1 L6.8,1 C5.80588745,1 5,1.8954305 5,3 C5,4.1045695 5.80588745,5 6.8,5 L7.50168323,5 Z" id="合并形状" transform="translate(8.000000, 3.000000) scale(-1, -1) translate(-8.000000, -3.000000) "></path>
            </g>
        </g>
    </g>
</svg>