<?xml version="1.0" encoding="UTF-8"?>
<svg width="24px" height="24px" viewBox="0 0 24 24" version="1.1" xmlns="http://www.w3.org/2000/svg" xmlns:xlink="http://www.w3.org/1999/xlink">
    <!-- Generator: Sketch 52.3 (67297) - http://www.bohemiancoding.com/sketch -->
    <title>icon-audio</title>
    <desc>Created with Sketch.</desc>
    <g id="Page-1" stroke="none" stroke-width="1" fill="none" fill-rule="evenodd">
        <g id="ico_note_little" transform="translate(1.000000, 5.000000)">
            <path d="M2,0 L20,0 C21.1045695,-2.02906125e-16 22,0.8954305 22,2 L22,12 C22,13.1045695 21.1045695,14 20,14 L2,14 C0.8954305,14 1.3527075e-16,13.1045695 0,12 L0,2 C-1.3527075e-16,0.8954305 0.8954305,2.02906125e-16 2,0 Z" id="Rectangle-68" fill="#01BD88"></path>
            <g id="voice" transform="translate(6.000000, 1.000000)">
                <path d="M4.5,0.5 C3.3954305,0.5 2.5,1.3954305 2.5,2.5 L2.5,5.5 C2.5,6.6045695 3.3954305,7.5 4.5,7.5 C5.6045695,7.5 6.5,6.6045695 6.5,5.5 L6.5,2.5 C6.5,1.3954305 5.6045695,0.5 4.5,0.5 Z" id="Rectangle-2" stroke="#FFFFFF"></path>
                <path d="M9.14285714,4.57142857 L9.14285714,5.71428571 L9.14285714,4.57142857 Z M9.10748928,6.28571429 C8.82629038,8.54074947 6.90263866,10.2857143 4.57142857,10.2857143 C2.24021848,10.2857143 0.316566767,8.54074947 0.03536786,6.28571429 L1.19301178,6.28571429 C1.47250735,7.90837193 2.88664519,9.14285714 4.5891125,9.14285714 C6.29157981,9.14285714 7.70571765,7.90837193 7.98521322,6.28571429 L9.10748928,6.28571429 Z" id="Combined-Shape" fill="#FFFFFF"></path>
                <path d="M0.54,5.71428571 L0.69,5.71428571 C0.966142375,5.71428571 1.19,5.93814334 1.19,6.21428571 L1.19,6.28571429 L0.04,6.28571429 L0.04,6.21428571 C0.04,5.93814334 0.263857625,5.71428571 0.54,5.71428571 Z" id="Rectangle-4" fill="#FFFFFF"></path>
                <path d="M8.5,5.71428571 L8.64285714,5.71428571 C8.91899952,5.71428571 9.14285714,5.93814334 9.14285714,6.21428571 L9.14285714,6.28571429 L8,6.28571429 L8,6.21428571 C8,5.93814334 8.22385763,5.71428571 8.5,5.71428571 Z" id="Rectangle-4" fill="#FFFFFF"></path>
                <path d="M4.5,9.14285714 L4.64285714,9.14285714 C4.91899952,9.14285714 5.14285714,9.36671477 5.14285714,9.64285714 L5.14285714,11.5 C5.14285714,11.7761424 4.91899952,12 4.64285714,12 L4.5,12 C4.22385763,12 4,11.7761424 4,11.5 L4,9.64285714 C4,9.36671477 4.22385763,9.14285714 4.5,9.14285714 Z" id="Rectangle-6" fill="#FFFFFF"></path>
            </g>
        </g>
    </g>
</svg>