<?xml version="1.0" encoding="UTF-8"?>
<svg width="24px" height="24px" viewBox="0 0 24 24" version="1.1" xmlns="http://www.w3.org/2000/svg" xmlns:xlink="http://www.w3.org/1999/xlink">
    <!-- Generator: Sketch 49.1 (51147) - http://www.bohemiancoding.com/sketch -->
    <title>navic/share_select</title>
    <desc>Created with Sketch.</desc>
    <defs></defs>
    <g id="navic/share_select" stroke="none" stroke-width="1" fill="none" fill-rule="evenodd">
        <g id="ic_share_select">
            <rect id="Rectangle-48" x="0" y="0" width="24" height="24"></rect>
            <path d="M14,17.8571429 L13.3529412,17.8571429 C12.1434306,17.8571429 10.8123204,18.2182613 9.95192813,18.7427368 C9.09153581,19.2672123 8.80258527,19.6393511 8.80258527,19.6393511 C8.12592664,20.2600715 7.82193254,20.0626253 8.10641286,19.1773244 C8.10641286,19.1773244 8.47844152,17.0336364 10.5517268,15.493345 C11.1890236,15.0198826 11.7076511,14.6704226 12.5294118,14.4228658 C13.0059517,14.2871449 13.5003701,14.1619183 14,14.0835359 L14,11.9715947 C14,11.6954523 14.2238576,11.4715947 14.5,11.4715947 C14.6042115,11.4715947 14.7058187,11.5041562 14.7906191,11.5647279 L20.4303866,15.5931333 C20.6550929,15.7536378 20.7071387,16.0659128 20.5466342,16.2906191 C20.5145644,16.3355169 20.4752843,16.3747969 20.4303866,16.4068667 L14.7906191,20.4352721 C14.5659128,20.5957766 14.2536378,20.5437307 14.0931333,20.3190244 C14.0325616,20.2342241 14,20.1326168 14,20.0284053 L14,17.8571429 Z M19,12.1136214 L15.1522915,9.36525813 C14.8149165,9.12427599 14.4109885,8.99409806 13.9963894,8.99273394 C12.8918201,8.98909966 11.9934435,9.88158387 11.9898093,10.9861532 L11.9898198,10.9861532 C11.9865027,11.994337 11.9837583,12.4987381 11.9815867,12.4993566 C10.9699858,12.8038635 10.3221931,13.1723375 9.35901058,13.887908 C8.79828746,14.3044821 8.30612248,14.7748611 7.87945133,15.2883284 C7.26046858,16.0332284 6.80814533,16.8295793 6.49366427,17.6304289 C6.32704947,18.0547259 6.22200465,18.4171129 6.16324108,18.6939884 C6.0281635,19.1655086 5.99325594,19.6052088 6.03909554,20 L5,20 C4.44771525,20 4,19.5522847 4,19 L4,4 C4,3.44771525 4.44771525,3 5,3 L14.6268482,3 C14.8942016,3 15.1504224,3.10705662 15.3383008,3.29726594 L18.7114526,6.71226726 C18.8963285,6.89943681 19,7.15192048 19,7.41500131 L19,12.1136214 Z" id="Combined-Shape" fill="#2980FF"></path>
        </g>
    </g>
</svg>