<svg width="24" height="24" viewBox="0 0 24 24" xmlns="http://www.w3.org/2000/svg"><title>icon-thumbnail</title><g fill="none" fill-rule="evenodd"><path d="M2 2h20v20H2z"/><path d="M16.998 14.37V5.001h-2.004v12.958a.987.987 0 0 0 .492.902 1.006 1.006 0 0 0 1.38-.348l3.492-5.875-1.735-1.002-1.625 2.734zM4 5.99c0-.546.446-.99.998-.99h7.004a1 1 0 0 1 .998.99v4.02c0 .546-.446.99-.998.99H4.998A.999.999 0 0 1 4 10.01V5.99zm0 8c0-.546.446-.99.998-.99h7.004a1 1 0 0 1 .998.99v4.02c0 .546-.446.99-.998.99H4.998A.999.999 0 0 1 4 18.01v-4.02zM6 7v2h5V7H6zm0 8v2h5v-2H6z" fill="#484848"/></g></svg>