<?xml version="1.0" encoding="UTF-8"?>
<svg width="24px" height="24px" viewBox="0 0 24 24" version="1.1" xmlns="http://www.w3.org/2000/svg" xmlns:xlink="http://www.w3.org/1999/xlink">
    <!-- Generator: Sketch 49 (51002) - http://www.bohemiancoding.com/sketch -->
    <title>icon-bt-s</title>
    <desc>Created with Sketch.</desc>
    <defs></defs>
    <g id="icon-bt-s" stroke="none" stroke-width="1" fill="none" fill-rule="evenodd">
        <g id="ico_new_bt">
            <rect id="Rectangle-5" x="0" y="0" width="24" height="24"></rect>
            <path d="M19.5,20 C18.1192881,20 17,18.8807119 17,17.5 L17,13 L15,13 L15,10 L17,10 L17,8 L20,8 L20,10 L22,10 L22,13 L20,13 L20,15.0500091 L20,17 L22,17 L22,20 L19.5,20 Z M4,17 L4,7 L4,4 L8.5,4 C10.9852814,4 13,6.01471863 13,8.5 C13,9.47859514 12.68763,10.3842324 12.1571599,11.1226416 C13.2817882,12.0394835 14,13.4358681 14,15 C14,17.7614237 11.7614237,20 9,20 L4,20 L4,17 Z M7,7 L7,10 L8.50142398,10 C9.33497024,10 10,9.32842712 10,8.5 C10,7.66579723 9.32906466,7 8.50142398,7 L7,7 Z M7,13 L7,17 L8.99408095,17 C10.1134452,17 11,16.1045695 11,15 C11,13.8877296 10.1019194,13 8.99408095,13 L7,13 Z" id="Combined-Shape" fill="#FFA72B"></path>
        </g>
    </g>
</svg>