<?xml version="1.0" encoding="UTF-8"?>
<svg width="42px" height="16px" viewBox="0 0 42 16" version="1.1" xmlns="http://www.w3.org/2000/svg" xmlns:xlink="http://www.w3.org/1999/xlink">
    <!-- Generator: Sketch 50.2 (55047) - http://www.bohemiancoding.com/sketch -->
    <title>Group 3</title>
    <desc>Created with Sketch.</desc>
    <defs></defs>
    <g id="Page-1" stroke="none" stroke-width="1" fill="none" fill-rule="evenodd">
        <g id="群组-普通视角" transform="translate(-660.000000, -266.000000)">
            <g id="Group-3" transform="translate(660.000000, 266.000000)">
                <rect id="Rectangle-3-Copy" fill="#01BD88" x="0" y="0" width="42" height="16" rx="2"></rect>
                <path d="M12.432,6.936 L12.432,9.288 L6.444,9.288 L6.444,10.116 L12.984,10.116 L12.984,13.2 L12.132,13.2 L12.132,12.696 L6.444,12.696 L6.444,13.188 L5.58,13.188 L5.58,6.936 L12.432,6.936 Z M6.444,11.928 L12.132,11.928 L12.132,10.812 L6.444,10.812 L6.444,11.928 Z M6.444,8.592 L11.592,8.592 L11.592,7.632 L6.444,7.632 L6.444,8.592 Z M14.088,5.484 L14.088,7.656 L13.248,7.656 L13.248,6.228 L4.752,6.228 L4.752,7.656 L3.912,7.656 L3.912,5.484 L8.664,5.484 C8.544,5.196 8.424,4.944 8.292,4.704 L9.132,4.56 L9.06,4.512 C9.636,3.792 10.044,3.012 10.308,2.148 L11.136,2.328 C11.052,2.58 10.968,2.82 10.872,3.06 L14.34,3.06 L14.34,3.816 L12.204,3.816 C12.456,4.152 12.66,4.464 12.804,4.752 L12.036,5.04 C11.82,4.608 11.568,4.2 11.28,3.816 L10.524,3.816 C10.308,4.224 10.056,4.608 9.792,4.968 L9.144,4.572 C9.276,4.848 9.408,5.148 9.528,5.484 L14.088,5.484 Z M5.352,3.816 C5.064,4.284 4.752,4.716 4.392,5.112 L3.636,4.632 C4.356,3.888 4.884,3.048 5.22,2.136 L6.048,2.316 C5.952,2.58 5.844,2.82 5.748,3.06 L8.964,3.06 L8.964,3.816 L6.948,3.816 C7.212,4.176 7.44,4.524 7.608,4.848 L6.816,5.148 C6.6,4.692 6.336,4.248 6.036,3.816 L5.352,3.816 Z M19.992,2.676 L25.86,2.676 L25.86,8.22 L23.364,8.22 L23.364,9.636 L26.064,9.636 L26.064,10.452 L23.364,10.452 L23.364,12.012 L26.508,12.012 L26.508,12.84 L19.284,12.84 L19.284,12.012 L22.5,12.012 L22.5,10.452 L19.788,10.452 L19.788,9.636 L22.5,9.636 L22.5,8.22 L19.992,8.22 L19.992,2.676 Z M25.032,7.452 L25.032,5.832 L23.364,5.832 L23.364,7.452 L25.032,7.452 Z M22.5,7.452 L22.5,5.832 L20.82,5.832 L20.82,7.452 L22.5,7.452 Z M20.82,5.076 L22.5,5.076 L22.5,3.444 L20.82,3.444 L20.82,5.076 Z M23.364,3.444 L23.364,5.076 L25.032,5.076 L25.032,3.444 L23.364,3.444 Z M15.756,6.648 L17.064,6.648 L17.064,3.804 L15.588,3.804 L15.588,2.988 L19.416,2.988 L19.416,3.804 L17.952,3.804 L17.952,6.648 L19.272,6.648 L19.272,7.476 L17.952,7.476 L17.952,10.2 C18.408,10.044 18.84,9.876 19.272,9.684 L19.272,10.524 C18.168,10.98 16.98,11.364 15.708,11.676 L15.492,10.848 C16.02,10.752 16.548,10.632 17.064,10.488 L17.064,7.476 L15.756,7.476 L15.756,6.648 Z M37.044,6.552 L37.044,11.028 L36.192,11.028 L36.192,7.344 L29.82,7.344 L29.82,11.172 L28.968,11.172 L28.968,6.552 L37.044,6.552 Z M29.688,2.64 L36.324,2.64 L36.324,5.652 L29.688,5.652 L29.688,2.64 Z M35.484,4.896 L35.484,3.408 L30.528,3.408 L30.528,4.896 L35.484,4.896 Z M32.676,8.124 L33.552,8.196 C33.384,9.96 33.012,11.148 32.436,11.772 C31.812,12.516 30.384,12.996 28.152,13.2 L27.816,12.42 C29.76,12.3 31.056,11.916 31.692,11.256 C32.244,10.644 32.58,9.6 32.676,8.124 Z M33.864,10.908 C35.424,11.352 36.852,11.892 38.148,12.516 L37.68,13.236 C36.3,12.516 34.884,11.964 33.432,11.556 L33.864,10.908 Z" id="管理员" fill="#FFFFFF"></path>
            </g>
        </g>
    </g>
</svg>