<?xml version="1.0" encoding="UTF-8"?>
<svg width="32px" height="32px" viewBox="0 0 32 32" version="1.1" xmlns="http://www.w3.org/2000/svg" xmlns:xlink="http://www.w3.org/1999/xlink">
    <!-- Generator: Sketch 51.2 (57519) - http://www.bohemiancoding.com/sketch -->
    <title>icon-mac-m</title>
    <desc>Created with Sketch.</desc>
    <defs></defs>
    <g id="Page-1" stroke="none" stroke-width="1" fill="none" fill-rule="evenodd">
        <g id="web_download_ic_mac-copy" transform="translate(4.000000, 4.000000)" fill="#666666">
            <g id="Group-6" transform="translate(3.000000, 1.000000)">
                <path d="M12.4209717,3.6274783 C13.1364906,2.70928962 13.6796415,1.41211981 13.4825755,0.0866198113 C12.3143962,0.166836792 10.9466604,0.911516038 10.1485377,1.88034623 C9.42367925,2.76045 8.82573585,4.06571415 9.05891509,5.33403491 C10.3349151,5.37378019 11.6548113,4.61166698 12.4209717,3.6274783" id="Fill-4"></path>
                <path d="M18.740617,16.0871991 C18.2290132,17.2225858 17.982966,17.7288972 17.3239,18.7325953 C16.4040509,20.1335387 15.1072962,21.878284 13.500466,21.8928123 C12.0719189,21.9061991 11.7050792,20.9633123 9.76700377,20.9738972 C7.82903208,20.9843783 7.42441887,21.909416 5.99628679,21.896133 C4.3898717,21.8815009 3.16077736,20.3062179 2.24061698,18.9052745 C-0.332656604,14.9886519 -0.601845283,10.3909632 0.984749057,7.9474066 C2.11256038,6.21044434 3.89165472,5.19418962 5.56500377,5.19418962 C7.2679283,5.19418962 8.33897547,6.12815189 9.74718302,6.12815189 C11.1132585,6.12815189 11.9455226,5.19263302 13.9147302,5.19263302 C15.4036736,5.19263302 16.9805132,6.00289717 18.1050038,7.40425566 C14.4222868,9.42213302 15.0201264,14.6813783 18.740617,16.0871991" id="Fill-1"></path>
            </g>
        </g>
    </g>
</svg>