<?xml version="1.0" encoding="UTF-8"?>
<svg width="24px" height="24px" viewBox="0 0 24 24" version="1.1" xmlns="http://www.w3.org/2000/svg" xmlns:xlink="http://www.w3.org/1999/xlink">
    <!-- Generator: Sketch 55.2 (78181) - https://sketchapp.com -->
    <title>icon-admin-disable</title>
    <desc>Created with Sketch.</desc>
    <g id="组件" stroke="none" stroke-width="1" fill="none" fill-rule="evenodd">
        <g id="Bar/Action-Bar/↳Elements/icons/edit复制备份-5" transform="translate(2.000000, 2.000000)">
            <g id="ic_edit_nor">
                <rect id="Rectangle-50" x="0" y="0" width="20" height="20"></rect>
                <path d="M12.889678,10.9978115 L10.8879007,10.9978115 C10.8757801,10.4906266 11.0306463,9.98431698 11.3578105,9.54917505 L11.3636482,9.54118732 L11.4079048,9.48319777 C11.8933634,8.89304115 12.1838564,8.04269663 12.1838564,7.11764706 C12.1838564,5.34777171 11.1417402,4 10.0000333,4 C8.85832635,4 7.81621015,5.34777171 7.81621015,7.11764706 C7.81621015,8.04241064 8.10652236,8.89252324 8.63430027,9.53831431 L8.64225596,9.54917505 C9.42022086,10.5839004 9.22393978,12.0210378 8.12482436,12.9154599 C7.43709878,13.4751071 6.53218035,14.1281556 5.7195531,14.6644192 C5.19992069,15.0073315 4.9912357,15.3635465 5.00077216,15.6857753 L5.00077216,16 L10.0360723,16 L10.0360723,18 L4.50077216,18 C3.67234503,18 3.00077216,17.3284271 3.00077216,16.5 L3.00125527,15.7168555 C2.96930511,14.6893633 3.54832357,13.7010075 4.61796942,12.9951339 C5.37870395,12.493115 6.23109367,11.8779747 6.8624571,11.364193 C7.13758134,11.1403064 7.16813452,10.9166011 7.04368154,10.7510735 C7.02864099,10.7308911 7.02497615,10.7259734 7.03405614,10.7370861 L7.03802356,10.7420808 C6.25707,9.78654778 5.81621015,8.4904493 5.81621015,7.11764706 C5.81621015,4.33929506 7.62498627,2 10.0000333,2 C12.3750802,2 14.1838564,4.33929506 14.1838564,7.11764706 C14.1838564,8.48369234 13.7473241,9.77378144 12.9735652,10.7279278 C12.969369,10.7336344 12.9644887,10.7401892 12.956385,10.7510735 C12.9017483,10.8237424 12.8769866,10.9076242 12.889678,10.9978115 Z M15.9497475,15.5355339 L18.0710678,17.6568542 L16.6568542,19.0710678 L14.5355339,16.9497475 L12.4142136,19.0710678 L11,17.6568542 L13.1213203,15.5355339 L11,13.4142136 L12.4142136,12 L14.5355339,14.1213203 L16.6568542,12 L18.0710678,13.4142136 L15.9497475,15.5355339 Z" id="形状结合备份-2" fill="#60686D" fill-rule="nonzero"></path>
            </g>
        </g>
    </g>
</svg>