<?xml version="1.0" encoding="UTF-8"?>
<svg width="24px" height="24px" viewBox="0 0 24 24" version="1.1" xmlns="http://www.w3.org/2000/svg" xmlns:xlink="http://www.w3.org/1999/xlink">
    <!-- Generator: Sketch 53.2 (72643) - https://sketchapp.com -->
    <title>icon-vip</title>
    <desc>Created with Sketch.</desc>
    <g id="Page-1" stroke="none" stroke-width="1" fill="none" fill-rule="evenodd">
        <g id="Artboard" transform="translate(-43.000000, -30.000000)">
            <g id="icon-vip" transform="translate(43.000000, 30.000000)">
                <rect id="Rectangle" x="0" y="0" width="24" height="24"></rect>
                <path d="M17.1977192,17.8712893 C17.3886685,17.7133835 17.5730334,17.5478211 17.7495681,17.3737014 C19.4243343,15.7219509 20.3467815,13.4584843 20.3467815,11 C20.3467815,10.7439098 20.3368159,10.4907921 20.3181303,10.240737 C21.2869356,11.0281042 21.9088112,12.2357728 21.9088112,13.5885562 C21.9088112,16.1145986 20.1154357,17.7269852 17.1977192,17.8712893 L17.1977192,17.8712893 Z M7.92786754,17.8829994 C6.00271387,17.8829994 4.45198461,17.4112637 3.44340553,16.5186861 C2.55877446,15.7358228 2.09118884,14.6235462 2.09118884,13.3020197 C2.09118884,11.9042877 2.58048538,10.6909442 3.46885358,9.88547151 C4.15603983,9.26249575 5.0257224,8.93146106 5.95475408,8.93146106 C6.10165872,8.93146106 6.250076,8.93974818 6.39947206,8.95641251 C7.50281397,9.07981864 8.36039536,9.61019477 8.75252664,10.4114338 C9.04028533,10.9996397 9.02453601,11.641892 8.7091048,12.1734392 C8.4637002,12.5870749 8.12993927,12.8420842 7.71716483,12.931351 C7.24041435,13.0347599 6.66124882,12.9099125 6.24144502,12.6138279 L5.19451592,14.4497868 C6.07078294,15.0094381 7.16362531,15.2158957 8.15440855,15.0016915 C9.14234445,14.7878475 9.95401259,14.1867606 10.5017685,13.2634666 C11.1812135,12.1182217 11.2277496,10.7007627 10.6262503,9.47165562 C9.98479939,8.1605781 8.74505239,7.25710111 7.17741708,6.93822688 C7.43065185,6.37452209 7.79021674,5.87387153 8.24917138,5.45122806 C9.18389773,4.59080809 10.4968746,4.11700062 11.9464345,4.11700062 C13.6734316,4.11700062 15.2682055,4.82221711 16.4369471,6.10284845 C17.6097818,7.38771343 18.2556817,9.12701924 18.2556817,11 C18.2556817,12.8824389 17.55764,14.6075125 16.2903984,15.8573373 C14.9465458,17.1824669 13.0959566,17.8829994 10.9388342,17.8829994 L7.92786754,17.8829994 Z M19.7192113,7.52490142 C18.4740366,4.2513962 15.501064,2 11.9464345,2 C9.97545657,2 8.16277259,2.66936565 6.84223249,3.88496107 C5.959381,4.69782013 5.32042146,5.73181936 4.96583941,6.89589047 C3.89524184,7.07748664 2.9018782,7.55777969 2.07374892,8.3084853 C0.736480725,9.520928 0,11.2943732 0,13.3020197 C0,15.252377 0.714769803,16.9158376 2.06707548,18.1126068 C3.4623581,19.3472987 5.48894804,20 7.92786754,20 L10.9388342,20 C10.9537827,20 10.9685533,19.9995496 10.9834128,19.9994595 L10.9834128,20 L16.7651024,20 C21.0924271,20 24,17.4233341 24,13.5885562 C24,10.7804812 22.2068025,8.38991533 19.7192113,7.52490142 L19.7192113,7.52490142 Z" id="tips/ic/vip" fill="#DBB34E"></path>
            </g>
        </g>
    </g>
</svg>