<svg width="24" height="24" viewBox="0 0 24 24" xmlns="http://www.w3.org/2000/svg"><title>icon-sync-act</title><g fill="none" fill-rule="evenodd"><path d="M2 2h20v20H2z"/><path d="M19.153 15.577a1 1 0 0 1-1.785-.893A5.987 5.987 0 0 0 18 12a6 6 0 0 0-8.684-5.368l-.894-1.789a8.004 8.004 0 0 1 11.212 4.756l.443-.995 1.827.813-2.484 5.58c-.08.198-.168.392-.263.581l-.004-.001zM6.585 9.414a6 6 0 0 0 8.1 7.954l.893 1.789a8.004 8.004 0 0 1-11.213-4.758l-.449 1.009-1.827-.813 2.507-5.631c.06-.144.123-.286.19-.426l.007-.015a1.013 1.013 0 0 1 .05-.101l.004.001a1 1 0 0 1 1.785.893 5.979 5.979 0 0 0-.047.098z" fill="#00A4FF"/></g></svg>