<svg width="24" height="17" viewBox="0 0 24 17" xmlns="http://www.w3.org/2000/svg"><title>icon-vip-s</title><g fill="none" fill-rule="evenodd"><path d="M0-3h24v24H0z"/><path d="M20.612 8.285a4.184 4.184 0 1 1-1.115 8.274 4.151 4.151 0 0 1-2.474-1.036 7.924 7.924 0 0 1-9.195-.046c-1.574 1.57-4.497 1.288-6.03-.038C-.454 13.487-.34 10.77.775 8.941c.423-.694 1.592-2.221 3.769-2.413l.048-.217a.702.702 0 0 1 .008-.032C5.573 2.641 8.806.1 12.46.1c4.417 0 8.022 3.65 8.15 8.186zm1.811 4.28a2.657 2.657 0 0 0-1.902-2.729 8.522 8.522 0 0 1-2.315 4.68c.402.298.883.48 1.395.515a2.654 2.654 0 0 0 2.822-2.465zm-13.772 1.62a6.465 6.465 0 0 0 3.81 1.253c3.656 0 6.63-3.097 6.63-6.904s-2.974-6.904-6.63-6.904c-2.96 0-5.583 2.068-6.383 5.03l-.174.783a.759.759 0 0 1-.771.598C3.347 7.986 2.4 9.208 2.077 9.738c-.72 1.184-.965 3.084.72 4.543 1.22 1.056 3.224.912 4.009.053.396-.433.578-.975.512-1.526-.057-.483-.303-.902-.674-1.151-.297-.2-.732-.25-1.082-.126-.249.09-.41.247-.477.469a.763.763 0 1 1-1.46-.447c.21-.69.716-1.21 1.425-1.463a2.782 2.782 0 0 1 2.444.295c.741.497 1.23 1.314 1.34 2.24a3.386 3.386 0 0 1-.183 1.56zm6.664-9.302c.333 0 .64.2.77.52a.876.876 0 0 1-.008.65l-2.635 6.691a.396.396 0 0 1-.368.252h-.91a.396.396 0 0 1-.368-.252L9.156 6.04a.833.833 0 0 1 1.54-.63l1.923 4.86 1.923-4.861a.827.827 0 0 1 .773-.526z" fill="#00A4FF"/></g></svg>