<?xml version="1.0" encoding="UTF-8"?>
<svg width="24px" height="24px" viewBox="0 0 24 24" version="1.1" xmlns="http://www.w3.org/2000/svg" xmlns:xlink="http://www.w3.org/1999/xlink">
    <!-- Generator: Sketch 49.1 (51147) - http://www.bohemiancoding.com/sketch -->
    <title>navic/_recycle_nor</title>
    <desc>Created with Sketch.</desc>
    <defs></defs>
    <g id="navic/_recycle_nor" stroke="none" stroke-width="1" fill="none" fill-rule="evenodd">
        <g id="ic_recycle_nor">
            <rect id="Rectangle-44" x="0" y="0" width="24" height="24"></rect>
            <path d="M15,5 L20,5 L20,7 L19,7 L19,19 C19,19.5522847 18.5522847,20 18,20 L6,20 C5.44771525,20 5,19.5522847 5,19 L5,7 L4,7 L4,5 L9,5 L9,4 L15,4 L15,5 Z M9,9 L9,16 L11,16 L11,9 L9,9 Z M13,9 L13,16 L15,16 L15,9 L13,9 Z" id="ic_recycle_select" fill="#7C878E"></path>
        </g>
    </g>
</svg>