<?xml version="1.0" encoding="UTF-8" standalone="no"?>
<svg width="16px" height="16px" viewBox="0 0 16 16" version="1.1" xmlns="http://www.w3.org/2000/svg" xmlns:xlink="http://www.w3.org/1999/xlink">
    <!-- Generator: Sketch 47.1 (45422) - http://www.bohemiancoding.com/sketch -->
    <title>icon-trig-light</title>
    <desc>Created with Sketch.</desc>
    <defs></defs>
    <g id="Page-1" stroke="none" stroke-width="1" fill="none" fill-rule="evenodd">
        <g id="Group-5" transform="translate(3.000000, 6.000000)" fill="#262626">
            <g id="Group-8">
                <path d="M5,2.56840888 L2.73865228,0.307061161 L2.73865228,0.307061161 C2.34812799,-0.0834631307 1.71496301,-0.0834631307 1.32443872,0.307061161 L1.32443872,0.307061161 L1.27418619,0.357313693 C0.883661899,0.747837985 0.883661899,1.38100296 1.27418619,1.77152726 L4.19559777,4.69293884 C4.41563608,4.91297714 4.71270512,5.00903633 5,4.98111641 C5.28729488,5.00903633 5.58436392,4.91297714 5.80440223,4.69293884 L8.72581381,1.77152726 C9.1163381,1.38100296 9.1163381,0.747837985 8.72581381,0.357313693 L8.67556128,0.307061161 L8.67556128,0.307061161 C8.28503699,-0.0834631307 7.65187201,-0.0834631307 7.26134772,0.307061161 L7.26134772,0.307061161 L5,2.56840888 Z" id="Combined-Shape"></path>
            </g>
        </g>
    </g>
</svg>