<?xml version="1.0" encoding="UTF-8"?>
<svg width="24px" height="24px" viewBox="0 0 24 24" version="1.1" xmlns="http://www.w3.org/2000/svg" xmlns:xlink="http://www.w3.org/1999/xlink">
    <!-- Generator: Sketch 63.1 (92452) - https://sketch.com -->
    <title>Bar/Navigation Bar/↳Elements/List/icons/clean_select</title>
    <desc>Created with Sketch.</desc>
    <g id="Bar/Navigation-Bar/↳Elements/List/icons/clean_select" stroke="none" stroke-width="1" fill="none" fill-rule="evenodd">
        <g id="ic_doc_select">
            <rect id="Rectangle-7" x="0" y="0" width="24" height="24"></rect>
        </g>
        <path d="M12.466658,2 C12.6507529,2 12.7999913,2.14923842 12.7999913,2.33333333 L12.7998655,9.692 L16.2946681,9.69230769 C16.6382911,9.69230769 16.9256225,9.95348972 16.9583113,10.2955543 L18.0070588,21.2699133 C18.0420847,21.6364333 17.7733556,21.9619507 17.4068356,21.9969766 C17.3857556,21.998991 17.3645916,22 17.3434156,22 L6.6565322,22 C6.28834237,22 5.98986553,21.7015232 5.98986553,21.3333333 C5.98986553,21.3121573 5.99087449,21.2909933 5.99288896,21.2699133 L7.04163644,10.2955543 C7.07432531,9.95348972 7.36165668,9.69230769 7.70527967,9.69230769 L11.1998655,9.692 L11.2000093,2.33333333 C11.2000093,2.14923842 11.3492478,2 11.5333427,2 L12.466658,2 Z M9.61764706,17 L9,22 L10.2352941,22 L9.61764706,17 Z M12.5,17 L11.8823529,22 L13.1176471,22 L12.5,17 Z M15.3823529,17 L14.7647059,22 L16,22 L15.3823529,17 Z" id="形状结合" fill="#2980FF"></path>
    </g>
</svg>