<?xml version="1.0" encoding="UTF-8"?>
<svg width="16px" height="16px" viewBox="0 0 16 16" version="1.1" xmlns="http://www.w3.org/2000/svg" xmlns:xlink="http://www.w3.org/1999/xlink">
    <!-- Generator: Sketch 49.2 (51160) - http://www.bohemiancoding.com/sketch -->
    <title>icon-close</title>
    <desc>Created with Sketch.</desc>
    <defs></defs>
    <g id="Page-1" stroke="none" stroke-width="1" fill="none" fill-rule="evenodd">
        <path d="M8.53604597,6.1218324 L11.3627242,3.29515416 C11.7542144,2.90366399 12.3854397,2.90015832 12.7786867,3.29340528 C13.1692109,3.68392957 13.1635218,4.32278372 12.7769378,4.70936773 L9.95025953,7.53604597 L12.7769378,10.3627242 C13.1684279,10.7542144 13.1719336,11.3854397 12.7786867,11.7786867 C12.3881624,12.1692109 11.7493082,12.1635218 11.3627242,11.7769378 L8.53604597,8.95025953 L5.70936773,11.7769378 C5.31787755,12.1684279 4.68665224,12.1719336 4.29340528,11.7786867 C3.90288099,11.3881624 3.90857016,10.7493082 4.29515416,10.3627242 L7.1218324,7.53604597 L4.29515416,4.70936773 C3.90366399,4.31787755 3.90015832,3.68665224 4.29340528,3.29340528 C4.68392957,2.90288099 5.32278372,2.90857016 5.70936773,3.29515416 L8.53604597,6.1218324 Z" id="Combined-Shape" fill="#9B9B9B"></path>
    </g>
</svg>