<?xml version="1.0" encoding="UTF-8"?>
<svg width="24px" height="24px" viewBox="0 0 24 24" version="1.1" xmlns="http://www.w3.org/2000/svg" xmlns:xlink="http://www.w3.org/1999/xlink">
    <!-- Generator: Sketch 52.3 (67297) - http://www.bohemiancoding.com/sketch -->
    <title>icon-md</title>
    <desc>Created with Sketch.</desc>
    <g id="Page-1" stroke="none" stroke-width="1" fill="none" fill-rule="evenodd">
        <g id="MD" transform="translate(1.000000, 5.000000)">
            <path d="M2,0 L20,0 C21.1045695,-2.02906125e-16 22,0.8954305 22,2 L22,12 C22,13.1045695 21.1045695,14 20,14 L2,14 C0.8954305,14 1.3527075e-16,13.1045695 0,12 L0,2 C-1.3527075e-16,0.8954305 0.8954305,2.02906125e-16 2,0 Z" id="Rectangle-68" fill="#8E9098"></path>
            <g id="Group-13" transform="translate(3.000000, 3.000000)" fill="#FFFFFF">
                <polygon id="Rectangle-86" points="0 0 1 0 1 0 1 8 0 8"></polygon>
                <polygon id="Rectangle-86-Copy" points="7.5 0 8 0 8 8 7 8 7 0"></polygon>
                <path d="M4.55808405,7 L3.44189914,7 L0.00962453291,0.124182505 L0,0 L1.07121262,0 L4,5.88196601 L6.92391678,0 L8,0 L7.99948283,0.10569653 L4.55808405,7 Z" id="Combined-Shape" fill-rule="nonzero"></path>
            </g>
            <rect id="Rectangle-89" fill="#FFFFFF" x="12" y="3" width="1" height="8"></rect>
            <path d="M12.5,3.5 L12.5,10.5 L15,10.5 C16.9329966,10.5 18.5,8.93299662 18.5,7 C18.5,5.06700338 16.9329966,3.5 15,3.5 L12.5,3.5 Z" id="Rectangle-14" stroke="#FFFFFF"></path>
        </g>
    </g>
</svg>