<svg xmlns="http://www.w3.org/2000/svg" width="157" height="116" viewBox="0 0 157 116">
    <path fill="#DEDEDE" d="M112.201 102.285c1.246-1.018 2.449-2.085 3.6-3.207 10.927-10.645 16.945-25.232 16.945-41.076 0-1.65-.065-3.282-.186-4.893 6.32 5.074 10.377 12.857 10.377 21.575 0 16.28-11.7 26.671-30.736 27.6zm-60.478.075c-12.56 0-22.677-3.04-29.257-8.792-5.772-5.046-8.823-12.214-8.823-20.73 0-9.008 3.193-16.828 8.99-22.019 4.481-4.015 10.156-6.148 16.217-6.148.958 0 1.927.054 2.901.16 7.199.797 12.794 4.214 15.352 9.378 1.878 3.79 1.775 7.93-.283 11.356-1.601 2.665-3.778 4.309-6.471 4.884-3.11.666-6.89-.138-9.628-2.046l-6.83 11.831c5.716 3.607 12.846 4.938 19.31 3.557 6.445-1.378 11.74-5.252 15.315-11.202 4.432-7.38 4.736-16.516.813-24.436-4.186-8.45-12.275-14.272-22.502-16.327 1.653-3.634 3.998-6.86 6.992-9.584 6.098-5.544 14.665-8.598 24.122-8.598 11.267 0 21.672 4.544 29.297 12.797 7.651 8.282 11.865 19.49 11.865 31.561 0 12.131-4.554 23.25-12.821 31.303-8.768 8.54-20.84 13.055-34.915 13.055H51.723zm76.93-66.754C120.527 14.51 101.131 0 77.94 0c-12.86 0-24.685 4.314-33.3 12.149-5.76 5.237-9.93 11.902-12.242 19.404-6.985 1.17-13.466 4.265-18.87 9.103C4.806 48.47 0 59.899 0 72.838c0 12.569 4.664 23.29 13.486 31.002 9.103 7.957 22.325 12.164 38.237 12.164h19.644c.098 0 .194-.003.291-.004v.004h37.72c28.233 0 47.202-16.606 47.202-41.32 0-18.097-11.699-33.503-27.928-39.078z"/>
</svg>
