<?xml version="1.0" encoding="UTF-8"?>
<svg width="24px" height="24px" viewBox="0 0 24 24" version="1.1" xmlns="http://www.w3.org/2000/svg" xmlns:xlink="http://www.w3.org/1999/xlink">
    <!-- Generator: Sketch 48.2 (47327) - http://www.bohemiancoding.com/sketch -->
    <title>icon-weiyun</title>
    <desc>Created with Sketch.</desc>
    <defs></defs>
    <g id="Page-1" stroke="none" stroke-width="1" fill="none" fill-rule="evenodd">
        <g id="icon-weiyun" transform="translate(-6.000000, -6.000000)">
            <rect id="Rectangle-5" x="0" y="0" width="35" height="35"></rect>
            <path d="M27.3961066,21.3302149 C27.3505607,22.0012109 27.0488072,22.6139751 26.5463875,23.0560408 C26.0438735,23.4979162 25.40161,23.7149527 24.7360549,23.6699469 C24.179131,23.6314113 23.6612464,23.4083803 23.2529362,23.042815 C24.4000712,21.8650516 25.1657708,20.3432267 25.4448928,18.7021792 C25.9639089,18.8169298 26.432004,19.0921028 26.7876961,19.5037206 C27.2256159,20.0105832 27.4416525,20.659219 27.3961066,21.3302149 M14.9900756,23.4562406 C15.3993289,22.7650729 15.5767976,21.9637219 15.4824996,21.1700779 C15.4789163,21.1397252 15.4737299,21.1098481 15.4693922,21.0796856 C16.914886,21.5123315 18.5549165,21.3763625 19.8849895,20.3642548 C21.3073802,19.2818315 22.080718,17.0893912 20.7121714,15.1584225 C20.0894276,14.2795244 19.0661058,13.7324135 18.0443872,13.7438314 C17.0953723,13.7498258 16.2548944,14.2133953 15.6776021,15.0495712 C15.4450634,15.3863061 15.5271969,15.8493999 15.8609175,16.0840391 C16.1949209,16.318488 16.6535862,16.2359933 16.8861251,15.8990681 C17.1862756,15.4643289 17.5899652,15.2329247 18.0534398,15.2299751 L18.0623038,15.2299751 C18.603197,15.2299751 19.1723796,15.5404487 19.5142098,16.0227627 C20.4470997,17.3393496 19.7166676,18.6308169 18.998117,19.1777376 C17.4058956,20.3888034 15.0723977,19.7545353 13.9736376,18.4276723 C12.6184814,16.7907162 12.7142881,14.2345186 14.1917489,12.6082193 C15.1901759,11.5090496 16.5612686,10.8874364 18.0523082,10.8577496 C19.5786153,10.8325349 21.0311815,11.4242712 22.1271126,12.5388552 C23.4564312,13.8912183 24.1529161,15.6692814 24.0878505,17.5457293 C24.0239165,19.391539 23.2121052,21.1355386 21.8605322,22.3305241 C19.9053578,24.0594899 17.2359706,24.4861413 14.9900756,23.4562406 M8.99772178,23.0237851 C7.25754683,21.5070983 7.34514965,19.3968674 8.20401566,17.9781849 C8.8952199,16.8364832 10.2508477,16.0724309 11.4923749,16.1283789 C11.5184011,16.1296159 11.569322,16.1338025 11.5696049,16.1385599 C11.6254293,16.9026123 11.8238323,17.6528679 12.1671712,18.3390878 C11.9451937,18.3629704 11.7257624,18.4125435 11.5148178,18.4884729 C10.7768418,18.7537504 10.2500933,19.2980069 10.0316048,20.0207642 C9.91288366,20.4134473 10.1320322,20.8286807 10.5211057,20.948379 C10.9102734,21.0686483 11.2771869,20.9341066 11.4403224,20.454552 C11.543673,20.1508339 11.8057271,19.9615812 12.0092221,19.888411 C12.4112144,19.7434028 12.9116538,19.802586 13.2547098,20.0342755 C13.6758446,20.3187732 13.9547781,20.7972812 14.0199379,21.3469613 C14.0943391,21.971429 13.889901,22.5849544 13.4448146,23.0748805 C12.4001815,24.2243845 10.1263743,24.007443 8.99772178,23.0237851 M27.8979605,18.5271989 C27.2870981,17.8201411 26.4688746,17.3607583 25.5635196,17.2090896 C25.5396622,15.0627019 24.6995615,13.0453372 23.1725943,11.4923032 C21.8242275,10.1206246 20.050671,9.37036896 18.165183,9.37036896 C18.1178454,9.37036896 18.070602,9.37093981 18.0232644,9.37189137 C16.1256119,9.40957063 14.3792133,10.2023583 13.1060019,11.6039138 C12.3199339,12.4692055 11.8304331,13.5345971 11.64146,14.64214 C11.6407056,14.6467073 11.5832781,14.6447091 11.5539514,14.6434721 C9.77124811,14.5704923 7.91961295,15.5971579 6.94711787,17.2035709 C5.76405539,19.1573756 5.64165661,22.0626776 8.03493939,24.1484549 C8.89248526,24.8956658 10.1604159,25.3330691 11.4116558,25.3330691 C12.3249318,25.3330691 13.2283064,25.0987153 13.9574184,24.5832892 C13.9994753,24.6185898 14.044927,24.6507503 14.0958479,24.6767263 C15.1802746,25.2295462 16.3523986,25.4999617 17.5250883,25.4999617 C19.1309828,25.4999617 20.7369718,24.9912912 22.1211718,24.0092508 C22.7915362,24.6776778 23.6771828,25.0862507 24.6354389,25.1525701 C24.7281339,25.1590403 24.8204515,25.1622753 24.9126749,25.1622753 C25.8703652,25.162085 26.7852443,24.8173576 27.5141677,24.1763338 C28.3131544,23.4735579 28.7930369,22.4988439 28.8654578,21.4318348 C28.9380672,20.3649209 28.5944453,19.3333074 27.8979605,18.5271989" id="Fill-13" fill="#00A4FF" fill-rule="nonzero"></path>
        </g>
    </g>
</svg>