<svg width="128" height="128" viewBox="0 0 128 128" xmlns="http://www.w3.org/2000/svg"><title>icon-xls-create</title><g fill="none" fill-rule="evenodd"><g transform="translate(12 5)"><path d="M2 0h77.199a2 2 0 0 1 1.38.553l20.802 19.856a2 2 0 0 1 .619 1.447V114a2 2 0 0 1-2 2H2a2 2 0 0 1-2-2V2a2 2 0 0 1 2-2z" fill="#FFF"/><path d="M2 1a1 1 0 0 0-1 1v112a1 1 0 0 0 1 1h98a1 1 0 0 0 1-1V21.856a1 1 0 0 0-.31-.724L79.89 1.277A1 1 0 0 0 79.198 1H2zm0-1h77.199a2 2 0 0 1 1.38.553l20.802 19.856a2 2 0 0 1 .619 1.447V114a2 2 0 0 1-2 2H2a2 2 0 0 1-2-2V2a2 2 0 0 1 2-2z" fill="#DEDEDE" fill-rule="nonzero"/><circle fill="#2DAA65" cx="92" cy="100" r="20"/><path d="M94 98v-8h-4v8h-8v4h8v8h4v-8h8v-4h-8z" fill="#FFF"/><path d="M34 30.857l-9.726-12.472a1 1 0 0 0-.789-.385h-5.484a1 1 0 0 0-.789 1.615L29.989 36 17.212 52.385A1 1 0 0 0 18.001 54h5.484a1 1 0 0 0 .789-.385L34 41.143l9.726 12.472a1 1 0 0 0 .789.385h5.484a1 1 0 0 0 .789-1.615L38.011 36l12.777-16.385A1 1 0 0 0 49.999 18h-5.484a1 1 0 0 0-.789.385L34 30.857z" fill="#2DAA65"/></g></g></svg>