<?xml version="1.0" encoding="UTF-8"?>
<svg width="24px" height="24px" viewBox="0 0 24 24" version="1.1" xmlns="http://www.w3.org/2000/svg" xmlns:xlink="http://www.w3.org/1999/xlink">
    <!-- Generator: Sketch 52.3 (67297) - http://www.bohemiancoding.com/sketch -->
    <title>Slice</title>
    <desc>Created with Sketch.</desc>
    <defs>
        <linearGradient x1="-33.7898785%" y1="120.423118%" x2="189.957445%" y2="-48.0044522%" id="linearGradient-1">
            <stop stop-color="#EDC08D" offset="0%"></stop>
            <stop stop-color="#C99562" offset="100%"></stop>
        </linearGradient>
    </defs>
    <g id="Page-1" stroke="none" stroke-width="1" fill="none" fill-rule="evenodd">
        <g id="Toast/↳Elements/icons/SVIP">
            <g id="tips_vip">
                <rect id="Rectangle-19" x="0" y="0" width="24" height="24"></rect>
                <path d="M19.5880533,8.32258065 C18.237153,5.12903226 15.245874,3 11.8686234,3 C9.84227307,3 8.00890848,3.67741935 6.65800825,4.93548387 C5.78957239,5.70967742 5.21061515,6.67741935 4.82464366,7.74193548 C3.85971493,7.93548387 2.8947862,8.41935484 2.12284321,9.09677419 C0.771942986,10.3548387 0,12.0967742 0,14.1290323 C0,16.0645161 0.771942986,17.8064516 2.12284321,19.0645161 C3.57023631,20.3225806 5.59658665,21 8.00890848,21 L16.5002813,21 C20.9389535,21 23.8337397,18.3870968 23.8337397,14.516129 C23.7372468,11.7096774 22.096868,9.29032258 19.5880533,8.32258065 Z M15.6318455,16.2580645 C14.473931,17.4193548 12.7370593,18.0967742 10.8072018,18.0967742 L7.9124156,18.0967742 C6.17554389,18.0967742 4.82464366,17.7096774 3.9562078,16.9354839 C3.18426482,16.2580645 2.79829332,15.3870968 2.79829332,14.2258065 C2.79829332,13.0645161 3.18426482,12 3.9562078,11.3225806 C4.53516504,10.8387097 5.21061515,10.5483871 6.07905101,10.5483871 C6.17554389,10.5483871 6.36852963,10.5483871 6.46502251,10.5483871 C7.33345836,10.6451613 8.10540135,11.0322581 8.39487997,11.7096774 C8.58786572,12.0967742 8.58786572,12.5806452 8.39487997,12.9677419 C8.20189422,13.2580645 8.00890848,13.4516129 7.71942986,13.4516129 C7.42995124,13.5483871 6.94748687,13.4516129 6.65800825,13.2580645 L6.27203676,12.9677419 L4.82464366,15.483871 L5.21061515,15.6774194 C6.17554389,16.2580645 7.33345836,16.4516129 8.39487997,16.2580645 C9.45630158,16.0645161 10.3247374,15.3870968 10.9036947,14.4193548 C11.6756377,13.1612903 11.6756377,11.7096774 11.0001875,10.4516129 C10.4212303,9.29032258 9.3598087,8.41935484 8.00890848,7.93548387 C8.20189422,7.64516129 8.39487997,7.35483871 8.68435859,7.16129032 C9.45630158,6.38709677 10.6142161,6 11.9651163,6 C13.5090023,6 14.8599025,6.58064516 15.9213241,7.74193548 C16.9827457,8.90322581 17.5617029,10.4516129 17.5617029,12.0967742 C17.3687172,13.6451613 16.7897599,15.1935484 15.6318455,16.2580645 Z M17.2722243,18.1935484 C17.3687172,18.0967742 17.3687172,18.0967742 17.4652101,18 C19.1055889,16.3548387 20.0705176,14.1290323 20.0705176,11.7096774 C20.0705176,11.6129032 20.0705176,11.4193548 20.0705176,11.3225806 C20.8424606,12.0967742 21.324925,13.1612903 21.324925,14.2258065 C21.324925,16.4516129 19.781039,17.9032258 17.2722243,18.1935484 Z" id="Shape" fill="url(#linearGradient-1)" fill-rule="nonzero"></path>
            </g>
        </g>
    </g>
</svg>