<?xml version="1.0" encoding="UTF-8"?>
<svg width="24px" height="24px" viewBox="0 0 24 24" version="1.1" xmlns="http://www.w3.org/2000/svg" xmlns:xlink="http://www.w3.org/1999/xlink">
    <!-- Generator: Sketch 50.2 (55047) - http://www.bohemiancoding.com/sketch -->
    <title>icon-team-file</title>
    <desc>Created with Sketch.</desc>
    <defs></defs>
    <g id="Symbol" stroke="none" stroke-width="1" fill="none" fill-rule="evenodd">
        <g id="Bar/Navigation-Bar/↳Elements/List/icons/all">
            <g id="icon-team-file">
                <rect id="Rectangle-7" x="0" y="0" width="24" height="24"></rect>
                <path d="M12.2083333,6 L20.0066023,6 C20.5552407,6 21,6.44994876 21,7.00684547 L21,18.9931545 C21,19.5492199 20.5550537,20 20.0066023,20 L3.99339768,20 C3.44475929,20 3,19.5500512 3,18.9931545 L3,7.00684547 C3,7.00456187 3.0000075,7.00228003 3.00002249,7 L3,4.99895656 C3,4.44724809 3.45414364,4 3.99683559,4 L10.1247025,4 C10.4010092,4 10.7664546,4.17867947 10.9354898,4.39219761 L12.2083333,6 Z M5,9 L5,11 L19,11 L19,9 L5,9 Z" id="Combined-Shape" fill="#7C878E"></path>
            </g>
        </g>
    </g>
</svg>