<?xml version="1.0" encoding="UTF-8"?>
<svg width="31px" height="16px" viewBox="0 0 31 16" version="1.1" xmlns="http://www.w3.org/2000/svg" xmlns:xlink="http://www.w3.org/1999/xlink">
    <!-- Generator: Sketch 55.1 (78136) - https://sketchapp.com -->
    <title>Group 3 Copy</title>
    <desc>Created with Sketch.</desc>
    <g id="Page-1" stroke="none" stroke-width="1" fill="none" fill-rule="evenodd">
        <g id="Artboard-Copy-12" transform="translate(-424.000000, -316.000000)">
            <g id="Group-4-Copy-2">
                <g id="Group-4">
                    <g id="Group" transform="translate(284.000000, 184.000000)">
                        <g id="Content/Lists/Files/Normal-Copy-4" transform="translate(0.000000, 112.000000)">
                            <g id="Group-3-Copy" transform="translate(140.000000, 20.000000)">
                                <rect id="Rectangle-3-Copy" fill="#01BD88" x="0" y="0" width="31" height="16" rx="2"></rect>
                                <path d="M8.884,4.952 L4.42,4.952 L4.42,4.1 L8.956,4.1 C8.752,3.464 8.5,2.852 8.212,2.264 L9.052,2.036 C9.352,2.72 9.58,3.344 9.748,3.92 L9.28,4.1 L14.224,4.1 L14.224,4.952 L9.76,4.952 L9.76,7.784 L13.648,7.784 L13.648,8.588 L9.76,8.588 L9.76,11.804 L14.644,11.804 L14.644,12.656 L4,12.656 L4,11.804 L8.884,11.804 L8.884,8.588 L4.996,8.588 L4.996,7.784 L8.884,7.784 L8.884,4.952 Z M24.748,6.8 L24.748,9.152 L18.76,9.152 L18.76,9.98 L25.3,9.98 L25.3,13.064 L24.448,13.064 L24.448,12.56 L18.76,12.56 L18.76,13.052 L17.896,13.052 L17.896,6.8 L24.748,6.8 Z M18.76,11.792 L24.448,11.792 L24.448,10.676 L18.76,10.676 L18.76,11.792 Z M18.76,8.456 L23.908,8.456 L23.908,7.496 L18.76,7.496 L18.76,8.456 Z M26.404,5.348 L26.404,7.52 L25.564,7.52 L25.564,6.092 L17.068,6.092 L17.068,7.52 L16.228,7.52 L16.228,5.348 L20.98,5.348 C20.86,5.06 20.74,4.808 20.608,4.568 L21.448,4.424 L21.376,4.376 C21.952,3.656 22.36,2.876 22.624,2.012 L23.452,2.192 C23.368,2.444 23.284,2.684 23.188,2.924 L26.656,2.924 L26.656,3.68 L24.52,3.68 C24.772,4.016 24.976,4.328 25.12,4.616 L24.352,4.904 C24.136,4.472 23.884,4.064 23.596,3.68 L22.84,3.68 C22.624,4.088 22.372,4.472 22.108,4.832 L21.46,4.436 C21.592,4.712 21.724,5.012 21.844,5.348 L26.404,5.348 Z M17.668,3.68 C17.38,4.148 17.068,4.58 16.708,4.976 L15.952,4.496 C16.672,3.752 17.2,2.912 17.536,2 L18.364,2.18 C18.268,2.444 18.16,2.684 18.064,2.924 L21.28,2.924 L21.28,3.68 L19.264,3.68 C19.528,4.04 19.756,4.388 19.924,4.712 L19.132,5.012 C18.916,4.556 18.652,4.112 18.352,3.68 L17.668,3.68 Z" id="主管" fill="#FFFFFF" fill-rule="nonzero"></path>
                            </g>
                        </g>
                    </g>
                </g>
            </g>
        </g>
    </g>
</svg>