<?xml version="1.0" encoding="UTF-8"?>
<svg width="24px" height="24px" viewBox="0 0 24 24" version="1.1" xmlns="http://www.w3.org/2000/svg" xmlns:xlink="http://www.w3.org/1999/xlink">
    <!-- Generator: Sketch 49 (51002) - http://www.bohemiancoding.com/sketch -->
    <title>icon-ppt-s</title>
    <desc>Created with Sketch.</desc>
    <defs>
        <path d="M6,2 L20,2 C20.5522847,2 21,2.44771525 21,3 L21,21 C21,21.5522847 20.5522847,22 20,22 L6,22 C5.44771525,22 5,21.5522847 5,21 L5,3 C5,2.44771525 5.44771525,2 6,2 Z" id="path-1"></path>
    </defs>
    <g id="icon-ppt-s" stroke="none" stroke-width="1" fill="none" fill-rule="evenodd">
        <g id="ico_new_p">
            <rect id="bg" x="0" y="0" width="24" height="24"></rect>
            <g id="Rectangle-23-Copy">
                <use fill="#FFFFFF" fill-rule="evenodd" xlink:href="#path-1"></use>
                <path stroke="#DADADA" stroke-width="1" d="M6,2.5 C5.72385763,2.5 5.5,2.72385763 5.5,3 L5.5,21 C5.5,21.2761424 5.72385763,21.5 6,21.5 L20,21.5 C20.2761424,21.5 20.5,21.2761424 20.5,21 L20.5,3 C20.5,2.72385763 20.2761424,2.5 20,2.5 L6,2.5 Z"></path>
            </g>
            <path d="M14,7 L14,10 L17,10 C17,11.6568542 15.6568542,13 14,13 C12.3431458,13 11,11.6568542 11,10 C11,8.34314575 12.3431458,7 14,7 Z M15,6 C16.6568542,6 18,7.34314575 18,9 L15,9 L15,6 Z M7,15 L18,15 L18,16 L7,16 L7,15 Z M7,17 L18,17 L18,18 L7,18 L7,17 Z" id="Combined-Shape" fill="#E5E5E5"></path>
            <path d="M3.45024814,6.95497519 L12.4502481,6.05497519 C12.7250201,6.02749799 12.9700414,6.22796999 12.9975186,6.50274192 C12.9991718,6.51927435 13,6.5358789 13,6.55249378 L13,19.4475062 C13,19.7236486 12.7761424,19.9475062 12.5,19.9475062 C12.4833851,19.9475062 12.4667806,19.9466781 12.4502481,19.9450248 L3.45024814,19.0450248 C3.19464724,19.0194647 3,18.8043819 3,18.5475062 L3,7.45249378 C3,7.19561806 3.19464724,6.98053528 3.45024814,6.95497519 Z" id="Rectangle-29" fill="#E8673A"></path>
            <rect id="Rectangle-52" fill="#FFFFFF" x="5" y="11" width="1" height="5"></rect>
            <rect id="Rectangle-53" fill="#FFFFFF" x="6" y="10" width="2" height="1"></rect>
            <rect id="Rectangle-53-Copy" fill="#FFFFFF" opacity="0.900000036" x="8" y="10" width="1" height="1"></rect>
            <rect id="Rectangle-53-Copy-2" fill="#FFFFFF" opacity="0.900000036" x="8" y="13" width="1" height="1"></rect>
            <rect id="Rectangle-53-Copy-3" fill="#FFFFFF" opacity="0.600000024" x="9" y="13" width="1" height="1"></rect>
            <rect id="Rectangle-53-Copy-4" fill="#FFFFFF" opacity="0.600000024" x="9" y="10" width="1" height="1"></rect>
            <rect id="Rectangle-53-Copy-6" fill="#FFFFFF" opacity="0.200000003" x="8" y="11" width="1" height="1"></rect>
            <rect id="Rectangle-53-Copy-7" fill="#FFFFFF" opacity="0.200000003" x="8" y="12" width="1" height="1"></rect>
            <rect id="Rectangle-53-Copy-5" fill="#FFFFFF" opacity="0.900000036" x="5" y="10" width="1" height="1"></rect>
            <rect id="Rectangle-54-Copy" fill="#FFFFFF" opacity="0.900000036" x="9" y="11" width="1" height="1"></rect>
            <rect id="Rectangle-54-Copy-2" fill="#FFFFFF" opacity="0.900000036" x="9" y="12" width="1" height="1"></rect>
            <rect id="Rectangle-55" fill="#FFFFFF" x="6" y="13" width="2" height="1"></rect>
        </g>
    </g>
</svg>