<?xml version="1.0" encoding="UTF-8"?>
<svg width="76px" height="24px" viewBox="0 0 76 24" version="1.1" xmlns="http://www.w3.org/2000/svg" xmlns:xlink="http://www.w3.org/1999/xlink">
    <!-- Generator: Sketch 50.2 (55047) - http://www.bohemiancoding.com/sketch -->
    <title>icon-logo-vip</title>
    <desc>Created with Sketch.</desc>
    <defs></defs>
    <g id="Page-1" stroke="none" stroke-width="1" fill="none" fill-rule="evenodd">
        <g id="icon-logo-vip" transform="translate(3.000000, 3.000000)" fill="#000000" fill-rule="nonzero">
            <path d="M55.5470478,7.8139535 L69.93502,7.8139535 L69.93502,13.7302326 L68.389437,13.7302326 L68.389437,9.2093023 L57.0926307,9.2093023 L57.0926307,13.7302326 L55.5470478,13.7302326 L55.5470478,7.8139535 Z M68.979568,1.17209302 L68.979568,6.68372093 L56.5446513,6.68372093 L56.5446513,1.17209302 L68.979568,1.17209302 Z M66.548788,14.7069767 C67.51829,15.0697674 69.457294,15.6837209 70.595405,15.9348837 C70.595405,16.0186047 70.595405,17.427907 70.595405,17.427907 C70.595405,17.4837209 70.539202,17.5255814 70.482999,17.5116279 C68.431589,16.9953488 67.13892,16.5488372 65.874352,16.0604651 C64.258515,15.4465116 63.3311654,14.8186047 62.7691352,14.1209302 C62.2071051,14.8186047 61.2797553,15.4465116 59.6639186,16.0604651 C58.3993508,16.5348837 57.1066814,16.9953488 55.0552714,17.5116279 C54.9990684,17.5255814 54.9428653,17.4837209 54.9428653,17.427907 C54.9428653,17.427907 54.9428653,16.0186047 54.9428653,15.9348837 C56.0809764,15.6837209 58.0199804,15.0697674 58.9894824,14.7069767 C61.7293794,13.6604651 61.9401407,12.8232558 61.9541915,10.9534884 L61.9541915,10.2976744 L63.5840789,10.2976744 L63.5840789,10.9534884 C63.5981297,12.8232558 63.808891,13.6604651 66.548788,14.7069767 Z M67.433985,5.28837209 L67.433985,2.56744186 L58.0902342,2.56744186 L58.0902342,5.28837209 L67.433985,5.28837209 Z M39.6415945,6.65581395 L50.1375075,6.65581395 L50.1375075,8.1906977 L39.6415945,8.1906977 L39.6415945,6.65581395 Z M37.0703065,11.6093023 L37.0703065,10.0604651 L52.6947447,10.0604651 L52.6947447,11.5953488 L42.0583241,11.5953488 L40.4846397,15.7813953 L49.4349699,15.7813953 L48.3811633,12.9767442 C48.3671126,12.9209302 48.4092648,12.8651163 48.4654678,12.8651163 L50.053203,12.8651163 L51.6690397,17.1906977 C51.711192,17.2604651 51.654989,17.3162791 51.5987859,17.3162791 L38.3489251,17.3162791 C38.2927221,17.3162791 38.2505698,17.2604651 38.2786713,17.1906977 L40.3722336,11.6093023 L37.0703065,11.6093023 Z M44.9387286,0.51627907 C47.1587477,2.09302326 49.7300357,3.66976744 52.8774045,5.46976744 C52.8774045,5.73488372 52.8774045,6.85116279 52.8774045,7.3674419 C52.8774045,7.4093023 52.8212015,7.4790698 52.736897,7.4372093 C49.6738327,5.69302326 47.4819151,4.3255814 44.8825256,2.55348837 C42.2831362,4.3255814 40.0912186,5.69302326 37.0281542,7.4372093 C36.9438497,7.4790698 36.8876467,7.4093023 36.8876467,7.3674419 C36.8876467,6.85116279 36.8876467,5.72093023 36.8876467,5.46976744 C40.0350156,3.66976744 42.6063035,2.07906977 44.8263226,0.51627907 C44.8263226,0.51627907 44.8544241,0.50232558 44.8825256,0.50232558 C44.9246779,0.50232558 44.9387286,0.51627907 44.9387286,0.51627907 Z M20.321808,1.63255814 L32.5178623,1.63255814 L32.5178623,3.16744186 L20.321808,3.16744186 L20.321808,1.63255814 Z M24.7337447,8.972093 L22.148406,15.7953488 L31.0846854,15.7953488 C31.0846854,15.7953488 29.6936608,12.1255814 29.6655592,12.0697674 C29.6515085,12.0139535 29.6936608,11.9581395 29.7498638,11.9581395 C29.8060668,11.9581395 31.4219035,11.9581395 31.4219035,11.9581395 C31.4219035,11.9581395 33.4171105,17.1627907 33.4311613,17.2046512 C33.445212,17.2744186 33.4171105,17.3302326 33.3468567,17.3302326 C33.3047045,17.3302326 19.9002854,17.3302326 19.8581331,17.3302326 C19.7878793,17.3302326 19.7457271,17.2883721 19.7738286,17.2186047 C19.7878793,17.1767442 22.0359999,11.3023256 22.9352482,8.972093 L18.5935652,8.972093 L18.5935652,7.4372093 L34.2180035,7.4372093 L34.2180035,8.972093 L24.7337447,8.972093 Z M10.8234984,1.63255814 L10.8234984,6.44651163 L4.9924356,6.44651163 L4.9924356,1.63255814 L6.3272572,1.63255814 L6.3272572,5.19069767 L7.2405562,5.19069767 L7.2405562,0.6 L8.5753778,0.6 L8.5753778,5.19069767 L9.4886768,5.19069767 L9.4886768,1.63255814 L10.8234984,1.63255814 Z M4.5568622,5.48372093 C4.627116,5.48372093 4.6692682,5.55348837 4.6411667,5.58139535 C4.4444562,6.05581395 4.1774918,6.62790698 3.8683753,7.2837209 L3.8683753,17.6511628 L2.4632999,17.6511628 L2.4632999,10.0046512 C2.3227923,10.255814 2.1822848,10.5069767 2.0277265,10.772093 L0.5523974,10.772093 C0.4961943,10.772093 0.4399913,10.7162791 0.4821436,10.6465116 C1.6905084,8.5953488 2.6178582,6.73953488 3.1658376,5.48372093 L4.5568622,5.48372093 Z M4.9643341,7.4372093 L10.8234984,7.4372093 L10.8234984,8.6930233 L4.9643341,8.6930233 L4.9643341,7.4372093 Z M10.7813461,13.4930233 C10.7813461,13.4930233 11.8773049,12.627907 11.9335079,12.5860465 C11.989711,12.544186 12.0740155,12.5860465 12.0740155,12.655814 C12.0740155,12.6976744 12.0740155,14.0790698 12.0740155,14.0790698 L9.5729813,16.0604651 L8.7861391,15.0837209 L9.3762707,14.6093023 L9.3762707,10.9953488 L6.6925768,10.9953488 L6.6925768,11.8046512 C6.6925768,13.2976744 6.622323,14.9302326 5.8916838,17.1767442 L4.5287607,17.1767442 C4.4585069,17.1767442 4.4304054,17.1209302 4.4444562,17.0651163 C5.2172476,14.8325581 5.2875014,13.2418605 5.2875014,11.8046512 L5.2875014,9.7395349 L10.7813461,9.7395349 L10.7813461,13.4930233 Z M14.8139125,13.3953488 C15.3759426,14.4 16.1346833,15.3069767 17.1603884,16.1023256 L17.1603884,17.6372093 C17.1603884,17.6930233 17.1041853,17.7488372 17.0339316,17.7069767 C15.7272115,16.8697674 14.7577095,15.8790698 14.0270703,14.7906977 C13.3104818,15.8651163 12.3550306,16.8418605 11.1045135,17.6651163 C11.0342597,17.7069767 10.9640059,17.6651163 10.9640059,17.5953488 L10.9640059,16.0465116 C11.9335079,15.2790698 12.6781979,14.372093 13.2261773,13.3674419 C11.9054064,10.4930233 11.8492034,7.1162791 11.8492034,3.9627907 L11.2590718,3.9627907 C11.2028687,3.9627907 11.1607165,3.92093023 11.1747672,3.86511628 C11.4136301,3.06976744 12.0318632,1.08837209 12.15832,0.69767442 L13.5212431,0.69767442 C13.5774461,0.69767442 13.6195984,0.75348837 13.6055476,0.80930233 C13.4228878,1.39534884 13.0435175,2.62325581 13.015416,2.70697674 L17.0339316,2.70697674 L17.0339316,3.9627907 L16.4578507,3.9627907 L16.4437999,4.2 C16.3173431,7.1302326 16.1768356,10.5069767 14.8139125,13.3953488 Z M2.2244371,5.86046512 C2.2244371,5.86046512 0.6507526,5.86046512 0.5804989,5.84651163 C0.5102451,5.84651163 0.4680928,5.77674419 0.5102451,5.72093023 C1.6764577,3.78139535 2.5757059,2.02325581 3.1517868,0.76744186 L4.7114205,0.76744186 C4.7816743,0.76744186 4.8238265,0.8372093 4.795725,0.89302326 C4.2758471,2.09302326 3.3906496,3.86511628 2.2244371,5.86046512 Z M13.2542788,3.9627907 C13.2542788,6.57209302 13.2964311,9.2093023 14.0270703,11.5395349 C14.8279632,9.1534884 14.9403693,6.48837209 15.0387245,4.14418605 L15.0527753,3.9627907 L13.2542788,3.9627907 Z" id="Combined-Shape"></path>
        </g>
    </g>
</svg>