<?xml version="1.0" encoding="UTF-8"?>
<svg width="24px" height="24px" viewBox="0 0 24 24" version="1.1" xmlns="http://www.w3.org/2000/svg" xmlns:xlink="http://www.w3.org/1999/xlink">
    <!-- Generator: Sketch 55.2 (78181) - https://sketchapp.com -->
    <title>icon-admin</title>
    <desc>Created with Sketch.</desc>
    <g id="组件" stroke="none" stroke-width="1" fill="none" fill-rule="evenodd">
        <g id="Bar/Action-Bar/↳Elements/icons/edit复制备份-3" transform="translate(2.000000, 2.000000)">
            <g id="ic_edit_nor">
                <rect id="Rectangle-50" x="0" y="0" width="20" height="20"></rect>
            </g>
            <path d="M14.7822606,12.5889866 L13.3291938,14.0126541 C12.810251,13.6443798 12.3011052,13.2620124 11.8752421,12.9154599 C10.7761267,12.0210378 10.5798456,10.5839004 11.3578105,9.54917505 L11.3636482,9.54118732 L11.4079048,9.48319777 C11.8933634,8.89304115 12.1838564,8.04269663 12.1838564,7.11764706 C12.1838564,5.34777171 11.1417402,4 10.0000333,4 C8.85832635,4 7.81621015,5.34777171 7.81621015,7.11764706 C7.81621015,8.04241064 8.10652236,8.89252324 8.63430027,9.53831431 L8.64225596,9.54917505 C9.42022086,10.5839004 9.22393978,12.0210378 8.12482436,12.9154599 C7.43709878,13.4751071 6.53218035,14.1281556 5.7195531,14.6644192 C5.19992069,15.0073315 4.9912357,15.3635465 5.00077216,15.6857753 L5.00077216,16 L8.25625094,16 L10.2015519,18 L4.50077216,18 C3.67234503,18 3.00077216,17.3284271 3.00077216,16.5 L3.00125527,15.7168555 C2.96930511,14.6893633 3.54832357,13.7010075 4.61796942,12.9951339 C5.37870395,12.493115 6.23109367,11.8779747 6.8624571,11.364193 C7.13758134,11.1403064 7.16813452,10.9166011 7.04368154,10.7510735 C7.02864099,10.7308911 7.02497615,10.7259734 7.03405614,10.7370861 L7.03802356,10.7420808 C6.25707,9.78654778 5.81621015,8.4904493 5.81621015,7.11764706 C5.81621015,4.33929506 7.62498627,2 10.0000333,2 C12.3750802,2 14.1838564,4.33929506 14.1838564,7.11764706 C14.1838564,8.48369234 13.7473241,9.77378144 12.9735652,10.7279278 C12.969369,10.7336344 12.9644887,10.7401892 12.956385,10.7510735 C12.831932,10.9166011 12.8624852,11.1403064 13.1376094,11.364193 C13.6065904,11.7458334 14.1975251,12.1833997 14.7822606,12.5889866 Z M12.9903814,16.2218843 L17.233022,11.9792437 L18.6472356,13.3934572 L14.4045949,17.6360979 L12.9903814,19.0503115 L9.45484745,15.5147776 L10.869061,14.100564 L12.9903814,16.2218843 Z" id="形状结合" fill="#60686D" fill-rule="nonzero"></path>
        </g>
    </g>
</svg>