<svg width="14" height="14" viewBox="0 0 14 14" xmlns="http://www.w3.org/2000/svg"><title>icon-pop-confirm-alert-s</title><g fill="none" fill-rule="evenodd"><path d="M7 14A7 7 0 1 0 7 0a7 7 0 0 0 0 14z" fill="#FF4222"/><path d="M6 3.498C6 3.223 6.214 3 6.505 3h.99c.279 0 .505.215.505.498v4.004A.494.494 0 0 1 7.495 8h-.99A.496.496 0 0 1 6 7.502V3.498zm0 6.007C6 9.226 6.214 9 6.505 9h.99c.279 0 .505.214.505.505v.99a.497.497 0 0 1-.505.505h-.99A.497.497 0 0 1 6 10.495v-.99z" fill="#FFF"/></g></svg>