<?xml version="1.0" encoding="UTF-8"?>
<svg width="24px" height="24px" viewBox="0 0 24 24" version="1.1" xmlns="http://www.w3.org/2000/svg" xmlns:xlink="http://www.w3.org/1999/xlink">
    <!-- Generator: Sketch 50.2 (55047) - http://www.bohemiancoding.com/sketch -->
    <title>icon-team-info</title>
    <desc>Created with Sketch.</desc>
    <defs></defs>
    <g id="Symbol" stroke="none" stroke-width="1" fill="none" fill-rule="evenodd">
        <g id="Bar/Navigation-Bar/↳Elements/List/icons/all-Copy">
            <g id="icon-team-info">
                <rect id="Rectangle-7" x="0" y="0" width="24" height="24"></rect>
                <path d="M21,8 L3,8 L3,6.00684547 C3,5.45078007 3.44494629,5 3.99339768,5 L20.0066023,5 C20.5552407,5 21,5.44994876 21,6.00684547 L21,8 Z M21,11 L21,17.9931545 C21,18.5492199 20.5550537,19 20.0066023,19 L3.99339768,19 C3.44475929,19 3,18.5500512 3,17.9931545 L3,11 L21,11 Z M14,14 L13,17 L18,17 L19,14 L14,14 Z" id="Combined-Shape" fill="#7C878E"></path>
            </g>
        </g>
    </g>
</svg>