<?xml version="1.0" encoding="UTF-8"?>
<svg width="24px" height="24px" viewBox="0 0 24 24" version="1.1" xmlns="http://www.w3.org/2000/svg" xmlns:xlink="http://www.w3.org/1999/xlink">
    <!-- Generator: Sketch 49.2 (51160) - http://www.bohemiancoding.com/sketch -->
    <title>icon-team</title>
    <desc>Created with Sketch.</desc>
    <defs></defs>
    <g id="Page-1" stroke="none" stroke-width="1" fill="none" fill-rule="evenodd">
        <g id="ic_group_nor">
            <rect id="Rectangle-13" x="0" y="0" width="24" height="24"></rect>
            <g id="Group-2" transform="translate(4.000000, 4.000000)">
                <path d="M13,3 L13,16 L3,16 L3,3 L13,3 Z M14,3 L15,3 C15.5522847,3 16,3.44771525 16,4 L16,15 C16,15.5522847 15.5522847,16 15,16 L14,16 L14,3 Z M2,3 L2,16 L1,16 C0.44771525,16 6.76353751e-17,15.5522847 0,15 L0,4 C-6.76353751e-17,3.44771525 0.44771525,3 1,3 L2,3 Z" id="Combined-Shape" fill="#2980FF"></path>
                <rect id="Rectangle-11" stroke="#2980FF" stroke-width="2" x="5" y="1" width="6" height="3" rx="1"></rect>
            </g>
        </g>
    </g>
</svg>