<?xml version="1.0" encoding="UTF-8"?>
<svg width="132px" height="132px" viewBox="0 0 132 132" version="1.1" xmlns="http://www.w3.org/2000/svg" xmlns:xlink="http://www.w3.org/1999/xlink">
    <!-- Generator: Sketch 55.2 (78181) - https://sketchapp.com -->
    <title>Group 5</title>
    <desc>Created with Sketch.</desc>
    <g id="页面1" stroke="none" stroke-width="1" fill="none" fill-rule="evenodd">
        <g id="1-视觉稿复制-2" transform="translate(-309.000000, -351.000000)">
            <g id="Group-5" transform="translate(309.000000, 351.000000)">
                <circle id="Oval" fill="#07BB09" cx="66" cy="66" r="66"></circle>
                <path d="M40,66 L100.125,66 C102.334139,66 104.125,67.790861 104.125,70 C104.125,72.209139 102.334139,74 100.125,74 L36.125,74 C36.1041289,74 36.0832952,73.9998402 36.0625,73.9995216 C36.0417048,73.9998402 36.0208711,74 36,74 C33.790861,74 32,72.209139 32,70 L32,38 C32,35.790861 33.790861,34 36,34 C38.209139,34 40,35.790861 40,38 L40,66 Z" id="Combined-Shape" fill="#FFFFFF" transform="translate(68.062500, 54.000000) rotate(-45.000000) translate(-68.062500, -54.000000) "></path>
            </g>
        </g>
    </g>
</svg>