<?xml version="1.0" encoding="UTF-8"?>
<svg width="24px" height="24px" viewBox="0 0 24 24" version="1.1" xmlns="http://www.w3.org/2000/svg" xmlns:xlink="http://www.w3.org/1999/xlink">
    <!-- Generator: Sketch 48.2 (47327) - http://www.bohemiancoding.com/sketch -->
    <title>icon-look</title>
    <desc>Created with Sketch.</desc>
    <defs></defs>
    <g id="Page-1" stroke="none" stroke-width="1" fill="none" fill-rule="evenodd">
        <path d="M12,19 C7.02943725,19 3,15.5098005 3,13 C3,10.4901995 7.02943725,7 12,7 C16.9705627,7 21,10.4286761 21,13 C21,15.5713239 16.9705627,19 12,19 Z M12,17 C16.8324916,17 19,13.987793 19,13 C19,12.012207 16.8324916,9 12,9 C7.16750844,9 5,11.9916992 5,13 C5,14.0083008 7.16750844,17 12,17 Z" id="Combined-Shape" fill="#687176"></path>
        <path d="M12,16 C10.3431458,16 9,14.6568542 9,13 C9,11.3431458 10.3431458,10 12,10 C13.6568542,10 15,11.3431458 15,13 C15,14.6568542 13.6568542,16 12,16 Z M12,14.5 C12.8284271,14.5 13.5,13.8284271 13.5,13 C13.5,12.1715729 12.8284271,11.5 12,11.5 C11.1715729,11.5 10.5,12.1715729 10.5,13 C10.5,13.8284271 11.1715729,14.5 12,14.5 Z" id="Combined-Shape" fill="#687176"></path>
    </g>
</svg>