<?xml version="1.0" encoding="UTF-8"?>
<svg width="140px" height="140px" viewBox="0 0 140 140" version="1.1" xmlns="http://www.w3.org/2000/svg" xmlns:xlink="http://www.w3.org/1999/xlink">
    <!-- Generator: Sketch 49.2 (51160) - http://www.bohemiancoding.com/sketch -->
    <title>icon-expired</title>
    <desc>Created with Sketch.</desc>
    <defs>
        <circle id="path-1" cx="81" cy="100" r="20"></circle>
    </defs>
    <g id="Page-1" stroke="none" stroke-width="1" fill="none" fill-rule="evenodd">
        <g id="Group-3">
            <rect id="Rectangle-3" x="0" y="0" width="140" height="140"></rect>
            <g id="Group-4" transform="translate(25.000000, 12.000000)">
                <path d="M52,58 C52,53.8777856 53.609539,50.27321 56.8349872,46.2370585 C58.5075913,44.1440521 65.488361,36.7565264 66.0070152,36.1746585 C74.5307185,26.6120831 78.7934407,17.4815119 78.992671,4 L11.007329,4 C11.2065593,17.4815119 15.4692815,26.6120831 23.9929848,36.1746585 C24.511639,36.7565264 31.4924087,44.1440521 33.1650128,46.2370585 C36.390461,50.27321 38,53.8777856 38,58 C38,62.1222144 36.390461,65.72679 33.1650128,69.7629415 C31.4924087,71.8559479 24.511639,79.2434736 23.9929848,79.8253415 C15.4692815,89.3879169 11.2065593,98.5184881 11.007329,112 L78.992671,112 C78.7934407,98.5184881 74.5307185,89.3879169 66.0070152,79.8253415 C65.488361,79.2434736 58.5075913,71.8559479 56.8349872,69.7629415 C53.609539,65.72679 52,62.1222144 52,58 Z M56,58 C56,61.0750768 57.2504807,63.8755385 59.9597736,67.2658011 C61.5094548,69.2049884 68.3768074,76.4724884 68.9929848,77.1637658 C78.1232673,87.4068504 82.7903332,97.4256828 82.9930933,111.999994 L90,112 L90,116 L0,116 L0,112 L7.00690663,112 C7.2096668,97.4256828 11.8767327,87.4068504 21.0070152,77.1637658 C21.6231926,76.4724884 28.4905452,69.2049884 30.0402264,67.2658011 C32.7495193,63.8755385 34,61.0750768 34,58 C34,54.9249232 32.7495193,52.1244615 30.0402264,48.7341989 C28.4905452,46.7950116 21.6231926,39.5275116 21.0070152,38.8362342 C11.8767327,28.5931496 7.2096668,18.5743172 7.00690671,4.00000625 L0,4 L0,0 L90,0 L90,4 L82.9930934,4 C82.7903332,18.5743172 78.1232673,28.5931496 68.9929848,38.8362342 C68.3768074,39.5275116 61.5094548,46.7950116 59.9597736,48.7341989 C57.2504807,52.1244615 56,54.9249232 56,58 Z" id="Combined-Shape" fill="#B2B2B2"></path>
                <path d="M63.0210456,82.4869173 C62.9812625,82.4422855 59.7331786,78.9623419 58.3172405,77.427669 C58.2346882,77.3381795 58.2346882,77.3381795 58.1521403,77.248634 C55.9524734,74.8620881 54.4445432,73.1789982 53.7102008,72.2600818 C49.8570759,67.4384897 40.1429241,67.4384897 36.2897992,72.2600818 C35.5554568,73.1789982 34.0475266,74.8620881 31.8478597,77.248634 C31.7653118,77.3381795 31.7653118,77.3381795 31.6827595,77.427669 C30.2668214,78.9623419 27.0187375,82.4422855 26.9789544,82.4869173 C19.6283928,90.7333681 16.0645151,98.169149 15.2076826,108 L74.7923174,108 C73.9354849,98.169149 70.3716072,90.7333681 63.0210456,82.4869173 Z" id="Combined-Shape" fill="#2980FF" fill-rule="nonzero"></path>
                <g id="Oval-3">
                    <use fill="#FF5555" fill-rule="evenodd" xlink:href="#path-1"></use>
                    <circle stroke="#FFFFFF" stroke-width="4" cx="81" cy="100" r="22"></circle>
                </g>
                <path d="M79,89 L83,89 L83,103 L79,103 L79,89 Z M79,107 L83,107 L83,111 L79,111 L79,107 Z" id="Combined-Shape" fill="#FFFFFF"></path>
            </g>
        </g>
    </g>
</svg>