<?xml version="1.0" encoding="UTF-8"?>
<svg width="24px" height="24px" viewBox="0 0 24 24" version="1.1" xmlns="http://www.w3.org/2000/svg" xmlns:xlink="http://www.w3.org/1999/xlink">
    <!-- Generator: Sketch 48.2 (47327) - http://www.bohemiancoding.com/sketch -->
    <title>Slice</title>
    <desc>Created with Sketch.</desc>
    <defs>
        <path d="M-3.33053355e-16,1.002 C-0.000531126752,0.736437155 0.104591195,0.481569136 0.292185172,0.293599972 C0.479779148,0.105630807 0.734436624,-5.31127283e-07 1,1.77635684e-15 L15.504,1.77635684e-15 C15.778,1.77635684e-15 16.152,0.152 16.355,0.355 L19.645,3.645 C19.841,3.841 20,4.228 20,4.5 L20,21.007 C19.9961922,21.5534445 19.5544403,21.9956416 19.008,22 L0.992,22 C0.727080127,22.0002836 0.473075671,21.8944842 0.286690721,21.7062204 C0.100305772,21.5179565 -0.00294073739,21.2629037 -2.10941019e-15,20.998 L-3.33053355e-16,1.002 Z" id="path-1"></path>
    </defs>
    <g id="Page-1" stroke="none" stroke-width="1" fill="none" fill-rule="evenodd">
        <g id="icon-upload" transform="translate(-8.000000, -8.000000)">
            <polygon id="Shape" points="0 0 40 0 40 40 0 40"></polygon>
            <g id="a-link" transform="translate(10.000000, 9.000000)" fill="#478CE8" fill-rule="nonzero">
                <path d="M-3.33053355e-16,1.002 C-0.000531126752,0.736437155 0.104591195,0.481569136 0.292185172,0.293599972 C0.479779148,0.105630807 0.734436624,-5.31127283e-07 1,1.77635684e-15 L15.504,1.77635684e-15 C15.778,1.77635684e-15 16.152,0.152 16.355,0.355 L19.645,3.645 C19.841,3.841 20,4.228 20,4.5 L20,21.007 C19.9961922,21.5534445 19.5544403,21.9956416 19.008,22 L0.992,22 C0.727080127,22.0002836 0.473075671,21.8944842 0.286690721,21.7062204 C0.100305772,21.5179565 -0.00294073739,21.2629037 -2.10941019e-15,20.998 L-3.33053355e-16,1.002 Z" id="a"></path>
            </g>
            <g id="Clipped" transform="translate(10.000000, 9.000000)">
                <mask id="mask-2" fill="white">
                    <use xlink:href="#path-1"></use>
                </mask>
                <g id="a"></g>
                <g id="Group" mask="url(#mask-2)" fill="#FFFFFF" fill-rule="nonzero">
                    <g transform="translate(4.000000, 6.000000)" id="Shape">
                        <polygon points="5 1 7 1 7 10 5 10"></polygon>
                        <polygon points="6 0.48 5.521 0.002 0.995 4.529 2.465 5.999 6 2.462 9.536 5.997 11.006 4.527 6.479 0.001 6 0.479"></polygon>
                    </g>
                </g>
            </g>
        </g>
    </g>
</svg>