<?xml version="1.0" encoding="UTF-8"?>
<svg width="16px" height="16px" viewBox="0 0 16 16" version="1.1" xmlns="http://www.w3.org/2000/svg" xmlns:xlink="http://www.w3.org/1999/xlink">
    <!-- Generator: Sketch 49.2 (51160) - http://www.bohemiancoding.com/sketch -->
    <title>icon-lock</title>
    <desc>Created with Sketch.</desc>
    <defs></defs>
    <g id="Page-1" stroke="none" stroke-width="1" fill="none" fill-rule="evenodd">
        <g id="ico_share_lock" transform="translate(2.000000, 2.000000)" fill="#777777">
            <g id="Group">
                <rect id="Combined-Shape" x="1.33333333" y="5" width="9.33333333" height="6" rx="1"></rect>
                <path d="M8.33333333,7 L8.33333333,4.33333333 C8.33333333,3.04466892 7.28866442,2 6,2 C4.71133558,2 3.66666667,3.04466892 3.66666667,4.33333333 L3.66666667,7 L2.66666667,7 L2.66666667,4.33333333 C2.66666667,2.49238417 4.15905083,1 6,1 C7.84094917,1 9.33333333,2.49238417 9.33333333,4.33333333 L9.33333333,7 L8.33333333,7 Z M8.33333333,7 L8.33333333,4.33333333 C8.33333333,3.04466892 7.28866442,2 6,2 C4.71133558,2 3.66666667,3.04466892 3.66666667,4.33333333 L3.66666667,7 L2.66666667,7 L2.66666667,4.33333333 C2.66666667,2.49238417 4.15905083,1 6,1 C7.84094917,1 9.33333333,2.49238417 9.33333333,4.33333333 L9.33333333,7 L8.33333333,7 Z" id="Rectangle-4" fill-rule="nonzero"></path>
            </g>
        </g>
    </g>
</svg>