<?xml version="1.0" encoding="UTF-8"?>
<svg width="24px" height="24px" viewBox="0 0 24 24" version="1.1" xmlns="http://www.w3.org/2000/svg" xmlns:xlink="http://www.w3.org/1999/xlink">
    <!-- Generator: Sketch 49.2 (51160) - http://www.bohemiancoding.com/sketch -->
    <title>icon-mode-info</title>
    <desc>Created with Sketch.</desc>
    <defs></defs>
    <g id="Page-1" stroke="none" stroke-width="1" fill="none" fill-rule="evenodd">
        <g id="ic_gridview-copy" transform="translate(2.000000, 2.000000)">
            <rect id="bg" x="0" y="0" width="20" height="20"></rect>
            <path d="M11,13 L11,10 L11,8 L8,8 L8,10 L9,10 L9,13 L8,13 L8,15 L9,15 L11,15 L12,15 L12,13 L11,13 Z M10,19 C5.02943725,19 1,14.9705627 1,10 C1,5.02943725 5.02943725,1 10,1 C14.9705627,1 19,5.02943725 19,10 C19,14.9705627 14.9705627,19 10,19 Z M8.5,5.5 C8.5,6.33420277 9.17157288,7 10,7 C10.8342028,7 11.5,6.32842712 11.5,5.5 C11.5,4.66579723 10.8284271,4 10,4 C9.16579723,4 8.5,4.67157288 8.5,5.5 Z" id="Combined-Shape" fill="#2980FF"></path>
        </g>
    </g>
</svg>