<svg width="40" height="40" viewBox="0 0 40 40" xmlns="http://www.w3.org/2000/svg"><title>icon-safebox-m</title><g fill="none" fill-rule="evenodd"><path d="M0 0h40v40H0z"/><path d="M20 24.055h.948a.471.471 0 0 0 .426-.288l3.108-7.008a.262.262 0 0 0-.111-.338.223.223 0 0 0-.102-.025h-1.613a.471.471 0 0 0-.426.288L20 21.712l-2.23-5.028a.471.471 0 0 0-.426-.288H15.73a.223.223 0 0 0-.102.025.262.262 0 0 0-.111.338l3.108 7.008a.471.471 0 0 0 .426.288H20zm-.006 5.857c-5.168-1.747-10.18-8.388-8.76-16.807l8.76-3.017 8.76 3.017c1.444 8.419-3.443 15.06-8.76 16.807z" fill="#1CB972"/></g></svg>