<?xml version="1.0" encoding="UTF-8"?>
<svg width="218px" height="180px" viewBox="0 0 218 180" version="1.1" xmlns="http://www.w3.org/2000/svg" xmlns:xlink="http://www.w3.org/1999/xlink">
    <!-- Generator: Sketch 51.2 (57519) - http://www.bohemiancoding.com/sketch -->
    <title>Group 4</title>
    <desc>Created with Sketch.</desc>
    <defs>
        <path d="M10.5,5.46 L16.51,5.46 C16.7861424,5.46 17.01,5.68385763 17.01,5.96 L17.01,15.88 C17.01,16.1561424 16.7861424,16.38 16.51,16.38 L4.49,16.38 C4.21385763,16.38 3.99,16.1561424 3.99,15.88 L3.99,5.46 L3.99,4.91 C3.99,4.63385763 4.21385763,4.41 4.49,4.41 L9.2125,4.41 C9.5272573,4.41 9.82364562,4.55819416 10.0125,4.81 L10.5,5.46 Z" id="path-1"></path>
        <path d="M10.5,5.46 L16.51,5.46 C16.7861424,5.46 17.01,5.68385763 17.01,5.96 L17.01,15.88 C17.01,16.1561424 16.7861424,16.38 16.51,16.38 L4.49,16.38 C4.21385763,16.38 3.99,16.1561424 3.99,15.88 L3.99,5.46 L3.99,4.91 C3.99,4.63385763 4.21385763,4.41 4.49,4.41 L9.2125,4.41 C9.5272573,4.41 9.82364562,4.55819416 10.0125,4.81 L10.5,5.46 Z" id="path-3"></path>
        <path d="M10.2707071,5.34266033 L15.6385455,5.34266033 C16.1908302,5.34266033 16.6385455,5.79037558 16.6385455,6.34266033 L16.6385455,15.027981 C16.6385455,15.5802657 16.1908302,16.027981 15.6385455,16.027981 L4.90286869,16.027981 C4.35058394,16.027981 3.90286869,15.5802657 3.90286869,15.027981 L3.90286869,5.34266033 L3.90286869,5.31522565 C3.90286869,4.7629409 4.35058394,4.31522565 4.90286869,4.31522565 L9.00029775,4.31522565 C9.3151149,4.31522565 9.61155232,4.46347587 9.80039977,4.71536171 L10.2707071,5.34266033 Z" id="path-5"></path>
        <path d="M10.5,5.46 L16.51,5.46 C16.7861424,5.46 17.01,5.68385763 17.01,5.96 L17.01,15.88 C17.01,16.1561424 16.7861424,16.38 16.51,16.38 L4.49,16.38 C4.21385763,16.38 3.99,16.1561424 3.99,15.88 L3.99,5.46 L3.99,4.91 C3.99,4.63385763 4.21385763,4.41 4.49,4.41 L9.2125,4.41 C9.5272573,4.41 9.82364562,4.55819416 10.0125,4.81 L10.5,5.46 Z" id="path-7"></path>
        <path d="M10.5,5.46 L16.51,5.46 C16.7861424,5.46 17.01,5.68385763 17.01,5.96 L17.01,15.88 C17.01,16.1561424 16.7861424,16.38 16.51,16.38 L4.49,16.38 C4.21385763,16.38 3.99,16.1561424 3.99,15.88 L3.99,5.46 L3.99,4.91 C3.99,4.63385763 4.21385763,4.41 4.49,4.41 L9.2125,4.41 C9.5272573,4.41 9.82364562,4.55819416 10.0125,4.81 L10.5,5.46 Z" id="path-9"></path>
        <path d="M10.5,5.46 L16.51,5.46 C16.7861424,5.46 17.01,5.68385763 17.01,5.96 L17.01,15.88 C17.01,16.1561424 16.7861424,16.38 16.51,16.38 L4.49,16.38 C4.21385763,16.38 3.99,16.1561424 3.99,15.88 L3.99,5.46 L3.99,4.91 C3.99,4.63385763 4.21385763,4.41 4.49,4.41 L9.2125,4.41 C9.5272573,4.41 9.82364562,4.55819416 10.0125,4.81 L10.5,5.46 Z" id="path-11"></path>
        <path d="M10.5,5.46 L16.51,5.46 C16.7861424,5.46 17.01,5.68385763 17.01,5.96 L17.01,15.88 C17.01,16.1561424 16.7861424,16.38 16.51,16.38 L4.49,16.38 C4.21385763,16.38 3.99,16.1561424 3.99,15.88 L3.99,5.46 L3.99,4.91 C3.99,4.63385763 4.21385763,4.41 4.49,4.41 L9.2125,4.41 C9.5272573,4.41 9.82364562,4.55819416 10.0125,4.81 L10.5,5.46 Z" id="path-13"></path>
        <path d="M10.5,5.46 L16.51,5.46 C16.7861424,5.46 17.01,5.68385763 17.01,5.96 L17.01,15.88 C17.01,16.1561424 16.7861424,16.38 16.51,16.38 L4.49,16.38 C4.21385763,16.38 3.99,16.1561424 3.99,15.88 L3.99,5.46 L3.99,4.91 C3.99,4.63385763 4.21385763,4.41 4.49,4.41 L9.2125,4.41 C9.5272573,4.41 9.82364562,4.55819416 10.0125,4.81 L10.5,5.46 Z" id="path-15"></path>
        <linearGradient x1="7.81537224%" y1="68.0989583%" x2="106.020221%" y2="68.0989563%" id="linearGradient-17">
            <stop stop-color="#FBFCFC" offset="0%"></stop>
            <stop stop-color="#E2E2E4" offset="100%"></stop>
        </linearGradient>
        <linearGradient x1="0%" y1="50%" x2="100%" y2="50%" id="linearGradient-18">
            <stop stop-color="#E3E3E3" offset="0%"></stop>
            <stop stop-color="#B4B4B4" offset="100%"></stop>
        </linearGradient>
        <path d="M16.0323232,0 L15.1973064,10.023753 L0.835016835,10.023753 L4.4408921e-16,-1.77635684e-15 L16.0323232,-4.70621098e-17 Z" id="path-19"></path>
    </defs>
    <g id="Page-1" stroke="none" stroke-width="1" fill="none" fill-rule="evenodd">
        <g id="Group-4" transform="translate(-11.000000, -4.000000)">
            <rect id="Rectangle-13" x="0" y="0" width="240" height="190"></rect>
            <g id="Group" transform="translate(78.696970, 67.149644)">
                <rect id="Rectangle-25" fill="#E6E9EE" x="0" y="0" width="131.264646" height="90.2137767" rx="2"></rect>
                <ellipse id="Oval" fill="#120709" cx="65.6323232" cy="85.2019002" rx="1.5030303" ry="1.50356295"></ellipse>
                <path d="M2,0 L129.264646,0 C130.369216,1.54939706e-14 131.264646,0.8954305 131.264646,2 L131.264646,80.1900238 L0,80.1900238 L0,2 C-1.3527075e-16,0.8954305 0.8954305,2.02906125e-16 2,0 Z" id="Rectangle-25" fill="#120709"></path>
                <rect id="Rectangle" fill="#FFFFFF" x="4.00808081" y="4.51068884" width="123.248485" height="71.1686461"></rect>
            </g>
            <g id="Group-2" transform="translate(95.731313, 83.688836)">
                <g id="ico_folder" opacity="0.5">
                    <g>
                        <rect id="Rectangle-6" x="0" y="0" width="21" height="21"></rect>
                        <mask id="mask-2" fill="white">
                            <use xlink:href="#path-1"></use>
                        </mask>
                        <use id="Combined-Shape" fill="#6AABFF" xlink:href="#path-1"></use>
                        <rect id="Rectangle-7" fill="#4C94F0" mask="url(#mask-2)" x="3.99" y="4.41" width="13.02" height="2.94"></rect>
                    </g>
                </g>
                <g id="ico_folder" opacity="0.5" transform="translate(25.551515, 0.000000)">
                    <g>
                        <rect id="Rectangle-6" x="0" y="0" width="21" height="21"></rect>
                        <mask id="mask-4" fill="white">
                            <use xlink:href="#path-3"></use>
                        </mask>
                        <use id="Combined-Shape" fill="#6AABFF" xlink:href="#path-3"></use>
                        <rect id="Rectangle-7" fill="#4C94F0" mask="url(#mask-4)" x="3.99" y="4.41" width="13.02" height="2.94"></rect>
                    </g>
                </g>
                <g id="ico_folder" transform="translate(51.103030, 0.000000)">
                    <rect id="Rectangle-6" x="0" y="0" width="20.5414141" height="20.5486936"></rect>
                    <mask id="mask-6" fill="white">
                        <use xlink:href="#path-5"></use>
                    </mask>
                    <use id="Combined-Shape" fill="#6AABFF" xlink:href="#path-5"></use>
                    <rect id="Rectangle-7" fill="#4C94F0" mask="url(#mask-6)" x="3.90286869" y="4.31522565" width="12.7356768" height="2.8768171"></rect>
                </g>
                <g id="ico_folder" opacity="0.5" transform="translate(76.654545, 0.000000)">
                    <g>
                        <rect id="Rectangle-6" x="0" y="0" width="21" height="21"></rect>
                        <mask id="mask-8" fill="white">
                            <use xlink:href="#path-7"></use>
                        </mask>
                        <use id="Combined-Shape" fill="#6AABFF" xlink:href="#path-7"></use>
                        <rect id="Rectangle-7" fill="#4C94F0" mask="url(#mask-8)" x="3.99" y="4.41" width="13.02" height="2.94"></rect>
                    </g>
                </g>
                <rect id="Rectangle-5" fill="#D8D8D8" opacity="0.5" x="55.1111111" y="17.5415677" width="12.5252525" height="1.0023753"></rect>
                <rect id="Rectangle-5" fill="#D8D8D8" opacity="0.5" x="4.00808081" y="17.5415677" width="12.5252525" height="1.0023753"></rect>
                <rect id="Rectangle-5" fill="#D8D8D8" opacity="0.5" x="29.559596" y="17.5415677" width="12.5252525" height="1.0023753"></rect>
                <rect id="Rectangle-5" fill="#D8D8D8" opacity="0.5" x="80.6626263" y="17.5415677" width="12.5252525" height="1.0023753"></rect>
                <rect id="Rectangle-5" fill="#D8D8D8" opacity="0.5" x="4.00808081" y="38.0902613" width="12.5252525" height="1.0023753"></rect>
                <rect id="Rectangle-5" fill="#D8D8D8" opacity="0.5" x="29.559596" y="38.0902613" width="12.5252525" height="1.0023753"></rect>
                <rect id="Rectangle-5" fill="#D8D8D8" opacity="0.5" x="55.1111111" y="38.0902613" width="12.5252525" height="1.0023753"></rect>
                <rect id="Rectangle-5" fill="#D8D8D8" opacity="0.5" x="80.6626263" y="38.0902613" width="12.5252525" height="1.0023753"></rect>
                <g id="ico_folder" opacity="0.5" transform="translate(0.000000, 20.548694)">
                    <g>
                        <rect id="Rectangle-6" x="0" y="0" width="21" height="21"></rect>
                        <mask id="mask-10" fill="white">
                            <use xlink:href="#path-9"></use>
                        </mask>
                        <use id="Combined-Shape" fill="#6AABFF" xlink:href="#path-9"></use>
                        <rect id="Rectangle-7" fill="#4C94F0" mask="url(#mask-10)" x="3.99" y="4.41" width="13.02" height="2.94"></rect>
                    </g>
                </g>
                <g id="ico_folder" opacity="0.5" transform="translate(25.551515, 20.548694)">
                    <g>
                        <rect id="Rectangle-6" x="0" y="0" width="21" height="21"></rect>
                        <mask id="mask-12" fill="white">
                            <use xlink:href="#path-11"></use>
                        </mask>
                        <use id="Combined-Shape" fill="#6AABFF" xlink:href="#path-11"></use>
                        <rect id="Rectangle-7" fill="#4C94F0" mask="url(#mask-12)" x="3.99" y="4.41" width="13.02" height="2.94"></rect>
                    </g>
                </g>
                <g id="ico_folder" opacity="0.5" transform="translate(51.103030, 20.548694)">
                    <g>
                        <rect id="Rectangle-6" x="0" y="0" width="21" height="21"></rect>
                        <mask id="mask-14" fill="white">
                            <use xlink:href="#path-13"></use>
                        </mask>
                        <use id="Combined-Shape" fill="#6AABFF" xlink:href="#path-13"></use>
                        <rect id="Rectangle-7" fill="#4C94F0" mask="url(#mask-14)" x="3.99" y="4.41" width="13.02" height="2.94"></rect>
                    </g>
                </g>
                <g id="ico_folder" opacity="0.5" transform="translate(76.654545, 20.548694)">
                    <g>
                        <rect id="Rectangle-6" x="0" y="0" width="21" height="21"></rect>
                        <mask id="mask-16" fill="white">
                            <use xlink:href="#path-15"></use>
                        </mask>
                        <use id="Combined-Shape" fill="#6AABFF" xlink:href="#path-15"></use>
                        <rect id="Rectangle-7" fill="#4C94F0" mask="url(#mask-16)" x="3.99" y="4.41" width="13.02" height="2.94"></rect>
                    </g>
                </g>
            </g>
            <rect id="Rectangle-4" fill="#D0D0D0" x="26.0909091" y="176.408551" width="202.909091" height="7.01662708"></rect>
            <rect id="Rectangle-2" fill="#F6F7F8" x="131.30303" y="157.36342" width="26.0525253" height="17.04038"></rect>
            <rect id="Rectangle-3" fill="#E2E2E4" x="126.793939" y="174.4038" width="35.0707071" height="2.00475059" rx="1.0023753"></rect>
            <g id="Group-7" transform="translate(11.323683, 87.347379)">
                <path d="M70.6720897,93.5410299 L73.6280699,91.4091733 C80.8157669,83.9851412 84.4463365,80.8876891 84.5197787,82.1168172 L85.5045907,82.0825295 C89.0201119,88.0211065 91.7276833,92.4721469 93.6273051,95.4356506 C93.7457726,95.6204658 93.8662582,95.8015226 93.9881635,96.0071846 L72.5520439,96.0047432 C72.1436383,95.4820256 71.5169869,94.6607878 70.6720897,93.5410299 Z" id="Path-3" fill="#F7D0C3"></path>
                <path d="M45.2227096,10.0118348 C46.0018432,9.3855295 55.4706974,11.5251741 56.6778853,11.9281114 C59.4502823,19.4581583 60.9593765,25.3398484 61.205168,29.5731816 C61.5738553,35.9231814 59.9849565,40.9962321 58.0281829,41.9985385 C56.0714093,43.0008449 50.6475429,41.8728057 49.450609,43.8515455 C48.652653,45.1707053 48.3270986,47.0101054 48.4739457,49.3697457 L30.4040529,48.8707219 C31.2040394,46.1185599 31.6252063,44.2261912 31.6675534,43.1936159 C31.7821548,40.3992182 31.7061684,38.6219571 31.6668319,38.0261367 C31.5751223,36.6370341 44.4446085,10.6360231 45.2227096,10.0118348 Z" id="Fill-36" fill="#F7D0C3"></path>
                <path d="M22.9432374,10.7579002 C23.8873589,9.63701974 24.6748961,8.93292817 25.3058492,8.64562551 C25.7719329,8.43339563 26.5100362,8.30471441 27.520159,8.25958185 C27.520159,8.25958185 26.3149883,2.87073286 34.4489488,0.68892364 C42.5845555,-1.49308412 56.3146342,3.75896336 58.291596,5.17140103 C59.3277739,5.91097706 62.501843,7.5135348 62.2292681,10.3619477 C62.0475514,12.2608897 59.5821451,15.0205208 54.8330491,18.640841 C55.2335605,19.8874107 55.2798456,21.3013775 54.9719045,22.8827415 C54.6639633,24.4641056 54.3012057,25.3659662 53.8836318,25.5883234 C51.019793,21.7090485 48.6758563,20.8067227 46.8518217,22.8813458 C44.1157699,25.9932805 48.9521339,30.3342726 49.58974,30.6262512 C49.3540549,31.2452198 49.1994882,32.7973745 48.4037036,34.418627 C47.607919,36.0398796 44.6840998,38.6050841 41.5370103,39.4153436 C39.4389506,39.9555165 36.15439,39.9084481 31.6833284,39.2741383 C30.4911797,37.6075712 29.2869552,35.9186266 28.0706551,34.2073045 C26.2462049,31.6403214 23.6978124,30.3908809 21.794736,26.6268005 C20.3907122,23.8497924 20.1573562,20.1522114 20.2803722,18.1338244 C20.4054961,16.0808512 20.9594466,14.4574367 21.3539216,13.494647 C21.6999452,12.6501119 22.2297172,11.7378629 22.9432374,10.7579002 Z" id="Fill-37" fill="#221F20"></path>
                <path d="M68.4827309,54.6689776 C75.2535478,57.7306432 77.2028399,64.2422038 81.1145688,71.7990143 C83.2443091,75.9142702 85.8498235,80.7655451 88.9311121,86.3528392 C86.8748871,88.7232816 84.5139296,90.8533699 81.8482394,92.7431039 C80.1458626,93.9499356 78.34644,95.0045864 76.4499798,95.9767419 L71.9607441,95.9762097 L67.0452167,89.4522246 L67.2740132,95.9767116 L0.228693877,95.9677053 C0.2816152,74.2486959 3.6472651,61.4972513 10.3256537,57.7986437 C14.0726677,55.7234213 18.0278004,54.4970015 21.8003127,53.777658 C22.2336611,53.695027 22.6645998,53.6190869 23.0925366,53.5493199 C23.3013444,53.5152776 23.4435998,50.6121486 24.9185253,49.0174209 C25.6900684,48.1832086 28.5059331,46.8554051 32.0535642,46.3593575 C35.6230028,45.8602608 39.9311406,46.1964854 42.9564602,46.5272956 C48.9886164,47.1868949 52.6833798,48.4202591 54.7172185,49.3648337 C56.7510573,50.3094082 56.8434269,53.0871493 57.3358094,53.1138184 C62.2695091,53.3810445 66.6782776,53.8531682 68.4827309,54.6689776 Z" id="Fill-43" fill="#5194F6"></path>
                <path d="M9.2168314,68.8613551 C9.2168314,68.8613551 9.10201296,84.2953055 9.12560807,96.0116972 L7.45157746,96.0116972 C7.84385657,89.9819508 8.43227455,80.9319029 9.2168314,68.8613551 Z" id="Fill-44" fill="#2A75E2"></path>
                <path d="M59.3888738,76.9475471 C61.5590194,80.477529 64.11008,84.6503025 67.0420553,89.4658676 L67.2790713,95.9674359 L67.011858,95.9680424 C65.3178619,91.7448812 62.7768672,85.4047161 59.3888738,76.9475471 Z" id="Fill-45" fill="#2A75E2"></path>
            </g>
            <g id="Group-6" transform="translate(137.119718, 17.682145) rotate(20.000000) translate(-137.119718, -17.682145) translate(128.101536, 6.405423)">
                <path d="M17.0363636,4.26139202 L13.7875129,1 L1.13297132,1 L1.00133912,21.4861491 L17.0363636,21.5525487 L17.0363636,4.26139202 Z" id="Rectangle-21" stroke="#2980FF" stroke-width="2" fill="#2980FF"></path>
                <polygon id="Rectangle-23" fill="#FFFFFF" opacity="0.5" points="14.0282828 4.54747351e-13 18.0363636 4.00950119 14.0282828 4.00950119"></polygon>
                <rect id="Rectangle-22" fill="#FFFFFF" opacity="0.5" x="2.50505051" y="7.51781473" width="13.5272727" height="1.0023753"></rect>
                <rect id="Rectangle-22" fill="#FFFFFF" opacity="0.5" x="2.50505051" y="9.52256532" width="10.020202" height="1.0023753"></rect>
                <rect id="Rectangle-22" fill="#FFFFFF" opacity="0.5" x="2.50505051" y="11.5273159" width="13.5272727" height="1.0023753"></rect>
                <rect id="Rectangle-22" fill="#FFFFFF" opacity="0.5" x="2.50505051" y="15.5368171" width="13.5272727" height="1.0023753"></rect>
                <rect id="Rectangle-22" fill="#FFFFFF" opacity="0.5" x="2.50505051" y="13.0308789" width="10.020202" height="1.0023753"></rect>
                <text id="w" font-family="HiraKakuStd-W8, Hiragino Kaku Gothic Std" font-size="7" font-weight="600" fill="#FFFFFF">
                    <tspan x="2.50505051" y="6.50950119">w</tspan>
                </text>
            </g>
            <g id="ic_pdf_small" transform="translate(147.892465, 62.848941) rotate(-31.000000) translate(-147.892465, -62.848941) translate(141.128829, 55.080533)">
                <rect id="Rectangle-27" fill="#FE6C6C" x="0" y="0" width="13.374452" height="15.0515905" rx="1"></rect>
                <path d="M5.67915317,9.95751174 C5.44538468,10.3982901 5.16318347,10.858588 4.96660972,11.1037385 C4.31862465,12.0137002 3.2405028,12.4009582 2.82678338,11.5989036 C2.50874306,10.9823367 2.8803226,10.3472718 3.57506846,9.92582513 C3.71557202,9.83756613 4.43169378,9.55817209 5.06985233,9.31671205 C5.17412333,9.10738962 5.25130715,8.92927897 5.27319512,8.83306821 L5.27932964,8.80610333 L5.28896099,8.78018162 C5.60763975,7.92249344 6.03920886,6.60070977 6.10641889,6.24749242 C6.11332203,6.21121347 6.13469481,6.12542089 6.16134098,6.02274563 C5.76127445,5.1318273 5.44437468,4.28142396 5.44437468,3.93353523 C5.44437468,2.6914227 6.91563308,2.57890123 7.27812683,3.70785767 C7.38889,4.05282029 7.37351398,4.48417549 7.27144279,5.02255886 C7.23407675,5.21964928 7.1862331,5.42435773 7.12526449,5.65685269 C7.12554728,5.65577434 7.08851883,5.79066028 7.04634017,5.94680849 C7.46151864,6.83239601 7.93891989,7.7332729 8.18572992,8.05411981 C8.24331648,8.11082119 8.30078376,8.16635153 8.35793748,8.22049621 C9.21095346,7.98629575 9.79510207,7.89024373 10.0680018,7.96772593 C11.1894194,8.28612096 10.9949687,10.0558625 9.84592541,10.0558625 C9.43999414,10.0558625 8.99408876,9.8249458 8.47836217,9.42834701 C8.36285905,9.33952399 8.25286954,9.24969127 8.14507675,9.15691936 C7.36621607,9.38775381 6.44979992,9.68688252 5.67915317,9.95751174 Z M6.7152208,7.17784523 C6.55211791,7.70729128 6.3260658,8.37782902 6.12683942,8.92387115 C6.2863525,8.86917917 6.44834921,8.81446668 6.61134722,8.76027777 C6.91289687,8.66002718 7.19766514,8.5678571 7.464889,8.48440462 C7.26674912,8.20411944 6.99508868,7.72556673 6.7152208,7.17784523 Z M6.48227037,3.96357834 C6.39562451,3.69372706 6.28027793,3.70254874 6.28027793,3.93353523 C6.28027793,4.0578268 6.35922008,4.31782675 6.48629212,4.65089074 C6.53003545,4.34487722 6.52895586,4.1089764 6.48227037,3.96357834 Z M4.04820033,10.613497 L4.02913851,10.6283113 L4.00849854,10.6408319 C3.67088428,10.8456355 3.52995224,11.0564651 3.55826987,11.18389 C3.58188348,11.1817384 3.61560154,11.1743736 3.65737653,11.1592128 C3.8561734,11.087066 4.09334622,10.8917154 4.29159213,10.6103823 L4.30900814,10.5873939 C4.34407527,10.5442811 4.38390887,10.4900692 4.4269492,10.4275608 C4.23372061,10.5085914 4.10026885,10.5730306 4.04820033,10.613497 Z M9.84592541,9.21966303 C10.004217,9.21966303 10.0469249,8.83096879 9.83976919,8.77215276 C9.75799996,8.74893668 9.50206958,8.79346686 9.14023073,8.88242578 C9.43165727,9.09276177 9.68000302,9.21966303 9.84592541,9.21966303 Z" id="pdf" fill="#FFFFFF" fill-rule="nonzero"></path>
            </g>
            <g id="ico_mov_small" transform="translate(120.867922, 48.461525) rotate(12.000000) translate(-120.867922, -48.461525) translate(112.100246, 38.688366)">
                <rect id="Path" fill="#FFA72C" x="-5.45696821e-12" y="0" width="17.0343434" height="19.0451306" rx="1"></rect>
                <path d="M8.99628527,9.81534743 L8.99628527,13.323661 L11.0003257,13.323661 L11.0003257,14.3260363 L5.99022467,14.3260363 L5.99022467,13.323661 L7.99426507,13.323661 L7.99426507,9.81534743 L3.98618426,9.81534743 L4.73769941,5.30465859 L12.2528509,5.30465859 L13.0043661,9.81534743 L8.99628527,9.81534743 Z" id="ico_keynotes_small" fill="#FFFFFF" transform="translate(8.495275, 9.815347) rotate(1.000000) translate(-8.495275, -9.815347) "></path>
            </g>
            <g id="ico_mov_small" transform="translate(155.635704, 85.469769) rotate(30.000000) translate(-155.635704, -85.469769) translate(150.625603, 79.706111)">
                <rect id="Rectangle-23-Copy" fill="#02BD88" x="0" y="0" width="9.94112583" height="11.1877299" rx="1"></rect>
                <path d="M3.69391246,3.66819358 L7.04992871,5.62656349 L3.69391246,7.58493339 L3.69391246,3.66819358 Z" id="Rectangle-7" stroke="#FFFFFF" fill="#FFFFFF"></path>
            </g>
            <rect id="Rectangle-8" fill="#6AABFF" x="152.746409" y="90.8866787" width="5.51111111" height="1.50356295"></rect>
            <g id="Group-3" transform="translate(188.418182, 149.344418)">
                <polygon id="Rectangle-29" fill="url(#linearGradient-17)" points="1.5030303 3.00712589 18.5373737 3.00712589 16.5333333 27.064133 3.50707071 27.064133"></polygon>
                <rect id="Rectangle-10" fill="#FFFFFF" x="0" y="2.00475059" width="20.040404" height="2.00475059"></rect>
                <polygon id="Rectangle-10" fill="#F2F3F5" points="2.0040404 0 18.0363636 0 18.5373737 2.00475059 1.5030303 2.00475059"></polygon>
                <g id="Oval-2" transform="translate(2.004040, 9.021378)">
                    <mask id="mask-20" fill="white">
                        <use xlink:href="#path-19"></use>
                    </mask>
                    <use id="Mask" fill="url(#linearGradient-18)" xlink:href="#path-19"></use>
                    <ellipse fill="#FFFFFF" opacity="0.200000003" mask="url(#mask-20)" cx="1.0020202" cy="5.01187648" rx="3.50707071" ry="4.51068884"></ellipse>
                </g>
            </g>
        </g>
    </g>
</svg>