<?xml version="1.0" encoding="UTF-8"?>
<svg width="159px" height="36px" viewBox="0 0 159 36" version="1.1" xmlns="http://www.w3.org/2000/svg" xmlns:xlink="http://www.w3.org/1999/xlink">
    <!-- Generator: Sketch 49.2 (51160) - http://www.bohemiancoding.com/sketch -->
    <title>logo-v2</title>
    <desc>Created with Sketch.</desc>
    <defs></defs>
    <g id="Page-1" stroke="none" stroke-width="1" fill="none" fill-rule="evenodd">
        <g id="logo-v2">
            <rect id="Rectangle-17" x="0" y="0" width="160" height="36"></rect>
            <g id="Group-2" transform="translate(55.000000, 5.380001)" fill="#000000">
                <path d="M1.06892398,16.6180171 C1.06892398,20.4433365 0.759788103,23.348413 0.122761689,25.9215951 C0.0553291871,26.1590839 0.128029853,26.2235663 0.252358528,26.2235663 L2.3627851,26.2235663 C3.06724402,22.6886281 3.15848862,19.755525 3.17092149,17.6276081 L6.11961835,17.6276081 L6.11961835,24.1691929 L4.02583917,24.1691929 C3.92321534,24.1691929 3.84419287,24.2355718 3.8983496,24.3807624 L4.47510822,26.2732977 L8.2195086,26.2732977 L8.2195086,1.70574084 L1.06892398,1.70574084 L1.06892398,16.6180171 Z M3.17302876,15.7342299 L6.11961835,15.7342299 L6.11961835,10.6991293 L3.17302876,10.6991293 L3.17302876,15.7342299 Z M3.17302876,8.80554035 L6.11961835,8.80554035 L6.11961835,3.80984561 L3.17302876,3.80984561 L3.17302876,8.80554035 Z" id="Fill-2"></path>
                <path d="M21.1686351,10.2344772 L23.9938462,10.2344772 L23.9938462,8.341099 L15.7632879,8.341099 C16.0111024,7.73610302 16.2353154,7.08664374 16.4386666,6.38429209 L23.4771447,6.38429209 L23.4771447,4.49070315 L21.4156066,4.49070315 C21.7590909,3.3203278 22.163686,1.9394366 22.1874981,1.85957123 C22.2279576,1.71964879 22.154414,1.66549206 22.0640123,1.66549206 L20.2722043,1.66549206 L19.4423631,4.49070315 L16.9106941,4.49070315 C17.14734,3.39618936 17.3527984,2.18324724 17.5395022,0.823007244 C17.561207,0.665383771 17.4760735,0.633142606 17.372396,0.633142606 L15.3325628,0.633142606 C15.1249971,2.07956977 14.906263,3.32559596 14.6270503,4.49070315 L13.3852386,4.49070315 L12.5551867,1.66549206 L10.7633786,1.66549206 C10.672977,1.66549206 10.5994334,1.71964879 10.6409465,1.85957123 C10.663705,1.9394366 11.0693536,3.3203278 11.4128379,4.49070315 L9.40419229,4.49070315 L9.40419229,6.38429209 L14.0939121,6.38429209 C13.9029938,6.98296627 13.6227274,7.68637155 13.3230743,8.341099 L8.88854438,8.341099 L8.88854438,10.2344772 L12.2201314,10.2344772 C10.8765388,12.1415526 9.44149089,13.0192288 8.86873608,13.3688242 L8.86873608,15.5350933 C8.86873608,15.6440389 8.95492325,15.76036 9.29735392,15.5662808 C9.9198402,15.2124709 10.5838396,14.8131441 11.257111,14.3160401 L19.0936106,14.3160401 L19.0272317,17.1515768 L12.8405104,17.1515768 L12.9349159,15.4562816 C12.9349159,15.382738 12.8820236,15.3277383 12.806162,15.3277383 L10.8276503,15.3277383 L10.6285136,18.9174654 C10.6285136,18.9901661 10.6824596,19.0451657 10.7570569,19.0451657 L21.4312004,19.0451657 L21.4312004,24.1651891 L16.6203129,24.1651891 C16.5185319,24.1651891 16.4397202,24.2317787 16.4934555,24.3769693 L17.0693712,26.2692939 L23.7449781,26.2692939 L23.7449781,17.1515768 L21.1323901,17.1515768 L21.2183666,13.4695515 C22.1959271,14.3784152 23.1867634,15.0548474 24.0882517,15.5662808 C24.4306824,15.76036 24.5168695,15.6440389 24.5168695,15.5350933 L24.5168695,13.3688242 C23.9451684,13.0192288 22.5111741,12.1394454 21.1686351,10.2344772 Z M18.5935564,10.2344772 C19.0967715,11.0634755 19.6393924,11.7866891 20.1995036,12.4226619 L13.3125379,12.4226619 C13.8479941,11.805233 14.3655386,11.0853911 14.8470488,10.2344772 L18.5935564,10.2344772 Z" id="Fill-4"></path>
                <path d="M49.2187225,1.65303812 L34.6788,1.65303812 L34.6788,3.96871237 L39.056223,3.96871237 L39.056223,11.42759 L34.0396663,11.42759 L34.0396663,13.7211379 L39.056223,13.7211379 L39.056223,26.3959195 L41.36979,26.3959195 L41.36979,13.7211379 L46.9041019,13.7211379 L46.9041019,26.1251359 L51.2739387,26.1251359 L51.2739387,23.8105153 L49.2187225,23.8105153 L49.2187225,1.65303812 Z M41.36979,11.42759 L46.9038911,11.42759 L46.9038911,3.96871237 L41.36979,3.96871237 L41.36979,11.42759 Z" id="Fill-6"></path>
                <path d="M36.1456466,19.0488745 C36.1062407,19.0790084 34.1441657,20.5656843 32.243412,22.0057897 L32.243412,8.32816039 L26.8370112,8.32816039 L26.8370112,10.642781 L29.9443852,10.642781 L29.9443852,23.7478662 C29.2047349,24.3090311 28.7013091,24.6887604 28.7013091,24.6887604 L29.9713582,26.3665653 L36.3540552,21.5306013 L36.3540552,19.1474945 C36.3540552,19.0332807 36.2286729,18.9856565 36.1456466,19.0488745" id="Fill-8"></path>
                <path d="M30.250044,6.25640214 L32.779395,6.25640214 C32.8915016,6.25640214 32.9372292,6.13502363 32.8874978,6.05916207 C32.8417701,5.9887794 29.6968868,1.18716383 29.6968868,1.18716383 L27.1675358,1.18716383 C27.0720767,1.18716383 27.0025369,1.29716309 27.0554293,1.3780821 C27.1083217,1.4590011 30.250044,6.25640214 30.250044,6.25640214" id="Fill-10"></path>
                <polygon id="Fill-1" points="8.88513061 22.6159274 20.3568742 22.6159274 20.3568742 20.5118226 8.88513061 20.5118226"></polygon>
                <polygon id="Fill-12" points="83.1538128 4.52463013 101.429496 4.52463013 101.429496 2.20874515 83.1538128 2.20874515"></polygon>
                <path d="M89.7823435,13.2763363 L104.003437,13.2763363 L104.003437,10.9604513 L80.5797035,10.9604513 L80.5797035,13.2763363 L87.0783001,13.2763363 C85.7359719,16.8007381 82.3675077,25.6451429 82.3445385,25.7092038 C82.3076614,25.8118276 82.3750939,25.8878999 82.4638098,25.8878999 L102.66743,25.8878999 C102.762889,25.8878999 102.817678,25.7937051 102.783751,25.7043571 C102.762468,25.6485145 99.7712042,17.7844097 99.7712042,17.7844097 L97.2563934,17.7844097 C97.1609342,17.7844097 97.1038273,17.8769187 97.135647,17.9603664 C97.1674667,18.0440249 99.267357,23.5720149 99.267357,23.5720149 L85.8712584,23.5720149 L89.7823435,13.2763363 Z" id="Fill-14"></path>
                <polygon id="Fill-15" points="68.9375032 2.21059955 66.9374973 2.21059955 66.9374973 7.57485505 65.5603992 7.57485505 65.5603992 0.657334016 63.5603934 0.657334016 63.5603934 7.57485505 62.1832952 7.57485505 62.1832952 2.21059955 60.1832894 2.21059955 60.1832894 9.46949762 68.9375032 9.46949762"></polygon>
                <path d="M59.5475063,8.02298617 L57.4552022,8.02298617 C56.6249395,9.92795434 55.2482628,12.7173419 53.4444434,15.8230301 C53.389233,15.9176463 53.4623552,16.0204809 53.5548641,16.0204809 L55.7588533,16.0204809 C55.9822235,15.6266329 56.1977967,15.2391068 56.4066268,14.8579024 L56.4066268,26.4052968 L58.5119959,26.4052968 L58.5119959,10.765171 C58.9833912,9.7808672 59.3715496,8.91372737 59.6655131,8.20589683 C59.7032332,8.11507368 59.6353792,8.02298617 59.5475063,8.02298617" id="Fill-16"></path>
                <polygon id="Fill-17" points="60.1584869 12.8485403 68.9419917 12.8485403 68.9419917 10.953687 60.1584869 10.953687"></polygon>
                <path d="M68.8721569,20.1028234 L68.8721569,14.4424971 L60.6399128,14.4424971 L60.6399128,17.5595645 C60.6399128,19.7256229 60.534971,22.1211625 59.3753427,25.4929983 C59.3462624,25.5772889 59.4044229,25.6554685 59.4988284,25.6554685 L61.5405581,25.6554685 C62.6409723,22.2570811 62.7450712,19.7947412 62.7450712,17.5595645 L62.7450712,16.3373504 L66.7667877,16.3373504 L66.7667877,21.7844215 L65.8832112,22.4901447 L67.0658087,23.9704989 L70.8150558,20.9758636 L70.8150558,18.8190772 C70.8150558,18.7080243 70.6858804,18.6540783 70.6028542,18.7202464 C70.5046556,18.7988474 68.8721569,20.1028234 68.8721569,20.1028234" id="Fill-18"></path>
                <path d="M72.5709982,5.71496129 L75.2605014,5.71496129 L75.2491221,5.98827365 C75.1028779,9.53206234 74.9345074,13.5449284 73.7312587,17.1466669 C72.6272622,13.6401768 72.5737376,9.65596956 72.5709982,5.71496129 M74.9142776,19.9442728 C76.9589575,15.5807577 77.1703162,10.4891824 77.3525947,6.07488227 L77.3675563,5.71496129 L78.2268992,5.71496129 L78.2268992,3.820108 L72.2060198,3.820108 C72.2479543,3.68397863 72.8143874,1.84412497 73.0925464,0.960127021 C73.1205731,0.870778957 73.0554585,0.788806322 72.9711679,0.788806322 L70.9395531,0.788806322 C70.7553781,1.37757635 69.8332386,4.37157942 69.4625706,5.55797 C69.4370727,5.63931046 69.5152522,5.71496129 69.5875314,5.71496129 L70.4658398,5.71496129 C70.4690007,10.4721136 70.5490768,15.5687463 72.5379141,19.9095029 C71.7089158,21.4183051 70.6085016,22.7926638 69.1443735,23.9520814 L69.1443735,26.295993 C69.1443735,26.3994597 69.2598516,26.4584632 69.348146,26.4005134 C71.2271948,25.1658664 72.6481241,23.6869873 73.7295728,22.0549101 C74.8226115,23.6989988 76.2793643,25.1884141 78.2273207,26.4481376 C78.3269944,26.5126199 78.4268788,26.4291722 78.4268788,26.3423528 L78.4268788,24.0161422 C76.8862568,22.8360735 75.7508621,21.4602397 74.9142776,19.9442728" id="Fill-19"></path>
                <path d="M56.0422173,8.59260116 C57.7956731,5.58068632 59.1114498,2.90340528 59.8856592,1.09916441 C59.9238007,1.0102378 59.8597398,0.913935758 59.7680738,0.913935758 L57.4370165,0.913935758 C56.5776735,2.81595376 55.2267055,5.46815834 53.4696674,8.39515036 C53.414457,8.4874486 53.4759892,8.59260116 53.5756628,8.59260116 L56.0422173,8.59260116 Z" id="Fill-20"></path>
            </g>
            <path d="M34.8773331,31.7425417 C35.2644378,31.4269719 35.6384775,31.0956235 35.9965019,30.7474448 C39.3929928,27.443849 41.2636125,22.9168941 41.2636125,18.0001052 C41.2636125,17.4878301 41.2433827,16.981656 41.2056627,16.4813726 C43.1702665,18.0562766 44.431465,20.4716484 44.431465,23.1773444 C44.431465,28.2291972 40.7945352,31.4541109 34.8773331,31.7425417 Z M16.0779946,31.7658939 C12.1736527,31.7658939 9.02855872,30.82234 6.98345738,29.0374768 C5.18912066,27.4716192 4.2408511,25.247062 4.2408511,22.6042695 C4.2408511,19.8087413 5.23337323,17.382009 7.03508539,15.77113 C8.42840945,14.5250498 10.1921908,13.8629842 12.0762971,13.8629842 C12.3742644,13.8629842 12.6753927,13.8796043 12.9784175,13.9128443 C15.2159122,14.1598303 16.9550386,15.2203554 17.7503206,16.8230296 C18.3340332,17.9992637 18.3020028,19.2838434 17.6622369,20.3468931 C17.1645008,21.1743173 16.487647,21.6842782 15.6506411,21.8628907 C14.6838276,22.0694838 13.5092377,21.8199732 12.6579024,21.2277538 L10.5346215,24.8995144 C12.3116786,26.0187355 14.5281007,26.4319216 16.5373785,26.0033778 C18.5409667,25.5756754 20.1869519,24.3735646 21.2979024,22.5268497 C22.6756327,20.2364436 22.7700382,17.4015743 21.5503528,14.9432851 C20.249327,12.3213203 17.7351483,10.5143672 14.5559166,9.8764953 C15.069668,8.74906936 15.7987819,7.74766098 16.7295611,6.90256488 C18.6250466,5.18186759 21.2879982,4.23410609 24.2276339,4.23410609 C27.7299094,4.23410609 30.9643515,5.64449301 33.3346039,8.20565805 C35.712864,10.775659 37.0227403,14.2540805 37.0227403,18.0001052 C37.0227403,21.7648537 35.60729,25.2150842 33.0372687,27.714608 C30.3117313,30.3649741 26.5589019,31.7658939 22.1842183,31.7658939 L16.0779946,31.7658939 Z M39.9910348,11.0497841 C37.4656876,4.50297162 31.436379,-5.55389068e-14 24.2276339,-5.55389068e-14 C20.2303616,-5.55389068e-14 16.5542366,1.33885775 13.8763234,3.77021839 C12.0859905,5.39582396 10.7900221,7.46385848 10.071023,9.79213296 C7.8996965,10.1550383 5.88515051,11.115633 4.20565976,12.616904 C1.49360884,15.0419533 -2.10726568e-05,18.5887482 -2.10726568e-05,22.6042695 C-2.10726568e-05,26.5047131 1.44977771,29.831661 4.19217326,32.2251533 C7.02180961,34.6945927 11.1318206,36 16.0779946,36 L22.1842183,36 C22.214563,36 22.2444861,35.9991585 22.27462,35.9989481 L22.27462,36 L33.9998677,36 C42.7759971,36 48.6723372,30.8467441 48.6723372,23.1773444 C48.6723372,17.5610423 45.0358288,12.7799485 39.9910348,11.0497841 Z" id="Fill-22" fill="#2980FF"></path>
        </g>
    </g>
</svg>