<?xml version="1.0" encoding="UTF-8"?>
<svg width="40px" height="40px" viewBox="0 0 40 40" version="1.1" xmlns="http://www.w3.org/2000/svg" xmlns:xlink="http://www.w3.org/1999/xlink">
    <!-- Generator: Sketch 52.2 (67145) - http://www.bohemiancoding.com/sketch -->
    <title>ic_tencentexcel_mini</title>
    <desc>Created with Sketch.</desc>
    <g id="Page-1" stroke="none" stroke-width="1" fill="none" fill-rule="evenodd">
        <g id="ic_tencentexcel_mini">
            <rect id="bg" x="0" y="0" width="40" height="40"></rect>
            <path d="M7,3 L25.0713542,3 L25.999939,3 L34,10 L34,11.71875 L34,36 C34,36.5522847 33.5522847,37 33,37 L7,37 C6.44771525,37 6,36.5522847 6,36 L6,4 C6,3.44771525 6.44771525,3 7,3 Z" id="Rectangle-23-Copy" fill="#02BD88"></path>
            <g id="分组-2" transform="translate(12.000000, 21.000000)" fill="#FFFFFF" fill-rule="nonzero">
                <rect id="Rectangle" x="0" y="0" width="7" height="3"></rect>
                <rect id="Rectangle" x="0" y="5" width="7" height="3"></rect>
                <rect id="Rectangle" x="9" y="0" width="7" height="3"></rect>
                <rect id="Rectangle" x="9" y="5" width="7" height="3"></rect>
            </g>
            <g id="分组" transform="translate(13.000000, 21.000000)"></g>
            <polygon id="Rectangle" fill="#3AFF8B" fill-rule="nonzero" opacity="0.699999988" points="26 3 34 10 26 10"></polygon>
        </g>
    </g>
</svg>