<?xml version="1.0" encoding="UTF-8"?>
<svg width="40px" height="40px" viewBox="0 0 40 40" version="1.1" xmlns="http://www.w3.org/2000/svg" xmlns:xlink="http://www.w3.org/1999/xlink">
    <!-- Generator: Sketch 49.2 (51160) - http://www.bohemiancoding.com/sketch -->
    <title>icon-member-info-m</title>
    <desc>Created with Sketch.</desc>
    <defs></defs>
    <g id="Page-1" stroke="none" stroke-width="1" fill="none" fill-rule="evenodd">
        <rect id="头像" fill="#2980FF" x="0" y="0" width="40" height="40" rx="2"></rect>
        <path d="M20.2778886,20.6429926 C20.2683649,20.6559396 20.258448,20.66904 20.2481378,20.6822937 C19.7225024,21.3580025 19.768926,22.3762653 20.6870165,23.0983607 C21.5986064,23.8153431 22.7432797,24.5989842 23.6078816,25.1504429 C24.6888418,25.8398987 25.0984894,26.6829425 25.0752861,27.4041557 C25.0466247,28.2950226 24.3575184,29 23.4574017,29 C22.3715229,29 20.3984247,29 17.5381072,29 C14.6777898,29 12.7046916,29 11.6188128,29 C10.718696,29 10.0295897,28.2950226 10.0009283,27.4041557 C9.9777251,26.6829425 10.3873727,25.8398987 11.4683328,25.1504429 C12.3329348,24.5989842 13.4776081,23.8153431 14.389198,23.0983607 C15.3072885,22.3762653 15.3537121,21.3580025 14.8280766,20.6822937 C14.8177665,20.66904 14.8078496,20.6559396 14.7983258,20.6429926 C14.022551,19.7310239 13.5381072,18.4362294 13.5381072,17 C13.5381072,14.2385763 15.3289682,12 17.5381072,12 C19.7472462,12 21.5381072,14.2385763 21.5381072,17 C21.5381072,18.4362294 21.0536635,19.7310239 20.2778886,20.6429926 Z M27.0611351,27 C26.9391846,25.6233983 26.0855503,24.3585626 24.6833775,23.4642316 C23.7976522,22.8993001 22.8091949,22.2127154 22.0514484,21.6262004 C23.0069943,20.3561186 23.5381072,18.7194872 23.5381072,17 C23.5381072,15.1743971 22.9373324,13.4794853 21.930374,12.2148223 C22.2739439,12.0753687 22.6406234,12 23.0213856,12 C24.9706259,12 26.5507974,13.9752143 26.5507974,16.4117647 C26.5507974,17.6790259 25.9420222,19.2449369 25.4741674,19.888643 C25.0283422,20.5020395 24.893108,20.8559399 25.7031878,21.4930828 C26.5075319,22.1257144 27.6679971,23.0060968 28.4090005,23.5463781 C29.3291877,24.2173062 29.5585807,24.9555375 29.5381072,25.5919021 C29.5128178,26.3779611 29.0385132,27 28.2442925,27 L27.0611351,27 Z" id="Combined-Shape" fill="#FFFFFF"></path>
    </g>
</svg>