<svg width="64" height="64" viewBox="0 0 64 64" xmlns="http://www.w3.org/2000/svg"><title>icon-shared-link-l</title><path d="M31.93 35.097L26.4 22.23a1.214 1.214 0 0 0-1.097-.718h-4.15a.59.59 0 0 0-.263.062.644.644 0 0 0-.286.844l8 18.615c.202.44.629.718 1.097.718h4.457c.468 0 .895-.279 1.097-.718l8-18.615a.644.644 0 0 0-.286-.844.59.59 0 0 0-.263-.062h-4.15c-.469 0-.895.279-1.098.718L31.93 35.097zm.034-30.013l.05-.017.002.035 23.264 8.05c3.841 22.51-9.12 40.277-23.264 45.01l-.002.034a26.113 26.113 0 0 1-.05-.017l-.05.017-.002-.034C17.77 53.43 4.807 35.662 8.648 13.152l23.264-8.05.001-.035.05.017z" fill="#1CB972" fill-rule="evenodd"/></svg>