<?xml version="1.0" encoding="UTF-8"?>
<svg width="134px" height="134px" viewBox="0 0 134 134" version="1.1" xmlns="http://www.w3.org/2000/svg" xmlns:xlink="http://www.w3.org/1999/xlink">
    <!-- Generator: Sketch 49.3 (51167) - http://www.bohemiancoding.com/sketch -->
    <title>icon-ipa-l</title>
    <desc>Created with Sketch.</desc>
    <defs></defs>
    <g id="Page-1" stroke="none" stroke-width="1" fill="none" fill-rule="evenodd">
        <g id="weiyun2018_WEB_fileicon" transform="translate(-632.000000, -1587.000000)">
            <g id="fileico/dmg_large" transform="translate(632.000000, 1587.000000)">
                <g id="ico_dmg_large">
                    <rect id="Rectangle-8" x="0" y="0" width="134" height="134"></rect>
                    <path d="M11,1.9982312 C11,0.894638583 11.9015377,0 12.991504,0 L121.008496,0 C122.108373,0 123,0.89112382 123,1.9982312 L123,132.001769 C123,133.105361 122.098462,134 121.008496,134 L12.991504,134 C11.8916267,134 11,133.108876 11,132.001769 L11,1.9982312 Z" id="bg" fill="#E4E4E4"></path>
                    <path d="M12,1.99771747 C12,1.44669333 12.4432021,1 13.0015666,1 L120.998433,1 C121.551583,1 122,1.44866088 122,1.99771747 L122,131.002283 C122,131.553307 121.556798,132 120.998433,132 L13.0015666,132 C12.4484166,132 12,131.551339 12,131.002283 L12,1.99771747 Z" id="bg" fill="#FFFFFF"></path>
                    <path d="M69.5551547,42.0278445 C73.2668301,37.0252837 78.4419662,37 78.4419662,37 C78.4419662,37 79.2055109,41.7063803 75.5185799,46.2393866 C71.5912738,51.0794093 67.1019139,50.2847787 67.1019139,50.2847787 C67.1019139,50.2847787 66.253531,46.4777758 69.5763643,42.0278445 L69.5551547,42.0278445 Z M76.8666667,50.3333333 C84.6857544,50.3333333 88.2,55.7387387 88.2,55.7387387 C88.2,55.7387387 81.4044271,58.5006986 81.4044271,65.4687324 C81.4044271,73.3227807 89.3333333,76.2792793 89.3333333,76.2792793 C89.3333333,76.2792793 83.935122,90.2684238 76.8666667,90.2684238 C73.6139262,90.2684238 69.3433919,88.1711712 66.6666667,88.1711712 C63.9899414,88.1711712 60.9852306,90.3333333 58.7333333,90.3333333 C52.2695541,90.3333333 44,77.0324322 44,66.5495495 C44,56.1964859 49.9889868,50.3333333 56.4666667,50.3333333 C60.6715983,50.3333333 64.4773221,53.3089457 66.6666667,53.3089457 C68.8560112,53.3089457 72.3281206,50.3333333 76.8666667,50.3333333 Z" id="Fill-1" fill="#7C878E"></path>
                </g>
            </g>
        </g>
    </g>
</svg>