<?xml version="1.0" encoding="UTF-8"?>
<svg width="40px" height="40px" viewBox="0 0 40 40" version="1.1" xmlns="http://www.w3.org/2000/svg" xmlns:xlink="http://www.w3.org/1999/xlink">
    <!-- Generator: Sketch 49 (51002) - http://www.bohemiancoding.com/sketch -->
    <title>ico_bt_mini</title>
    <desc>Created with Sketch.</desc>
    <defs>
        <rect id="path-1" x="5" y="3" width="30" height="34" rx="1"></rect>
    </defs>
    <g id="Page-1" stroke="none" stroke-width="1" fill="none" fill-rule="evenodd">
        <g id="weiyun2018_WEB_fileicon" transform="translate(-718.000000, -500.000000)">
            <g id="fileico/bt_mini" transform="translate(718.000000, 500.000000)">
                <g id="ico_bt_mini">
                    <rect id="bg" x="0" y="0" width="40" height="40"></rect>
                    <g id="Rectangle-23-Copy">
                        <use fill="#FFFFFF" fill-rule="evenodd" xlink:href="#path-1"></use>
                        <rect stroke="#E0E0E0" stroke-width="1" x="5.5" y="3.5" width="29" height="33" rx="1"></rect>
                    </g>
                    <path d="M26.8888889,27.8567767 C26.7688613,27.8778611 26.6465835,27.8888889 26.5230263,27.8888889 C25.0212375,27.8888889 23.9097222,26.7773736 23.9097222,25.5369152 C23.9097222,25.4930207 23.9106718,25.4494597 23.9125529,25.40625 L23.9097222,25.40625 L23.9097222,20.6892361 L21.9236111,20.6892361 L21.9236111,17.7100694 L23.9097222,17.7100694 L23.9097222,15.9722222 L26.8888889,15.9722222 L26.8888889,17.7100694 L28.875,17.7100694 L28.875,20.6892361 L26.8888889,20.6892361 L26.8888889,22.9559816 L26.8888889,24.9097222 L28.875,24.9097222 L28.875,27.8888889 L26.8888889,27.8888889 L26.8888889,27.8567767 Z M11,25.1579861 L11,14.9791667 L11,12 L15.46875,12 C17.9367725,12 19.9375,14.0007275 19.9375,16.46875 C19.9375,17.4405493 19.6272992,18.3398974 19.1005129,19.0731788 C20.2173313,19.9836537 20.9305556,21.3703412 20.9305556,22.9236111 C20.9305556,25.6658583 18.707525,27.8888889 15.9652778,27.8888889 L11,27.8888889 L11,25.1579861 Z M13.9791667,14.9791667 L13.9791667,17.9583333 L15.4701641,17.9583333 C16.2979218,17.9583333 16.9583333,17.2914242 16.9583333,16.46875 C16.9583333,15.6403403 16.2920573,14.9791667 15.4701641,14.9791667 L13.9791667,14.9791667 Z M13.9791667,20.9375 L13.9791667,25.1579861 L15.8468786,25.1579861 C17.0138937,25.1579861 17.9513889,24.2131981 17.9513889,23.0477431 C17.9513889,21.8741627 17.0091676,20.9375 15.8468786,20.9375 L13.9791667,20.9375 Z" id="ico_bt_small" fill="#FFA72B"></path>
                </g>
            </g>
        </g>
    </g>
</svg>