<?xml version="1.0" encoding="UTF-8"?>
<svg width="134px" height="134px" viewBox="0 0 134 134" version="1.1" xmlns="http://www.w3.org/2000/svg" xmlns:xlink="http://www.w3.org/1999/xlink">
    <!-- Generator: Sketch 49.3 (51167) - http://www.bohemiancoding.com/sketch -->
    <title>icon-xls-l</title>
    <desc>Created with Sketch.</desc>
    <defs></defs>
    <g id="Page-1" stroke="none" stroke-width="1" fill="none" fill-rule="evenodd">
        <g id="weiyun2018_WEB_fileicon" transform="translate(-632.000000, -860.000000)">
            <g id="fileico/xlsx_large" transform="translate(632.000000, 860.000000)">
                <g id="ico_xlsx_large">
                    <rect id="Rectangle-4" x="0" y="0" width="134" height="134"></rect>
                    <path d="M21,1.9982312 C21,0.894638583 21.8973093,0 22.9917534,0 L121.008247,0 C122.108262,0 123,0.89112382 123,1.9982312 L123,132.001769 C123,133.105361 122.102691,134 121.008247,134 L22.9917534,134 C21.8917384,134 21,133.108876 21,132.001769 L21,1.9982312 Z" id="bg" fill="#E4E4E4"></path>
                    <path d="M22,1.99771747 C22,1.44669333 22.4458427,1 23.0059586,1 L120.994041,1 C121.549617,1 122,1.44866088 122,1.99771747 L122,131.002283 C122,131.553307 121.554157,132 120.994041,132 L23.0059586,132 C22.450383,132 22,131.551339 22,131.002283 L22,1.99771747 Z" id="bg" fill="#FFFFFF"></path>
                    <path d="M84,39 L107,39 L107,49 L84,49 L84,39 Z M57,39 L80,39 L80,49 L57,49 L57,39 Z M84,53 L107,53 L107,63 L84,63 L84,53 Z M57,53 L80,53 L80,63 L57,63 L57,53 Z M84,67 L107,67 L107,77 L84,77 L84,67 Z M57,67 L80,67 L80,77 L57,77 L57,67 Z M84,81 L107,81 L107,91 L84,91 L84,81 Z M57,81 L80,81 L80,91 L57,91 L57,81 Z M84,95 L107,95 L107,105 L84,105 L84,95 Z M57,95 L80,95 L80,105 L57,105 L57,95 Z" id="Combined-Shape" fill="#EEEEEE"></path>
                    <g id="Group-8" transform="translate(11.000000, 34.000000)">
                        <path d="M0.893466876,5.90427141 L54.8934669,0.11855712 C55.4426087,0.0597205009 55.9354725,0.457191368 55.9943092,1.00633315 C55.9981003,1.04171763 56,1.07727927 56,1.11286627 L56,74.8871337 C56,75.4394185 55.5522847,75.8871337 55,75.8871337 C54.964413,75.8871337 54.9288514,75.8852341 54.8934669,75.8814429 L0.893466876,70.0957286 C0.385327297,70.0412851 6.25853143e-17,69.6124673 0,69.1014194 L0,6.89858056 C3.91316379e-16,6.38753269 0.385327297,5.95871493 0.893466876,5.90427141 Z" id="Rectangle-29" fill="#269758"></path>
                        <polygon id="ico_xlsx_small" fill="#FFFFFF" points="26.1764706 32.0495868 33.0941176 20.8727273 41 20 30.1294118 38 41 56 33.0941176 55.1272727 26.1764706 43.9504132 20.9058824 53.6 13 52.7272727 22.2235294 38 13 23.2727273 20.9058824 22.4"></polygon>
                    </g>
                </g>
            </g>
        </g>
    </g>
</svg>