<?xml version="1.0" encoding="UTF-8"?>
<svg width="40px" height="40px" viewBox="0 0 40 40" version="1.1" xmlns="http://www.w3.org/2000/svg" xmlns:xlink="http://www.w3.org/1999/xlink">
    <!-- Generator: Sketch 49 (51002) - http://www.bohemiancoding.com/sketch -->
    <title>ico_ai_mini</title>
    <desc>Created with Sketch.</desc>
    <defs>
        <rect id="path-1" x="5" y="3" width="30" height="34" rx="1"></rect>
    </defs>
    <g id="Page-1" stroke="none" stroke-width="1" fill="none" fill-rule="evenodd">
        <g id="weiyun2018_WEB_fileicon" transform="translate(-628.000000, -500.000000)">
            <g id="fileico/ai_mini" transform="translate(628.000000, 500.000000)">
                <g id="ico_ai_mini">
                    <rect id="bg" x="0" y="0" width="40" height="40"></rect>
                    <g id="Rectangle-23-Copy">
                        <use fill="#FFFFFF" fill-rule="evenodd" xlink:href="#path-1"></use>
                        <rect stroke="#E0E0E0" stroke-width="1" x="5.5" y="3.5" width="29" height="33" rx="1"></rect>
                    </g>
                    <path d="M14.8,24 L14,27 L11,27 L15,12 L18,12 L19,12 L23,27 L20,27 L19.2,24 L14.8,24 Z M15.6,21 L18.4,21 L17,15.75 L15.6,21 Z M25,16 L28,16 L28,27 L25,27 L25,16 Z M26.5,15 C25.6715729,15 25,14.3284271 25,13.5 C25,12.6715729 25.6715729,12 26.5,12 C27.3284271,12 28,12.6715729 28,13.5 C28,14.3284271 27.3284271,15 26.5,15 Z" id="Combined-Shape" fill="#FF8127"></path>
                </g>
            </g>
        </g>
    </g>
</svg>