<?xml version="1.0" encoding="UTF-8"?>
<svg width="134px" height="134px" viewBox="0 0 134 134" version="1.1" xmlns="http://www.w3.org/2000/svg" xmlns:xlink="http://www.w3.org/1999/xlink">
    <!-- Generator: Sketch 49.3 (51167) - http://www.bohemiancoding.com/sketch -->
    <title>icon-ppt-l</title>
    <desc>Created with Sketch.</desc>
    <defs></defs>
    <g id="Page-1" stroke="none" stroke-width="1" fill="none" fill-rule="evenodd">
        <g id="weiyun2018_WEB_fileicon" transform="translate(-264.000000, -1042.000000)">
            <g id="fileico/pptx_large" transform="translate(264.000000, 1042.000000)">
                <g id="ico_pptx_large">
                    <rect id="Rectangle-15" x="0" y="0" width="134" height="134"></rect>
                    <path d="M21,1.9982312 C21,0.894638583 21.8973093,0 22.9917534,0 L121.008247,0 C122.108262,0 123,0.89112382 123,1.9982312 L123,132.001769 C123,133.105361 122.102691,134 121.008247,134 L22.9917534,134 C21.8917384,134 21,133.108876 21,132.001769 L21,1.9982312 Z" id="bg" fill="#E4E4E4"></path>
                    <path d="M22,1.99771747 C22,1.44669333 22.4458427,1 23.0059586,1 L120.994041,1 C121.549617,1 122,1.44866088 122,1.99771747 L122,131.002283 C122,131.553307 121.554157,132 120.994041,132 L23.0059586,132 C22.450383,132 22,131.551339 22,131.002283 L22,1.99771747 Z" id="bg" fill="#FFFFFF"></path>
                    <path d="M36,83 L111,83 L111,88 L36,88 L36,83 Z M36,96 L111,96 L111,101 L36,101 L36,96 Z M81,35 L81,55 L101,55 C101,66.045695 92.045695,75 81,75 C69.954305,75 61,66.045695 61,55 C61,43.954305 69.954305,35 81,35 Z M85,31 C96.045695,31 105,39.954305 105,51 L85,51 L85,31 Z" id="Combined-Shape" fill="#EEEEEE"></path>
                    <g id="Group-6" transform="translate(11.000000, 34.000000)">
                        <path d="M0.893466876,5.90427141 L54.8934669,0.11855712 C55.4426087,0.0597205009 55.9354725,0.457191368 55.9943092,1.00633315 C55.9981003,1.04171763 56,1.07727927 56,1.11286627 L56,74.8871337 C56,75.4394185 55.5522847,75.8871337 55,75.8871337 C54.964413,75.8871337 54.9288514,75.8852341 54.8934669,75.8814429 L0.893466876,70.0957286 C0.385327297,70.0412851 -1.59459291e-16,69.6124673 -2.22044605e-16,69.1014194 L0,6.89858056 C-6.25853143e-17,6.38753269 0.385327297,5.95871493 0.893466876,5.90427141 Z" id="Rectangle-29" fill="#E8673A"></path>
                        <path d="M16,20.8221315 L27.9791667,20.0220878 C34.0658048,19.615584 39,24.8687825 39,31.7554351 C39,38.6420877 34.0658048,44.1085157 27.9791667,43.9650438 L21.75,43.8182122 L21.75,55 L16,54.615979 L16,20.8221315 Z M21.4117647,26.2134851 L21.4117647,37.7190553 L28.0073529,37.7190553 C31.0895892,37.7190553 33.5882353,35.0220818 33.5882353,31.6951965 C33.5882353,28.3683112 31.0895892,25.7825879 28.0073529,25.919822 L21.4117647,26.2134851 Z" id="ico_ppt_small" fill="#FFFFFF"></path>
                    </g>
                </g>
            </g>
        </g>
    </g>
</svg>