<?xml version="1.0" encoding="UTF-8"?>
<svg width="40px" height="40px" viewBox="0 0 40 40" version="1.1" xmlns="http://www.w3.org/2000/svg" xmlns:xlink="http://www.w3.org/1999/xlink">
    <!-- Generator: Sketch 49 (51002) - http://www.bohemiancoding.com/sketch -->
    <title>ico_jpg_mini</title>
    <desc>Created with Sketch.</desc>
    <defs>
        <rect id="path-1" x="5" y="3" width="30" height="34" rx="2"></rect>
    </defs>
    <g id="Page-1" stroke="none" stroke-width="1" fill="none" fill-rule="evenodd">
        <g id="weiyun2018_WEB_fileicon" transform="translate(-178.000000, -420.000000)">
            <g id="fileico/jpg_mini" transform="translate(178.000000, 420.000000)">
                <g id="ic_jpg_mini">
                    <rect id="bg" x="0" y="0" width="40" height="40"></rect>
                    <g id="Rectangle-23-Copy">
                        <use fill="#FFFFFF" fill-rule="evenodd" xlink:href="#path-1"></use>
                        <rect stroke="#E0E0E0" stroke-width="1" x="5.5" y="3.5" width="29" height="33" rx="2"></rect>
                    </g>
                    <g id="ic_jpg_small" transform="translate(9.880000, 9.880000)">
                        <path d="M14.5552571,16.2588933 C14.5552571,16.465268 14.764369,16.8114328 15.1825928,17.2973876 L15.1825865,17.2973958 C15.3315811,17.47052 15.3385104,17.7597511 15.1980635,17.9434117 C15.128013,18.0350158 15.0304103,18.0869441 14.9282849,18.0869441 L12.7030378,18.0869441 L12.7030378,18.0869565 C12.4982718,18.0869565 12.3322762,17.8823394 12.3322762,17.6299314 C12.3322762,17.5044979 12.3740991,17.3845777 12.4479432,17.2982758 C12.8641486,16.8118546 13.0722513,16.4653938 13.0722513,16.2588933 L13.0739642,16.2588933 C13.0879988,15.7115789 12.2701177,15.2027501 11.3762285,14.6459888 C9.18008261,13.4740094 7.51130435,10.8731292 7.51130435,8.2948962 C7.51130435,4.81832103 10.333857,2 13.8156522,2 C17.2974473,2 20.12,4.81832103 20.12,8.2948962 C20.12,10.8731292 18.4512217,13.4740094 16.2550758,14.6459888 C15.3611866,15.2027501 14.5433055,15.7115789 14.5573402,16.2588933 L14.5552571,16.2588933 Z" id="照片" fill="#4C94F0"></path>
                        <path d="M8.81565217,14.7267963 C8.24368184,15.2510151 7.79273091,15.7318729 7.87896982,16.1462292 L7.54331054,16.2036628 L7.87708968,16.1465509 C7.91091966,16.3328626 8.15640655,16.6130794 8.61355035,16.9872013 L8.61354601,16.9872097 C8.77640608,17.1204928 8.83007256,17.3805358 8.73341346,17.568032 C8.68520297,17.6615492 8.60562034,17.7235029 8.51344317,17.739275 L6.50496259,18.08294 L6.50496462,18.0829512 C6.32014541,18.1145751 6.13677797,17.9554863 6.09540199,17.7276165 C6.0748403,17.6143772 6.09293124,17.4996561 6.1454349,17.4103398 C6.44136017,16.9069284 6.57239751,16.5620101 6.53854692,16.3755849 L6.87481219,16.3180475 L6.54009298,16.3753203 C6.46304196,15.8790464 5.6414228,15.5459969 4.74334232,15.1814133 C2.56901139,14.4625402 0.636443437,12.3722329 0.213806591,10.0446466 C-0.356091001,6.90605174 1.72951693,3.92580564 4.87214229,3.38808061 C5.74068113,3.23946758 6.59905875,3.29297356 7.39858125,3.51448523 C6.458708,4.82032243 5.90287921,6.43822269 5.90287921,8.18903609 C5.90287921,10.6160651 7.0503304,13.0709739 8.81565217,14.7267963 Z" id="Path" fill="#6AABFF"></path>
                    </g>
                </g>
            </g>
        </g>
    </g>
</svg>