<?xml version="1.0" encoding="UTF-8"?>
<svg width="40px" height="40px" viewBox="0 0 40 40" version="1.1" xmlns="http://www.w3.org/2000/svg" xmlns:xlink="http://www.w3.org/1999/xlink">
    <!-- Generator: Sketch 49.3 (51167) - http://www.bohemiancoding.com/sketch -->
    <title>icon-pdf-mini</title>
    <desc>Created with Sketch.</desc>
    <defs></defs>
    <g id="Page-1" stroke="none" stroke-width="1" fill="none" fill-rule="evenodd">
        <g id="weiyun2018_WEB_fileicon" transform="translate(-718.000000, -660.000000)">
            <g id="fileico/pdf_preview" transform="translate(726.000000, 668.000000)">
                <g>
                    <rect id="bg" x="0" y="0" width="24" height="24"></rect>
                    <path d="M9.87749582,17.1181819 C9.38529467,18.0459149 8.79111808,19.014732 8.3772307,19.5307152 C7.01289372,21.4459671 4.74290079,22.2610527 3.87181174,20.5729194 C3.20217567,19.2751935 3.98453893,17.9385336 5.44733108,17.0514891 C5.74316229,16.865725 7.25096156,16.2776674 8.59460872,15.7694517 C8.81415205,15.3288781 8.9766631,14.9539977 9.02274837,14.7514971 L9.03566464,14.6947424 L9.05594352,14.6401834 C9.72692382,12.8349548 10.6355955,10.0529162 10.7771067,9.3094781 C10.7916413,9.23311957 10.8366419,9.05254671 10.8927456,8.83643982 C10.0504027,6.96126972 9.38316811,5.17137396 9.38316811,4.43915137 C9.38316811,1.82480141 12.4809127,1.58797062 13.2441458,3.96415404 C13.4773584,4.6902179 13.4449841,5.59811748 13.2300725,6.73128578 C13.151398,7.14611398 13.0506629,7.57697633 12.9222931,8.06632265 C12.9228885,8.06405298 12.8449248,8.34795564 12.7561174,8.6766103 C13.6302785,10.5405603 14.6354501,12.4366908 15.1551103,13.1119969 C15.2763592,13.2313397 15.3973569,13.3482178 15.5176945,13.4621794 C17.3137255,12.9692434 18.5436544,12.7670769 19.1182466,12.9301584 C21.4793991,13.6003038 21.0699817,17.3251867 18.6506633,17.3251867 C17.7959722,17.3251867 16.8571154,16.8391623 15.7712495,16.0044166 C15.5280569,15.8174654 15.2964732,15.628389 15.0695148,15.4331263 C13.4296183,15.9189777 11.5000978,16.5485721 9.87749582,17.1181819 Z M12.0589433,11.2676484 C11.715529,12.3820057 11.2395748,13.7933274 10.8201023,14.9426155 C11.1559582,14.827502 11.4970433,14.7123453 11.8402368,14.5982906 C12.4751516,14.387287 13.0747332,14.1932911 13.6373748,14.0176435 C13.2201899,13.4277102 12.648207,12.4204712 12.0589433,11.2676484 Z M11.5684646,4.50238493 C11.3860311,3.93441249 11.1431681,3.95298001 11.1431681,4.43915137 C11.1431681,4.7007554 11.3093814,5.24799314 11.5769324,5.94901323 C11.6690343,5.30492791 11.6667612,4.80841307 11.5684646,4.50238493 Z M6.44351346,18.498874 L6.40337867,18.5300547 L6.35992108,18.5564076 C5.64907195,18.98747 5.35233856,19.4312161 5.41196154,19.6994149 C5.46168014,19.6948864 5.53267377,19.6793853 5.62063129,19.6474753 C6.03919944,19.4956237 6.53856844,19.0844574 6.95597656,18.4923183 L6.99264608,18.4439333 C7.06648018,18.3531911 7.15035009,18.239088 7.24097179,18.1075228 C6.83412769,18.2780728 6.55314409,18.413702 6.44351346,18.498874 Z M18.6506633,15.5651867 C18.9839473,15.5651867 19.073869,14.7470783 18.6377013,14.6232846 C18.4655356,14.5744203 17.9266724,14.6681457 17.1648183,14.8553829 C17.7784188,15.2980899 18.3013125,15.5651867 18.6506633,15.5651867 Z" id="pdf" fill="#FF5555" fill-rule="nonzero"></path>
                </g>
            </g>
        </g>
    </g>
</svg>