<?xml version="1.0" encoding="UTF-8"?>
<svg width="134px" height="134px" viewBox="0 0 134 134" version="1.1" xmlns="http://www.w3.org/2000/svg" xmlns:xlink="http://www.w3.org/1999/xlink">
    <!-- Generator: Sketch 49.3 (51167) - http://www.bohemiancoding.com/sketch -->
    <title>icon-flv-l</title>
    <desc>Created with Sketch.</desc>
    <defs></defs>
    <g id="Page-1" stroke="none" stroke-width="1" fill="none" fill-rule="evenodd">
        <g id="weiyun2018_WEB_fileicon" transform="translate(-80.000000, -1587.000000)">
            <g id="fileico/fla_large" transform="translate(80.000000, 1587.000000)">
                <g id="ico_fla_large">
                    <rect id="Rectangle-8" x="0" y="0" width="134" height="134"></rect>
                    <path d="M11,1.9982312 C11,0.894638583 11.9015377,0 12.991504,0 L121.008496,0 C122.108373,0 123,0.89112382 123,1.9982312 L123,132.001769 C123,133.105361 122.098462,134 121.008496,134 L12.991504,134 C11.8916267,134 11,133.108876 11,132.001769 L11,1.9982312 Z" id="bg" fill="#E4E4E4"></path>
                    <path d="M12,1.99771747 C12,1.44669333 12.4432021,1 13.0015666,1 L120.998433,1 C121.551583,1 122,1.44866088 122,1.99771747 L122,131.002283 C122,131.553307 121.556798,132 120.998433,132 L13.0015666,132 C12.4484166,132 12,131.551339 12,131.002283 L12,1.99771747 Z" id="bg" fill="#FFFFFF"></path>
                    <path d="M72.52572,62 L83,62 L83,70 L69.177622,70 C66.3907433,76.9521862 64.7654906,80.1653667 61.9349188,83.5048549 C57.7756951,88.411877 52.2600307,91 45,91 L45,83 C49.8947507,83 53.1838612,81.456646 55.832202,78.3321527 C58.038794,75.7288314 59.4441913,72.8487369 62.1690329,65.9771331 C62.2585055,65.7514807 62.2585055,65.7514807 62.3482721,65.5251358 C65.4182628,57.7856149 67.1785968,54.2280671 70.3042756,50.6277074 C74.6424656,45.6306986 80.4050267,43 88,43 L88,51 C82.7237526,51 79.1646933,52.6247659 76.345329,55.8722926 C74.9189664,57.5152696 73.8040498,59.2882489 72.52572,62 Z" id="Combined-Shape" fill="#FF5555" fill-rule="nonzero"></path>
                </g>
            </g>
        </g>
    </g>
</svg>