<?xml version="1.0" encoding="UTF-8"?>
<svg width="40px" height="40px" viewBox="0 0 40 40" version="1.1" xmlns="http://www.w3.org/2000/svg" xmlns:xlink="http://www.w3.org/1999/xlink">
    <!-- Generator: Sketch 49 (51002) - http://www.bohemiancoding.com/sketch -->
    <title>ico_apk_mini</title>
    <desc>Created with Sketch.</desc>
    <defs>
        <rect id="path-1" x="5" y="3" width="30" height="34" rx="1"></rect>
    </defs>
    <g id="Page-1" stroke="none" stroke-width="1" fill="none" fill-rule="evenodd">
        <g id="weiyun2018_WEB_fileicon" transform="translate(-448.000000, -580.000000)">
            <g id="fileico/apk_mini" transform="translate(448.000000, 580.000000)">
                <g id="ico_apk_mini">
                    <rect id="bg" x="0" y="0" width="40" height="40"></rect>
                    <g id="Rectangle-23-Copy">
                        <use fill="#FFFFFF" fill-rule="evenodd" xlink:href="#path-1"></use>
                        <rect stroke="#E0E0E0" stroke-width="1" x="5.5" y="3.5" width="29" height="33" rx="1"></rect>
                    </g>
                    <path d="M24.7304023,13.7704384 C26.1254376,15.0212455 27,16.8533167 27,19 L13,19 C13,16.8533167 13.8745624,15.0212455 15.2695977,13.7704384 L14.3324911,12.5709966 C14.0944767,12.2663522 14.1484911,11.8264403 14.4531355,11.588426 C14.75778,11.3504117 15.1976918,11.4044261 15.4357061,11.7090705 L16.4036387,12.9479678 C17.45472,12.3397175 18.685016,12 20,12 C21.314984,12 22.54528,12.3397175 23.5963613,12.9479678 L24.5642939,11.7090705 C24.8023082,11.4044261 25.24222,11.3504117 25.5468645,11.588426 C25.8515089,11.8264403 25.9055233,12.2663522 25.6675089,12.5709966 L24.7304023,13.7704384 Z M22.8,17.5776536 C23.3154658,17.5776536 23.7333333,17.1597861 23.7333333,16.6443203 C23.7333333,16.1288545 23.3154658,15.710987 22.8,15.710987 C22.2845342,15.710987 21.8666667,16.1288545 21.8666667,16.6443203 C21.8666667,17.1597861 22.2845342,17.5776536 22.8,17.5776536 Z M17.2,17.5776536 C17.7154658,17.5776536 18.1333333,17.1597861 18.1333333,16.6443203 C18.1333333,16.1288545 17.7154658,15.710987 17.2,15.710987 C16.6845342,15.710987 16.2666667,16.1288545 16.2666667,16.6443203 C16.2666667,17.1597861 16.6845342,17.5776536 17.2,17.5776536 Z M13,21 L27,21 L27,28 L13,28 L13,21 Z" id="Combined-Shape" fill="#01BD88"></path>
                </g>
            </g>
        </g>
    </g>
</svg>