<?xml version="1.0" encoding="UTF-8"?>
<svg width="134px" height="134px" viewBox="0 0 134 134" version="1.1" xmlns="http://www.w3.org/2000/svg" xmlns:xlink="http://www.w3.org/1999/xlink">
    <!-- Generator: Sketch 49.3 (51167) - http://www.bohemiancoding.com/sketch -->
    <title>icon-doc-l</title>
    <desc>Created with Sketch.</desc>
    <defs></defs>
    <g id="Page-1" stroke="none" stroke-width="1" fill="none" fill-rule="evenodd">
        <g id="weiyun2018_WEB_fileicon" transform="translate(-80.000000, -1042.000000)">
            <g id="fileico/doc_large" transform="translate(80.000000, 1042.000000)">
                <g id="ico_doc_large">
                    <rect id="Rectangle-15" x="0" y="0" width="134" height="134"></rect>
                    <path d="M21,1.9982312 C21,0.894638583 21.8973093,0 22.9917534,0 L121.008247,0 C122.108262,0 123,0.89112382 123,1.9982312 L123,132.001769 C123,133.105361 122.102691,134 121.008247,134 L22.9917534,134 C21.8917384,134 21,133.108876 21,132.001769 L21,1.9982312 Z" id="bg" fill="#E4E4E4"></path>
                    <path d="M22,1.99771747 C22,1.44669333 22.4458427,1 23.0059586,1 L120.994041,1 C121.549617,1 122,1.44866088 122,1.99771747 L122,131.002283 C122,131.553307 121.554157,132 120.994041,132 L23.0059586,132 C22.450383,132 22,131.551339 22,131.002283 L22,1.99771747 Z" id="bg" fill="#FFFFFF"></path>
                    <path d="M36,44 L111,44 L111,49 L36,49 L36,44 Z M36,57 L111,57 L111,62 L36,62 L36,57 Z M36,70 L111,70 L111,75 L36,75 L36,70 Z M36,83 L111,83 L111,88 L36,88 L36,83 Z M36,96 L111,96 L111,101 L36,101 L36,96 Z" id="Combined-Shape" fill="#EEEEEE"></path>
                    <g id="Group" transform="translate(11.000000, 34.000000)">
                        <path d="M0.893466876,5.90427141 L54.8934669,0.11855712 C55.4426087,0.0597205009 55.9354725,0.457191368 55.9943092,1.00633315 C55.9981003,1.04171763 56,1.07727927 56,1.11286627 L56,74.8871337 C56,75.4394185 55.5522847,75.8871337 55,75.8871337 C54.964413,75.8871337 54.9288514,75.8852341 54.8934669,75.8814429 L0.893466876,70.0957286 C0.385327297,70.0412851 6.25853143e-17,69.6124673 0,69.1014194 L0,6.89858056 C3.91316379e-16,6.38753269 0.385327297,5.95871493 0.893466876,5.90427141 Z" id="Rectangle-29" fill="#3A74D1"></path>
                        <polygon id="ico_doc_small" fill="#FFFFFF" points="34.1577061 40.2555069 38.8888889 22.5238734 45 22 36.8518519 53 31.25 52.5302076 26.6668301 35.0556734 22.0833333 51.7774148 16.4814815 51.327127 10 25.0111714 16.1111111 24.531321 19.1756272 40.0570599 23.6111111 23.7950368 29.7222222 23.2931749"></polygon>
                    </g>
                </g>
            </g>
        </g>
    </g>
</svg>