<?xml version="1.0" encoding="UTF-8"?>
<svg width="40px" height="40px" viewBox="0 0 40 40" version="1.1" xmlns="http://www.w3.org/2000/svg" xmlns:xlink="http://www.w3.org/1999/xlink">
    <!-- Generator: Sketch 49 (51002) - http://www.bohemiancoding.com/sketch -->
    <title>ico_pdf_mini</title>
    <desc>Created with Sketch.</desc>
    <defs>
        <rect id="path-1" x="5" y="3" width="30" height="34" rx="1"></rect>
    </defs>
    <g id="Page-1" stroke="none" stroke-width="1" fill="none" fill-rule="evenodd">
        <g id="weiyun2018_WEB_fileicon" transform="translate(-268.000000, -420.000000)">
            <g id="fileico/pdf_mini" transform="translate(268.000000, 420.000000)">
                <g id="ic_pdf_mini">
                    <rect id="bg" x="0" y="0" width="40" height="40"></rect>
                    <g id="Rectangle-23-Copy">
                        <use fill="#FFFFFF" fill-rule="evenodd" xlink:href="#path-1"></use>
                        <rect stroke="#E0E0E0" stroke-width="1" x="5.5" y="3.5" width="29" height="33" rx="1"></rect>
                    </g>
                    <path d="M17.8774958,25.1181819 C17.3852947,26.0459149 16.7911181,27.014732 16.3772307,27.5307152 C15.0128937,29.4459671 12.7429008,30.2610527 11.8718117,28.5729194 C11.2021757,27.2751935 11.9845389,25.9385336 13.4473311,25.0514891 C13.7431623,24.865725 15.2509616,24.2776674 16.5946087,23.7694517 C16.814152,23.3288781 16.9766631,22.9539977 17.0227484,22.7514971 L17.0356646,22.6947424 L17.0559435,22.6401834 C17.7269238,20.8349548 18.6355955,18.0529162 18.7771067,17.3094781 C18.7916413,17.2331196 18.8366419,17.0525467 18.8927456,16.8364398 C18.0504027,14.9612697 17.3831681,13.171374 17.3831681,12.4391514 C17.3831681,9.82480141 20.4809127,9.58797062 21.2441458,11.964154 C21.4773584,12.6902179 21.4449841,13.5981175 21.2300725,14.7312858 C21.151398,15.146114 21.0506629,15.5769763 20.9222931,16.0663226 C20.9228885,16.064053 20.8449248,16.3479556 20.7561174,16.6766103 C21.6302785,18.5405603 22.6354501,20.4366908 23.1551103,21.1119969 C23.2763592,21.2313397 23.3973569,21.3482178 23.5176945,21.4621794 C25.3137255,20.9692434 26.5436544,20.7670769 27.1182466,20.9301584 C29.4793991,21.6003038 29.0699817,25.3251867 26.6506633,25.3251867 C25.7959722,25.3251867 24.8571154,24.8391623 23.7712495,24.0044166 C23.5280569,23.8174654 23.2964732,23.628389 23.0695148,23.4331263 C21.4296183,23.9189777 19.5000978,24.5485721 17.8774958,25.1181819 Z M20.0589433,19.2676484 C19.715529,20.3820057 19.2395748,21.7933274 18.8201023,22.9426155 C19.1559582,22.827502 19.4970433,22.7123453 19.8402368,22.5982906 C20.4751516,22.387287 21.0747332,22.1932911 21.6373748,22.0176435 C21.2201899,21.4277102 20.648207,20.4204712 20.0589433,19.2676484 Z M19.5684646,12.5023849 C19.3860311,11.9344125 19.1431681,11.95298 19.1431681,12.4391514 C19.1431681,12.7007554 19.3093814,13.2479931 19.5769324,13.9490132 C19.6690343,13.3049279 19.6667612,12.8084131 19.5684646,12.5023849 Z M14.4435135,26.498874 L14.4033787,26.5300547 L14.3599211,26.5564076 C13.6490719,26.98747 13.3523386,27.4312161 13.4119615,27.6994149 C13.4616801,27.6948864 13.5326738,27.6793853 13.6206313,27.6474753 C14.0391994,27.4956237 14.5385684,27.0844574 14.9559766,26.4923183 L14.9926461,26.4439333 C15.0664802,26.3531911 15.1503501,26.239088 15.2409718,26.1075228 C14.8341277,26.2780728 14.5531441,26.413702 14.4435135,26.498874 Z M26.6506633,23.5651867 C26.9839473,23.5651867 27.073869,22.7470783 26.6377013,22.6232846 C26.4655356,22.5744203 25.9266724,22.6681457 25.1648183,22.8553829 C25.7784188,23.2980899 26.3013125,23.5651867 26.6506633,23.5651867 Z" id="pdf" fill="#FF5555" fill-rule="nonzero"></path>
                </g>
            </g>
        </g>
    </g>
</svg>