<?xml version="1.0" encoding="UTF-8"?>
<svg width="134px" height="134px" viewBox="0 0 134 134" version="1.1" xmlns="http://www.w3.org/2000/svg" xmlns:xlink="http://www.w3.org/1999/xlink">
    <!-- Generator: Sketch 49.3 (51167) - http://www.bohemiancoding.com/sketch -->
    <title>icon-pages-l</title>
    <desc>Created with Sketch.</desc>
    <defs></defs>
    <g id="Page-1" stroke="none" stroke-width="1" fill="none" fill-rule="evenodd">
        <g id="weiyun2018_WEB_fileicon" transform="translate(-448.000000, -1224.000000)">
            <g id="fileico/pages_large" transform="translate(449.000000, 1224.000000)">
                <g id="ico_pages_large">
                    <rect id="Rectangle-8" x="0" y="0" width="134" height="134"></rect>
                    <path d="M11,1.9982312 C11,0.894638583 11.9015377,0 12.991504,0 L121.008496,0 C122.108373,0 123,0.89112382 123,1.9982312 L123,132.001769 C123,133.105361 122.098462,134 121.008496,134 L12.991504,134 C11.8916267,134 11,133.108876 11,132.001769 L11,1.9982312 Z" id="bg" fill="#E4E4E4"></path>
                    <path d="M12,1.99771747 C12,1.44669333 12.4432021,1 13.0015666,1 L120.998433,1 C121.551583,1 122,1.44866088 122,1.99771747 L122,131.002283 C122,131.553307 121.556798,132 120.998433,132 L13.0015666,132 C12.4484166,132 12,131.551339 12,131.002283 L12,1.99771747 Z" id="bg" fill="#FFFFFF"></path>
                    <path d="M58.6666667,46.3333333 L58.6666667,62.3333333 L56,62.3333333 L56,38.3333333 L58.6666667,38.3333333 L61.3333333,38.3333333 L61.3333333,34.3333333 C62.178335,33.4444444 63.9561128,33 66.6666667,33 C69.3772206,33 71.1549984,33.4444444 72,34.3333333 L72,62.3333333 L61.3333333,62.3333333 L61.3333333,46.3333333 L58.6666667,46.3333333 Z M61.3333333,65 L72,65 C72,71.4632809 72,78.1299476 72,85 C72,89.9078551 70.2222222,94.796744 66.6666667,99.6666667 C63.1111111,94.4925249 61.3333333,89.603636 61.3333333,85 C61.3333333,77.9941581 61.3333333,71.3274913 61.3333333,64.9999995 Z" id="ico_pages_small" fill="#FF8127" transform="translate(64.000000, 66.333333) rotate(-315.000000) translate(-64.000000, -66.333333) "></path>
                </g>
            </g>
        </g>
    </g>
</svg>