<?xml version="1.0" encoding="UTF-8"?>
<svg width="40px" height="40px" viewBox="0 0 40 40" version="1.1" xmlns="http://www.w3.org/2000/svg" xmlns:xlink="http://www.w3.org/1999/xlink">
    <!-- Generator: Sketch 49.2 (51160) - http://www.bohemiancoding.com/sketch -->
    <title>icon-team-info</title>
    <desc>Created with Sketch.</desc>
    <defs></defs>
    <g id="Page-1" stroke="none" stroke-width="1" fill="none" fill-rule="evenodd">
        <g id="icon-team-info">
            <rect id="头像" fill="#FFA72B" x="0" y="0" width="40" height="40" rx="2"></rect>
            <path d="M29,16 L11,16 L11,14.0068455 C11,13.4507801 11.4449463,13 11.9933977,13 L28.0066023,13 C28.5552407,13 29,13.4499488 29,14.0068455 L29,16 Z M29,19 L29,25.9931545 C29,26.5492199 28.5550537,27 28.0066023,27 L11.9933977,27 C11.4447593,27 11,26.5500512 11,25.9931545 L11,19 L29,19 Z M22,22 L21,25 L26,25 L27,22 L22,22 Z" id="Combined-Shape" fill="#FFFFFF"></path>
        </g>
    </g>
</svg>