<svg width="64" height="64" viewBox="0 0 64 64" xmlns="http://www.w3.org/2000/svg"><title>icon-shared-link-l</title><path d="M22.017 31.875l-7.725 7.691a7.142 7.142 0 0 0 .005 10.123c2.802 2.79 7.36 2.798 10.165.004L32.187 42l.03.03a3.61 3.61 0 0 1 4.962.116 3.572 3.572 0 0 1 .117 4.941l.003.003-7.747 7.713c-5.617 5.594-14.723 5.595-20.34.001-5.617-5.592-5.615-14.662 0-20.254l7.747-7.713.027-.027a3.59 3.59 0 0 1 5.058 0 3.553 3.553 0 0 1-.027 5.063zm25.226 5.181a3.617 3.617 0 0 1-5.218.123 3.59 3.59 0 0 1 .124-5.202l-.03-.03 7.56-7.537a7.178 7.178 0 0 0-.003-10.166c-2.811-2.803-7.382-2.81-10.196-.004l-7.561 7.538a3.598 3.598 0 0 1-5.1.027 3.572 3.572 0 0 1 0-5.059l.027-.026 7.529-7.507c5.633-5.617 14.766-5.618 20.4 0 5.634 5.616 5.632 14.724 0 20.34l-7.529 7.506-.003-.003zM37.08 21.838a3.594 3.594 0 0 1 5.081 5.082l-15.24 15.242a3.594 3.594 0 0 1-5.081-5.082l15.239-15.242z" fill="#00A4FF" fill-rule="evenodd"/></svg>