<?xml version="1.0" encoding="UTF-8"?>
<svg width="134px" height="134px" viewBox="0 0 134 134" version="1.1" xmlns="http://www.w3.org/2000/svg" xmlns:xlink="http://www.w3.org/1999/xlink">
    <!-- Generator: Sketch 49.3 (51167) - http://www.bohemiancoding.com/sketch -->
    <title>icon-msg-l</title>
    <desc>Created with Sketch.</desc>
    <defs></defs>
    <g id="Page-1" stroke="none" stroke-width="1" fill="none" fill-rule="evenodd">
        <g id="weiyun2018_WEB_fileicon" transform="translate(-632.000000, -1042.000000)">
            <g id="fileico/msg_large" transform="translate(632.000000, 1042.000000)">
                <g id="ico_msg_large">
                    <rect id="Rectangle-15" x="0" y="0" width="134" height="134"></rect>
                    <path d="M21,1.9982312 C21,0.894638583 21.8973093,0 22.9917534,0 L121.008247,0 C122.108262,0 123,0.89112382 123,1.9982312 L123,132.001769 C123,133.105361 122.102691,134 121.008247,134 L22.9917534,134 C21.8917384,134 21,133.108876 21,132.001769 L21,1.9982312 Z" id="bg" fill="#E4E4E4"></path>
                    <path d="M22,1.99771747 C22,1.44669333 22.4458427,1 23.0059586,1 L120.994041,1 C121.549617,1 122,1.44866088 122,1.99771747 L122,131.002283 C122,131.553307 121.554157,132 120.994041,132 L23.0059586,132 C22.450383,132 22,131.551339 22,131.002283 L22,1.99771747 Z" id="bg" fill="#FFFFFF"></path>
                    <path d="M45.5557768,46 L102.280847,46 L73.058841,70.0651812 L45.5557768,46 Z M107,49.8863616 L107,98 L41,98 L41,49.9863047 L72.941159,77.9348188 L107,49.8863616 Z" id="Combined-Shape" fill="#EEEEEE"></path>
                    <g id="Group-10" transform="translate(11.000000, 34.000000)">
                        <path d="M0.893466876,5.90427141 L54.8934669,0.11855712 C55.4426087,0.0597205009 55.9354725,0.457191368 55.9943092,1.00633315 C55.9981003,1.04171763 56,1.07727927 56,1.11286627 L56,74.8871337 C56,75.4394185 55.5522847,75.8871337 55,75.8871337 C54.964413,75.8871337 54.9288514,75.8852341 54.8934669,75.8814429 L0.893466876,70.0957286 C0.385327297,70.0412851 -1.59459291e-16,69.6124673 -2.22044605e-16,69.1014194 L0,6.89858056 C-6.25853143e-17,6.38753269 0.385327297,5.95871493 0.893466876,5.90427141 Z" id="Rectangle-29" fill="#0083EA"></path>
                        <path d="M26.0857143,47.8048236 C31.239432,47.9826194 35.0342857,44.1613661 35.0342857,36.999873 C35.0342857,29.8585423 31.2117173,26.0180827 26.0857143,26.1949224 C20.9722151,26.3713308 17.4685702,30.272411 17.4685702,36.999873 C17.4685702,43.746394 20.9444811,47.6274584 26.0857143,47.8048236 Z M26.0857143,53.979081 C18.5935629,53.5729163 12,47.7741891 12,36.999873 C12,26.2255569 18.6424897,20.4241773 26.0857143,20.020665 C33.5289389,19.6171526 41,25.1175562 41,36.999873 C41,48.8821898 33.5778656,54.3852458 26.0857143,53.979081 Z" id="ico_msg_small" fill="#FFFFFF" fill-rule="nonzero"></path>
                    </g>
                </g>
            </g>
        </g>
    </g>
</svg>