<?xml version="1.0" encoding="UTF-8"?>
<svg width="134px" height="134px" viewBox="0 0 134 134" version="1.1" xmlns="http://www.w3.org/2000/svg" xmlns:xlink="http://www.w3.org/1999/xlink">
    <!-- Generator: Sketch 49.3 (51167) - http://www.bohemiancoding.com/sketch -->
    <title>icon-bt-l</title>
    <desc>Created with Sketch.</desc>
    <defs></defs>
    <g id="Page-1" stroke="none" stroke-width="1" fill="none" fill-rule="evenodd">
        <g id="weiyun2018_WEB_fileicon" transform="translate(-632.000000, -1405.000000)">
            <g id="fileico/bt_large" transform="translate(632.000000, 1405.000000)">
                <g id="ico_bt_large">
                    <rect id="Rectangle-8" x="0" y="0" width="134" height="134"></rect>
                    <path d="M11,1.9982312 C11,0.894638583 11.9015377,0 12.991504,0 L121.008496,0 C122.108373,0 123,0.89112382 123,1.9982312 L123,132.001769 C123,133.105361 122.098462,134 121.008496,134 L12.991504,134 C11.8916267,134 11,133.108876 11,132.001769 L11,1.9982312 Z" id="bg" fill="#E4E4E4"></path>
                    <path d="M12,1.99771747 C12,1.44669333 12.4432021,1 13.0015666,1 L120.998433,1 C121.551583,1 122,1.44866088 122,1.99771747 L122,131.002283 C122,131.553307 121.556798,132 120.998433,132 L13.0015666,132 C12.4484166,132 12,131.551339 12,131.002283 L12,1.99771747 Z" id="bg" fill="#FFFFFF"></path>
                    <path d="M84.5,89 C80.9101491,89 78,86.0898509 78,82.5 L78,69 L73,69 L73,61 L78,61 L78,57 L86,57 L86,61 L91,61 L91,69 L86,69 L86,76.1739318 L86,81 L91,81 L91,89 L84.5,89 Z M43,81 L43,54 L43,46 L55,46 C61.627417,46 67,51.372583 67,58 C67,60.5590347 66.1989735,62.9309796 64.833979,64.8787762 C67.9795514,67.3503999 70,71.1892494 70,75.5 C70,82.9558441 63.9558441,89 56.5,89 L43,89 L43,81 Z M51,54 L51,62 L55.0037973,62 C57.2111696,62 59,60.209139 59,58 C59,55.7953562 57.2108391,54 55.0037973,54 L51,54 Z M51,70 L51,81 L56.5044128,81 C59.5355603,81 62,78.5375661 62,75.5 C62,72.4686147 59.5395418,70 56.5044128,70 L51,70 Z" id="Combined-Shape" fill="#FFA72B"></path>
                </g>
            </g>
        </g>
    </g>
</svg>