<?xml version="1.0" encoding="UTF-8"?>
<svg width="134px" height="134px" viewBox="0 0 134 134" version="1.1" xmlns="http://www.w3.org/2000/svg" xmlns:xlink="http://www.w3.org/1999/xlink">
    <!-- Generator: Sketch 49.3 (51167) - http://www.bohemiancoding.com/sketch -->
    <title>icon-ps-l</title>
    <desc>Created with Sketch.</desc>
    <defs></defs>
    <g id="Page-1" stroke="none" stroke-width="1" fill="none" fill-rule="evenodd">
        <g id="weiyun2018_WEB_fileicon" transform="translate(-264.000000, -1405.000000)">
            <g id="fileico/psd_large" transform="translate(264.000000, 1405.000000)">
                <g id="ico_psd_large">
                    <rect id="Rectangle-8" x="0" y="0" width="134" height="134"></rect>
                    <path d="M11,1.9982312 C11,0.894638583 11.9015377,0 12.991504,0 L121.008496,0 C122.108373,0 123,0.89112382 123,1.9982312 L123,132.001769 C123,133.105361 122.098462,134 121.008496,134 L12.991504,134 C11.8916267,134 11,133.108876 11,132.001769 L11,1.9982312 Z" id="bg" fill="#E4E4E4"></path>
                    <path d="M12,1.99771747 C12,1.44669333 12.4432021,1 13.0015666,1 L120.998433,1 C121.551583,1 122,1.44866088 122,1.99771747 L122,131.002283 C122,131.553307 121.556798,132 120.998433,132 L13.0015666,132 C12.4484166,132 12,131.551339 12,131.002283 L12,1.99771747 Z" id="bg" fill="#FFFFFF"></path>
                    <path d="M50,73 L50,89 L42,89 L42,54 L42,46 L55.5,46 C62.9558441,46 69,52.0441559 69,59.5 C69,66.9558441 62.9558441,73 55.5,73 L50,73 Z M50,54 L50,65 L55.5044128,65 C58.5355603,65 61,62.5375661 61,59.5 C61,56.4686147 58.5395418,54 55.5044128,54 L50,54 Z M90,57.710602 L90,64.7462737 C87.7233615,63.3196622 78.6666667,61.3485445 78.6666667,65.3333333 C78.6666667,69.631629 91.3333333,69.2033754 91.3333333,79.3333333 C91.3333333,87.4287914 81.2636164,91.0703534 72,86.813848 L72,79.3719013 C76.6744802,82.4426476 83.3333333,83.0179139 83.3333333,79.3333333 C83.3333333,75.0144358 71.3333333,75.6032233 71.3333333,65.3333333 C71.3333333,55.1600313 85.9312678,55.8524219 90,57.710602 Z" id="Combined-Shape" fill="#4C94F0"></path>
                </g>
            </g>
        </g>
    </g>
</svg>