<?xml version="1.0" encoding="UTF-8"?>
<svg width="40px" height="40px" viewBox="0 0 40 40" version="1.1" xmlns="http://www.w3.org/2000/svg" xmlns:xlink="http://www.w3.org/1999/xlink">
    <!-- Generator: Sketch 49 (51002) - http://www.bohemiancoding.com/sketch -->
    <title>ico_mov_mini</title>
    <desc>Created with Sketch.</desc>
    <defs>
        <rect id="path-1" x="0" y="0" width="40" height="40"></rect>
        <rect id="path-3" x="5" y="3" width="30" height="34" rx="1"></rect>
    </defs>
    <g id="Page-1" stroke="none" stroke-width="1" fill="none" fill-rule="evenodd">
        <g id="weiyun2018_WEB_fileicon" transform="translate(-88.000000, -420.000000)">
            <g id="fileico/mov_mini" transform="translate(88.000000, 420.000000)">
                <g id="ic_mov_mini">
                    <mask id="mask-2" fill="white">
                        <use xlink:href="#path-1"></use>
                    </mask>
                    <g id="Mask"></g>
                    <g id="Rectangle-23-Copy" mask="url(#mask-2)">
                        <use fill="#FFFFFF" fill-rule="evenodd" xlink:href="#path-3"></use>
                        <rect stroke="#E0E0E0" stroke-width="1" x="5.5" y="3.5" width="29" height="33" rx="1"></rect>
                    </g>
                    <path d="M13,13 L27,13 C27.5522847,13 28,13.4477153 28,14 L28,26 C28,26.5522847 27.5522847,27 27,27 L13,27 C12.4477153,27 12,26.5522847 12,26 L12,14 C12,13.4477153 12.4477153,13 13,13 Z M18,17 L18,23 L23,20 L18,17 Z" id="Combined-Shape" fill="#6F7DE8" mask="url(#mask-2)"></path>
                </g>
            </g>
        </g>
    </g>
</svg>