<?xml version="1.0" encoding="UTF-8"?>
<svg width="134px" height="134px" viewBox="0 0 134 134" version="1.1" xmlns="http://www.w3.org/2000/svg" xmlns:xlink="http://www.w3.org/1999/xlink">
    <!-- Generator: Sketch 49.3 (51167) - http://www.bohemiancoding.com/sketch -->
    <title>icon-apk-l</title>
    <desc>Created with Sketch.</desc>
    <defs></defs>
    <g id="Page-1" stroke="none" stroke-width="1" fill="none" fill-rule="evenodd">
        <g id="weiyun2018_WEB_fileicon" transform="translate(-80.000000, -1769.000000)">
            <g id="fileico/apk_large" transform="translate(80.000000, 1769.000000)">
                <g id="ico_apk_large">
                    <rect id="Rectangle-8" x="0" y="0" width="134" height="134"></rect>
                    <path d="M11,1.9982312 C11,0.894638583 11.9015377,0 12.991504,0 L121.008496,0 C122.108373,0 123,0.89112382 123,1.9982312 L123,132.001769 C123,133.105361 122.098462,134 121.008496,134 L12.991504,134 C11.8916267,134 11,133.108876 11,132.001769 L11,1.9982312 Z" id="bg" fill="#E4E4E4"></path>
                    <path d="M12,1.99771747 C12,1.44669333 12.4432021,1 13.0015666,1 L120.998433,1 C121.551583,1 122,1.44866088 122,1.99771747 L122,131.002283 C122,131.553307 121.556798,132 120.998433,132 L13.0015666,132 C12.4484166,132 12,131.551339 12,131.002283 L12,1.99771747 Z" id="bg" fill="#FFFFFF"></path>
                    <path d="M80.0696669,50.2289458 C84.3140668,53.567899 87,58.601116 87,64.5361463 L47,64.5361463 C47,58.601116 49.6859332,53.567899 53.9303331,50.2289458 L50.8071173,46.2314119 C50.1270764,45.3609992 50.2814032,44.1041083 51.1518158,43.4240674 C52.0222285,42.7440265 53.2791194,42.8983533 53.9591603,43.768766 L57.3302089,48.0835113 C60.1961214,46.6589683 63.4926261,45.8694796 67,45.8694796 C70.5073739,45.8694796 73.8038786,46.6589683 76.6697911,48.0835113 L80.0408397,43.768766 C80.7208806,42.8983533 81.9777715,42.7440265 82.8481842,43.4240674 C83.7185968,44.1041083 83.8729236,45.3609992 83.1928827,46.2314119 L80.0696669,50.2289458 Z M47,69.8694796 L87,69.8694796 L87,91.2028129 L47,91.2028129 L47,69.8694796 Z M75,60.5361463 C76.4727593,60.5361463 77.6666667,59.3422389 77.6666667,57.8694796 C77.6666667,56.3967203 76.4727593,55.2028129 75,55.2028129 C73.5272407,55.2028129 72.3333333,56.3967203 72.3333333,57.8694796 C72.3333333,59.3422389 73.5272407,60.5361463 75,60.5361463 Z M59,60.5361463 C60.4727593,60.5361463 61.6666667,59.3422389 61.6666667,57.8694796 C61.6666667,56.3967203 60.4727593,55.2028129 59,55.2028129 C57.5272407,55.2028129 56.3333333,56.3967203 56.3333333,57.8694796 C56.3333333,59.3422389 57.5272407,60.5361463 59,60.5361463 Z" id="Combined-Shape" fill="#01BD88"></path>
                </g>
            </g>
        </g>
    </g>
</svg>