<?xml version="1.0" encoding="UTF-8"?>
<svg width="40px" height="40px" viewBox="0 0 40 40" version="1.1" xmlns="http://www.w3.org/2000/svg" xmlns:xlink="http://www.w3.org/1999/xlink">
    <!-- Generator: Sketch 49 (51002) - http://www.bohemiancoding.com/sketch -->
    <title>ico_numbers_mini</title>
    <desc>Created with Sketch.</desc>
    <defs>
        <rect id="path-1" x="5" y="3" width="30" height="34" rx="1"></rect>
    </defs>
    <g id="Page-1" stroke="none" stroke-width="1" fill="none" fill-rule="evenodd">
        <g id="weiyun2018_WEB_fileicon" transform="translate(-178.000000, -500.000000)">
            <g id="fileico/numbers_mini" transform="translate(178.000000, 500.000000)">
                <g id="ico_numbers_mini">
                    <rect id="bg" x="0" y="0" width="40" height="40"></rect>
                    <g id="Rectangle-23-Copy">
                        <use fill="#FFFFFF" fill-rule="evenodd" xlink:href="#path-1"></use>
                        <rect stroke="#E0E0E0" stroke-width="1" x="5.5" y="3.5" width="29" height="33" rx="1"></rect>
                    </g>
                    <path d="M27,11 L27,25 L23,25 L23,11 L27,11 Z M22,15 L22,25 L18,25 L18,15 L22,15 Z M17,18 L17,25 L13,25 L13,18 L17,18 Z M12,26 L28,26 L28,28 L12,28 L12,26 Z" id="ico_numbers_small" fill="#01BD88"></path>
                </g>
            </g>
        </g>
    </g>
</svg>